<svg xmlns="http://www.w3.org/2000/svg" height="887" width="960.0" font-size="16" font-family="sans-serif" stroke-width="2">
<g transform="translate(10.0 0)">
<text fill="hsl(0, 100%, 40%)" y="22">findLargestPaths All.flat.100 - Sync 985  μs</text>
<g>
<title>985  μs ±  62 μs</title>
<rect y="28" rx="5" height="22" width="0.146480520343751" fill="hsl(0, 100%, 80%)" stroke="hsl(0, 100%, 55%)" />
<g stroke="hsl(0, 100%, 40%)"><line x1="0.1372774035111461" x2="0.15568363717635592" y1="39" y2="39" />
<line x1="0.1372774035111461" x2="0.1372774035111461" y1="33" y2="45" />
<line x1="0.15568363717635592" x2="0.15568363717635592" y1="33" y2="45" />
</g>
</g>
<text fill="hsl(22, 100%, 40%)" y="77">findLargestPaths All.flat.1_000 - Sync 14.4 ms</text>
<g>
<title>14.4 ms ± 1.3 ms</title>
<rect y="83" rx="5" height="22" width="2.1444825044228177" fill="hsl(22, 100%, 80%)" stroke="hsl(22, 100%, 55%)" />
<g stroke="hsl(22, 100%, 40%)"><line x1="1.9513685740790003" x2="2.337596434766635" y1="94" y2="94" />
<line x1="1.9513685740790003" x2="1.9513685740790003" y1="88" y2="100" />
<line x1="2.337596434766635" x2="2.337596434766635" y1="88" y2="100" />
</g>
</g>
<text fill="hsl(45, 100%, 40%)" y="132">findLargestPaths All.flat.10_000 - Sync 269  ms</text>
<g>
<title>269  ms ± 2.5 ms</title>
<rect y="138" rx="5" height="22" width="40.04430858399821" fill="hsl(45, 100%, 80%)" stroke="hsl(45, 100%, 55%)" />
<g stroke="hsl(45, 100%, 40%)"><line x1="39.66578958320072" x2="40.4228275847957" y1="149" y2="149" />
<line x1="39.66578958320072" x2="39.66578958320072" y1="143" y2="155" />
<line x1="40.4228275847957" x2="40.4228275847957" y1="143" y2="155" />
</g>
</g>
<text fill="hsl(67, 100%, 40%)" y="187">findLargestPaths All.sparse.d=6 - Sync 133  ms</text>
<g>
<title>133  ms ± 9.4 ms</title>
<rect y="193" rx="5" height="22" width="19.748052196791047" fill="hsl(67, 100%, 80%)" stroke="hsl(67, 100%, 55%)" />
<g stroke="hsl(67, 100%, 40%)"><line x1="18.351424901359692" x2="21.1446794922224" y1="204" y2="204" />
<line x1="18.351424901359692" x2="18.351424901359692" y1="198" y2="210" />
<line x1="21.1446794922224" x2="21.1446794922224" y1="198" y2="210" />
</g>
</g>
<text fill="hsl(90, 100%, 40%)" y="242">findLargestPaths All.sparse.d=8 - Sync 607  ms</text>
<g>
<title>607  ms ±  13 ms</title>
<rect y="248" rx="5" height="22" width="90.21205657072623" fill="hsl(90, 100%, 80%)" stroke="hsl(90, 100%, 55%)" />
<g stroke="hsl(90, 100%, 40%)"><line x1="88.27529026351228" x2="92.14882287794019" y1="259" y2="259" />
<line x1="88.27529026351228" x2="88.27529026351228" y1="253" y2="265" />
<line x1="92.14882287794019" x2="92.14882287794019" y1="253" y2="265" />
</g>
</g>
<text fill="hsl(112, 100%, 40%)" y="297">findLargestPaths All.sparse.d=10 - Sync 2.490 s</text>
<g>
<title>2.490 s ± 227 ms</title>
<rect y="303" rx="5" height="22" width="370.39406993586636" fill="hsl(112, 100%, 80%)" stroke="hsl(112, 100%, 55%)" />
<g stroke="hsl(112, 100%, 40%)"><line x1="336.60596963487103" x2="404.1821702368617" y1="314" y2="314" />
<line x1="336.60596963487103" x2="336.60596963487103" y1="308" y2="320" />
<line x1="404.1821702368617" x2="404.1821702368617" y1="308" y2="320" />
</g>
</g>
<text fill="hsl(135, 100%, 40%)" y="352">findLargestPaths All.dense.d=6 - Sync 244  ms</text>
<g>
<title>244  ms ± 2.7 ms</title>
<rect y="358" rx="5" height="22" width="36.323850577870964" fill="hsl(135, 100%, 80%)" stroke="hsl(135, 100%, 55%)" />
<g stroke="hsl(135, 100%, 40%)"><line x1="35.92541757604554" x2="36.72228357969639" y1="369" y2="369" />
<line x1="35.92541757604554" x2="35.92541757604554" y1="363" y2="375" />
<line x1="36.72228357969639" x2="36.72228357969639" y1="363" y2="375" />
</g>
</g>
<text fill="hsl(157, 100%, 40%)" y="407">findLargestPaths All.dense.d=8 - Sync 1.076 s</text>
<g>
<title>1.076 s ±  52 ms</title>
<rect y="413" rx="5" height="22" width="160.04767916224446" fill="hsl(157, 100%, 80%)" stroke="hsl(157, 100%, 55%)" />
<g stroke="hsl(157, 100%, 40%)"><line x1="152.31514702940058" x2="167.78021129508835" y1="424" y2="424" />
<line x1="152.31514702940058" x2="152.31514702940058" y1="418" y2="430" />
<line x1="167.78021129508835" x2="167.78021129508835" y1="418" y2="430" />
</g>
</g>
<g fill="hsl(180, 100%, 40%)">
<text y="462">findLargestPaths All.dense.d=10 - Sync</text>
<text y="462" x="748.2353678857022" text-anchor="end">5.031 s</text>
</g>
<g>
<title>5.031 s ± 271 ms</title>
<rect y="468" rx="5" height="22" width="748.2353678857022" fill="hsl(180, 100%, 80%)" stroke="hsl(180, 100%, 55%)" />
<g stroke="hsl(180, 100%, 40%)"><line x1="707.9622737912008" x2="788.5084619802036" y1="479" y2="479" />
<line x1="707.9622737912008" x2="707.9622737912008" y1="473" y2="485" />
<line x1="788.5084619802036" x2="788.5084619802036" y1="473" y2="485" />
</g>
</g>
<g fill="hsl(202, 100%, 40%)">
<text y="517">takeLargestN.1</text>
<text y="517" x="719.6055142484137" text-anchor="end">4.838 s</text>
</g>
<g>
<title>4.838 s ±  55 ms</title>
<rect y="523" rx="5" height="22" width="719.6055142484137" fill="hsl(202, 100%, 80%)" stroke="hsl(202, 100%, 55%)" />
<g stroke="hsl(202, 100%, 40%)"><line x1="711.4230746799703" x2="727.787953816857" y1="534" y2="534" />
<line x1="711.4230746799703" x2="711.4230746799703" y1="528" y2="540" />
<line x1="727.787953816857" x2="727.787953816857" y1="528" y2="540" />
</g>
</g>
<g fill="hsl(225, 100%, 40%)">
<text y="572">takeLargestN.10</text>
<text y="572" x="732.3100804749555" text-anchor="end">4.924 s</text>
</g>
<g>
<title>4.924 s ± 326 ms</title>
<rect y="578" rx="5" height="22" width="732.3100804749555" fill="hsl(225, 100%, 80%)" stroke="hsl(225, 100%, 55%)" />
<g stroke="hsl(225, 100%, 40%)"><line x1="683.8329733104758" x2="780.7871876394352" y1="589" y2="589" />
<line x1="683.8329733104758" x2="683.8329733104758" y1="583" y2="595" />
<line x1="780.7871876394352" x2="780.7871876394352" y1="583" y2="595" />
</g>
</g>
<g fill="hsl(247, 100%, 40%)">
<text y="627">takeLargestN.100</text>
<text y="627" x="711.6872895447412" text-anchor="end">4.785 s</text>
</g>
<g>
<title>4.785 s ± 145 ms</title>
<rect y="633" rx="5" height="22" width="711.6872895447412" fill="hsl(247, 100%, 80%)" stroke="hsl(247, 100%, 55%)" />
<g stroke="hsl(247, 100%, 40%)"><line x1="690.1515544501806" x2="733.2230246393019" y1="644" y2="644" />
<line x1="690.1515544501806" x2="690.1515544501806" y1="638" y2="650" />
<line x1="733.2230246393019" x2="733.2230246393019" y1="638" y2="650" />
</g>
</g>
<g fill="hsl(270, 100%, 40%)">
<text y="682">takeLargestN.1_000</text>
<text y="682" x="707.2853108520327" text-anchor="end">4.756 s</text>
</g>
<g>
<title>4.756 s ± 224 ms</title>
<rect y="688" rx="5" height="22" width="707.2853108520327" fill="hsl(270, 100%, 80%)" stroke="hsl(270, 100%, 55%)" />
<g stroke="hsl(270, 100%, 40%)"><line x1="673.896341939563" x2="740.6742797645024" y1="699" y2="699" />
<line x1="673.896341939563" x2="673.896341939563" y1="693" y2="705" />
<line x1="740.6742797645024" x2="740.6742797645024" y1="693" y2="705" />
</g>
</g>
<text fill="hsl(292, 100%, 40%)" y="737">displayPathSize.d=6 325  ms</text>
<g>
<title>325  ms ±  12 ms</title>
<rect y="743" rx="5" height="22" width="48.40692557429217" fill="hsl(292, 100%, 80%)" stroke="hsl(292, 100%, 55%)" />
<g stroke="hsl(292, 100%, 40%)"><line x1="46.65390816287267" x2="50.159942985711666" y1="754" y2="754" />
<line x1="46.65390816287267" x2="46.65390816287267" y1="748" y2="760" />
<line x1="50.159942985711666" x2="50.159942985711666" y1="748" y2="760" />
</g>
</g>
<text fill="hsl(315, 100%, 40%)" y="792">displayPathSize.d=8 1.437 s</text>
<g>
<title>1.437 s ±  38 ms</title>
<rect y="798" rx="5" height="22" width="213.79113893858118" fill="hsl(315, 100%, 80%)" stroke="hsl(315, 100%, 55%)" />
<g stroke="hsl(315, 100%, 40%)"><line x1="208.07258808931135" x2="219.50968978785102" y1="809" y2="809" />
<line x1="208.07258808931135" x2="208.07258808931135" y1="803" y2="815" />
<line x1="219.50968978785102" x2="219.50968978785102" y1="803" y2="815" />
</g>
</g>
<g fill="hsl(337, 100%, 40%)">
<text y="847">displayPathSize.d=10</text>
<text y="847" x="926.5851466652593" text-anchor="end">6.230 s</text>
</g>
<g>
<title>6.230 s ±  90 ms</title>
<rect y="853" rx="5" height="22" width="926.5851466652593" fill="hsl(337, 100%, 80%)" stroke="hsl(337, 100%, 55%)" />
<g stroke="hsl(337, 100%, 40%)"><line x1="913.1702933305187" x2="940.0" y1="864" y2="864" />
<line x1="913.1702933305187" x2="913.1702933305187" y1="858" y2="870" />
<line x1="940.0" x2="940.0" y1="858" y2="870" />
</g>
</g>
</g>
</svg>
