<svg xmlns="http://www.w3.org/2000/svg" height="172" width="960.0" font-size="16" font-family="sans-serif" stroke-width="2">
<g transform="translate(10.0 0)">
<g fill="hsl(0, 100%, 40%)">
<text y="22">findLargestPaths.Sync</text>
<text y="22" x="471.3020689460257" text-anchor="end">4.451 s</text>
</g>
<g>
<title>4.451 s ± 406 ms</title>
<rect y="28" rx="5" height="22" width="471.3020689460257" fill="hsl(0, 100%, 80%)" stroke="hsl(0, 100%, 55%)" />
<g stroke="hsl(0, 100%, 40%)"><line x1="428.2989588623436" x2="514.3051790297078" y1="39" y2="39" />
<line x1="428.2989588623436" x2="428.2989588623436" y1="33" y2="45" />
<line x1="514.3051790297078" x2="514.3051790297078" y1="33" y2="45" />
</g>
</g>
<g fill="hsl(120, 100%, 40%)">
<text y="77">takeLargest10.Sync</text>
<text y="77" x="455.61660534420594" text-anchor="end">4.303 s</text>
</g>
<g>
<title>4.303 s ±  88 ms</title>
<rect y="83" rx="5" height="22" width="455.61660534420594" fill="hsl(120, 100%, 80%)" stroke="hsl(120, 100%, 55%)" />
<g stroke="hsl(120, 100%, 40%)"><line x1="446.2464713368002" x2="464.9867393516117" y1="94" y2="94" />
<line x1="446.2464713368002" x2="446.2464713368002" y1="88" y2="100" />
<line x1="464.9867393516117" x2="464.9867393516117" y1="88" y2="100" />
</g>
</g>
<g fill="hsl(240, 100%, 40%)">
<text y="132">displayPathSize.Sync</text>
<text y="132" x="935.147772556241" text-anchor="end">8.831 s</text>
</g>
<g>
<title>8.831 s ±  46 ms</title>
<rect y="138" rx="5" height="22" width="935.147772556241" fill="hsl(240, 100%, 80%)" stroke="hsl(240, 100%, 55%)" />
<g stroke="hsl(240, 100%, 40%)"><line x1="930.2955451124819" x2="940.0" y1="149" y2="149" />
<line x1="930.2955451124819" x2="930.2955451124819" y1="143" y2="155" />
<line x1="940.0" x2="940.0" y1="143" y2="155" />
</g>
</g>
</g>
</svg>
