<svg xmlns="http://www.w3.org/2000/svg" height="887" width="960.0" font-size="16" font-family="sans-serif" stroke-width="2">
<g transform="translate(10.0 0)">
<text fill="hsl(0, 100%, 40%)" y="22">findLargestPaths All.flat.100 - Sync 979  μs</text>
<g>
<title>979  μs ±  49 μs</title>
<rect y="28" rx="5" height="22" width="0.11429606662377159" fill="hsl(0, 100%, 80%)" stroke="hsl(0, 100%, 55%)" />
<g stroke="hsl(0, 100%, 40%)"><line x1="0.10860583060438107" x2="0.11998630264316211" y1="39" y2="39" />
<line x1="0.10860583060438107" x2="0.10860583060438107" y1="33" y2="45" />
<line x1="0.11998630264316211" x2="0.11998630264316211" y1="33" y2="45" />
</g>
</g>
<text fill="hsl(22, 100%, 40%)" y="77">findLargestPaths All.flat.1,000 - Sync 14.1 ms</text>
<g>
<title>14.1 ms ± 966 μs</title>
<rect y="83" rx="5" height="22" width="1.6492286110447447" fill="hsl(22, 100%, 80%)" stroke="hsl(22, 100%, 55%)" />
<g stroke="hsl(22, 100%, 40%)"><line x1="1.5364258135672393" x2="1.7620314085222502" y1="94" y2="94" />
<line x1="1.5364258135672393" x2="1.5364258135672393" y1="88" y2="100" />
<line x1="1.7620314085222502" x2="1.7620314085222502" y1="88" y2="100" />
</g>
</g>
<text fill="hsl(45, 100%, 40%)" y="132">findLargestPaths All.flat.10,000 - Sync 279  ms</text>
<g>
<title>279  ms ± 6.4 ms</title>
<rect y="138" rx="5" height="22" width="32.562566977240074" fill="hsl(45, 100%, 80%)" stroke="hsl(45, 100%, 55%)" />
<g stroke="hsl(45, 100%, 40%)"><line x1="31.810781564264854" x2="33.3143523902153" y1="149" y2="149" />
<line x1="31.810781564264854" x2="31.810781564264854" y1="143" y2="155" />
<line x1="33.3143523902153" x2="33.3143523902153" y1="143" y2="155" />
</g>
</g>
<text fill="hsl(67, 100%, 40%)" y="187">findLargestPaths All.sparse.d=6 - Sync 156  ms</text>
<g>
<title>156  ms ± 5.0 ms</title>
<rect y="193" rx="5" height="22" width="18.158111830527375" fill="hsl(67, 100%, 80%)" stroke="hsl(67, 100%, 55%)" />
<g stroke="hsl(67, 100%, 40%)"><line x1="17.572524193039488" x2="18.74369946801526" y1="204" y2="204" />
<line x1="17.572524193039488" x2="17.572524193039488" y1="198" y2="210" />
<line x1="18.74369946801526" x2="18.74369946801526" y1="198" y2="210" />
</g>
</g>
<text fill="hsl(90, 100%, 40%)" y="242">findLargestPaths All.sparse.d=8 - Sync 692  ms</text>
<g>
<title>692  ms ±  63 ms</title>
<rect y="248" rx="5" height="22" width="80.77947535421494" fill="hsl(90, 100%, 80%)" stroke="hsl(90, 100%, 55%)" />
<g stroke="hsl(90, 100%, 40%)"><line x1="73.43664375188868" x2="88.1223069565412" y1="259" y2="259" />
<line x1="73.43664375188868" x2="73.43664375188868" y1="253" y2="265" />
<line x1="88.1223069565412" x2="88.1223069565412" y1="253" y2="265" />
</g>
</g>
<text fill="hsl(112, 100%, 40%)" y="297">findLargestPaths All.sparse.d=10 - Sync 2.975 s</text>
<g>
<title>2.975 s ± 127 ms</title>
<rect y="303" rx="5" height="22" width="347.32763597643446" fill="hsl(112, 100%, 80%)" stroke="hsl(112, 100%, 55%)" />
<g stroke="hsl(112, 100%, 40%)"><line x1="332.4803910207592" x2="362.1748809321097" y1="314" y2="314" />
<line x1="332.4803910207592" x2="332.4803910207592" y1="308" y2="320" />
<line x1="362.1748809321097" x2="362.1748809321097" y1="308" y2="320" />
</g>
</g>
<text fill="hsl(135, 100%, 40%)" y="352">findLargestPaths All.dense.d=6 - Sync 295  ms</text>
<g>
<title>295  ms ±  17 ms</title>
<rect y="358" rx="5" height="22" width="34.39257441276616" fill="hsl(135, 100%, 80%)" stroke="hsl(135, 100%, 55%)" />
<g stroke="hsl(135, 100%, 40%)"><line x1="32.40678174375014" x2="36.37836708178218" y1="369" y2="369" />
<line x1="32.40678174375014" x2="32.40678174375014" y1="363" y2="375" />
<line x1="36.37836708178218" x2="36.37836708178218" y1="363" y2="375" />
</g>
</g>
<text fill="hsl(157, 100%, 40%)" y="407">findLargestPaths All.dense.d=8 - Sync 1.326 s</text>
<g>
<title>1.326 s ±  73 ms</title>
<rect y="413" rx="5" height="22" width="154.8407615989486" fill="hsl(157, 100%, 80%)" stroke="hsl(157, 100%, 55%)" />
<g stroke="hsl(157, 100%, 40%)"><line x1="146.36469593755075" x2="163.31682726034646" y1="424" y2="424" />
<line x1="146.36469593755075" x2="146.36469593755075" y1="418" y2="430" />
<line x1="163.31682726034646" x2="163.31682726034646" y1="418" y2="430" />
</g>
</g>
<g fill="hsl(180, 100%, 40%)">
<text y="462">findLargestPaths All.dense.d=10 - Sync</text>
<text y="462" x="699.0782003885083" text-anchor="end">5.987 s</text>
</g>
<g>
<title>5.987 s ± 539 ms</title>
<rect y="468" rx="5" height="22" width="699.0782003885083" fill="hsl(180, 100%, 80%)" stroke="hsl(180, 100%, 55%)" />
<g stroke="hsl(180, 100%, 40%)"><line x1="636.1562907260093" x2="762.0001100510074" y1="479" y2="479" />
<line x1="636.1562907260093" x2="636.1562907260093" y1="473" y2="485" />
<line x1="762.0001100510074" x2="762.0001100510074" y1="473" y2="485" />
</g>
</g>
<g fill="hsl(202, 100%, 40%)">
<text y="517">takeLargestN.1</text>
<text y="517" x="648.2308058145835" text-anchor="end">5.552 s</text>
</g>
<g>
<title>5.552 s ± 110 ms</title>
<rect y="523" rx="5" height="22" width="648.2308058145835" fill="hsl(202, 100%, 80%)" stroke="hsl(202, 100%, 55%)" />
<g stroke="hsl(202, 100%, 40%)"><line x1="635.4080062074643" x2="661.0536054217027" y1="534" y2="534" />
<line x1="635.4080062074643" x2="635.4080062074643" y1="528" y2="540" />
<line x1="661.0536054217027" x2="661.0536054217027" y1="528" y2="540" />
</g>
</g>
<g fill="hsl(225, 100%, 40%)">
<text y="572">takeLargestN.10</text>
<text y="572" x="650.684463239454" text-anchor="end">5.573 s</text>
</g>
<g>
<title>5.573 s ± 250 ms</title>
<rect y="578" rx="5" height="22" width="650.684463239454" fill="hsl(225, 100%, 80%)" stroke="hsl(225, 100%, 55%)" />
<g stroke="hsl(225, 100%, 40%)"><line x1="621.4575808053571" x2="679.9113456735508" y1="589" y2="589" />
<line x1="621.4575808053571" x2="621.4575808053571" y1="583" y2="595" />
<line x1="679.9113456735508" x2="679.9113456735508" y1="583" y2="595" />
</g>
</g>
<g fill="hsl(247, 100%, 40%)">
<text y="627">takeLargestN.100</text>
<text y="627" x="644.4218086981239" text-anchor="end">5.519 s</text>
</g>
<g>
<title>5.519 s ± 157 ms</title>
<rect y="633" rx="5" height="22" width="644.4218086981239" fill="hsl(247, 100%, 80%)" stroke="hsl(247, 100%, 55%)" />
<g stroke="hsl(247, 100%, 40%)"><line x1="626.0397906262849" x2="662.8038267699628" y1="644" y2="644" />
<line x1="626.0397906262849" x2="626.0397906262849" y1="638" y2="650" />
<line x1="662.8038267699628" x2="662.8038267699628" y1="638" y2="650" />
</g>
</g>
<g fill="hsl(270, 100%, 40%)">
<text y="682">takeLargestN.1,000</text>
<text y="682" x="654.4230973473885" text-anchor="end">5.605 s</text>
</g>
<g>
<title>5.605 s ± 264 ms</title>
<rect y="688" rx="5" height="22" width="654.4230973473885" fill="hsl(270, 100%, 80%)" stroke="hsl(270, 100%, 55%)" />
<g stroke="hsl(270, 100%, 40%)"><line x1="623.6198633721225" x2="685.2263313226546" y1="699" y2="699" />
<line x1="623.6198633721225" x2="623.6198633721225" y1="693" y2="705" />
<line x1="685.2263313226546" x2="685.2263313226546" y1="693" y2="705" />
</g>
</g>
<text fill="hsl(292, 100%, 40%)" y="737">displayPathSize.d=6 376  ms</text>
<g>
<title>376  ms ±  26 ms</title>
<rect y="743" rx="5" height="22" width="43.935046902902535" fill="hsl(292, 100%, 80%)" stroke="hsl(292, 100%, 55%)" />
<g stroke="hsl(292, 100%, 40%)"><line x1="40.857526539412916" x2="47.01256726639215" y1="754" y2="754" />
<line x1="40.857526539412916" x2="40.857526539412916" y1="748" y2="760" />
<line x1="47.01256726639215" x2="47.01256726639215" y1="748" y2="760" />
</g>
</g>
<text fill="hsl(315, 100%, 40%)" y="792">displayPathSize.d=8 1.733 s</text>
<g>
<title>1.733 s ±  28 ms</title>
<rect y="798" rx="5" height="22" width="202.35751822531913" fill="hsl(315, 100%, 80%)" stroke="hsl(315, 100%, 55%)" />
<g stroke="hsl(315, 100%, 40%)"><line x1="199.0917329821047" x2="205.62330346853355" y1="809" y2="809" />
<line x1="199.0917329821047" x2="199.0917329821047" y1="803" y2="815" />
<line x1="205.62330346853355" x2="205.62330346853355" y1="803" y2="815" />
</g>
</g>
<g fill="hsl(337, 100%, 40%)">
<text y="847">displayPathSize.d=10</text>
<text y="847" x="901.4741776224032" text-anchor="end">7.721 s</text>
</g>
<g>
<title>7.721 s ± 330 ms</title>
<rect y="853" rx="5" height="22" width="901.4741776224032" fill="hsl(337, 100%, 80%)" stroke="hsl(337, 100%, 55%)" />
<g stroke="hsl(337, 100%, 40%)"><line x1="862.9483552448064" x2="940.0" y1="864" y2="864" />
<line x1="862.9483552448064" x2="862.9483552448064" y1="858" y2="870" />
<line x1="940.0" x2="940.0" y1="858" y2="870" />
</g>
</g>
</g>
</svg>
