<svg xmlns="http://www.w3.org/2000/svg" height="172" width="960.0" font-size="16" font-family="sans-serif" stroke-width="2">
<g transform="translate(10.0 0)">
<g fill="hsl(0, 100%, 40%)">
<text y="22">findLargestPaths.Sync</text>
<text y="22" x="530.7286296397763" text-anchor="end">1.949 s</text>
</g>
<g>
<title>1.949 s ± 129 ms</title>
<rect y="28" rx="5" height="22" width="530.7286296397763" fill="hsl(0, 100%, 80%)" stroke="hsl(0, 100%, 55%)" />
<g stroke="hsl(0, 100%, 40%)"><line x1="495.6215870963445" x2="565.8356721832081" y1="39" y2="39" />
<line x1="495.6215870963445" x2="495.6215870963445" y1="33" y2="45" />
<line x1="565.8356721832081" x2="565.8356721832081" y1="33" y2="45" />
</g>
</g>
<g fill="hsl(120, 100%, 40%)">
<text y="77">takeLargest10.Sync</text>
<text y="77" x="532.3139738634193" text-anchor="end">1.955 s</text>
</g>
<g>
<title>1.955 s ±  92 ms</title>
<rect y="83" rx="5" height="22" width="532.3139738634193" fill="hsl(120, 100%, 80%)" stroke="hsl(120, 100%, 55%)" />
<g stroke="hsl(120, 100%, 40%)"><line x1="507.3633546994601" x2="557.2645930273785" y1="94" y2="94" />
<line x1="507.3633546994601" x2="507.3633546994601" y1="88" y2="100" />
<line x1="557.2645930273785" x2="557.2645930273785" y1="88" y2="100" />
</g>
</g>
<g fill="hsl(240, 100%, 40%)">
<text y="132">displayPathSize.Sync</text>
<text y="132" x="925.2194855311569" text-anchor="end">3.398 s</text>
</g>
<g>
<title>3.398 s ±  54 ms</title>
<rect y="138" rx="5" height="22" width="925.2194855311569" fill="hsl(240, 100%, 80%)" stroke="hsl(240, 100%, 55%)" />
<g stroke="hsl(240, 100%, 40%)"><line x1="910.4389710623138" x2="940.0" y1="149" y2="149" />
<line x1="910.4389710623138" x2="910.4389710623138" y1="143" y2="155" />
<line x1="940.0" x2="940.0" y1="143" y2="155" />
</g>
</g>
</g>
</svg>
