<svg xmlns="http://www.w3.org/2000/svg" height="172" width="960.0" font-size="16" font-family="sans-serif" stroke-width="2">
<g transform="translate(10.0 0)">
<g fill="hsl(0, 100%, 40%)">
<text y="22">findLargestPaths.Sync</text>
<text y="22" x="675.7444007511108" text-anchor="end">13.273 s</text>
</g>
<g>
<title>13.273 s ± 844 ms</title>
<rect y="28" rx="5" height="22" width="675.7444007511108" fill="hsl(0, 100%, 80%)" stroke="hsl(0, 100%, 55%)" />
<g stroke="hsl(0, 100%, 40%)"><line x1="632.7904078717955" x2="718.698393630426" y1="39" y2="39" />
<line x1="632.7904078717955" x2="632.7904078717955" y1="33" y2="45" />
<line x1="718.698393630426" x2="718.698393630426" y1="33" y2="45" />
</g>
</g>
<g fill="hsl(120, 100%, 40%)">
<text y="77">takeLargest10.Sync</text>
<text y="77" x="654.9398393639005" text-anchor="end">12.864 s</text>
</g>
<g>
<title>12.864 s ± 176 ms</title>
<rect y="83" rx="5" height="22" width="654.9398393639005" fill="hsl(120, 100%, 80%)" stroke="hsl(120, 100%, 55%)" />
<g stroke="hsl(120, 100%, 40%)"><line x1="646.000933137483" x2="663.8787455903181" y1="94" y2="94" />
<line x1="646.000933137483" x2="646.000933137483" y1="88" y2="100" />
<line x1="663.8787455903181" x2="663.8787455903181" y1="88" y2="100" />
</g>
</g>
<g fill="hsl(240, 100%, 40%)">
<text y="132">displayPathSize.Sync</text>
<text y="132" x="891.7786875858034" text-anchor="end">17.516 s</text>
</g>
<g>
<title>17.516 s ± 947 ms</title>
<rect y="138" rx="5" height="22" width="891.7786875858034" fill="hsl(240, 100%, 80%)" stroke="hsl(240, 100%, 55%)" />
<g stroke="hsl(240, 100%, 40%)"><line x1="843.5573751716067" x2="940.0" y1="149" y2="149" />
<line x1="843.5573751716067" x2="843.5573751716067" y1="143" y2="155" />
<line x1="940.0" x2="940.0" y1="143" y2="155" />
</g>
</g>
</g>
</svg>
