<svg xmlns="http://www.w3.org/2000/svg" height="887" width="960.0" font-size="16" font-family="sans-serif" stroke-width="2">
<g transform="translate(10.0 0)">
<text fill="hsl(0, 100%, 40%)" y="22">findLargestPaths All.flat.100 - Sync 739  μs</text>
<g>
<title>739  μs ±  72 μs</title>
<rect y="28" rx="5" height="22" width="0.08348202941620121" fill="hsl(0, 100%, 80%)" stroke="hsl(0, 100%, 55%)" />
<g stroke="hsl(0, 100%, 40%)"><line x1="0.07534352470166882" x2="0.09162053413073361" y1="39" y2="39" />
<line x1="0.07534352470166882" x2="0.07534352470166882" y1="33" y2="45" />
<line x1="0.09162053413073361" x2="0.09162053413073361" y1="33" y2="45" />
</g>
</g>
<text fill="hsl(22, 100%, 40%)" y="77">findLargestPaths All.flat.1,000 - Sync 14.4 ms</text>
<g>
<title>14.4 ms ± 938 μs</title>
<rect y="83" rx="5" height="22" width="1.6250159877806603" fill="hsl(22, 100%, 80%)" stroke="hsl(22, 100%, 55%)" />
<g stroke="hsl(22, 100%, 40%)"><line x1="1.5191440313178102" x2="1.7308879442435103" y1="94" y2="94" />
<line x1="1.5191440313178102" x2="1.5191440313178102" y1="88" y2="100" />
<line x1="1.7308879442435103" x2="1.7308879442435103" y1="88" y2="100" />
</g>
</g>
<text fill="hsl(45, 100%, 40%)" y="132">findLargestPaths All.flat.10,000 - Sync 309  ms</text>
<g>
<title>309  ms ±  17 ms</title>
<rect y="138" rx="5" height="22" width="34.88300971284741" fill="hsl(45, 100%, 80%)" stroke="hsl(45, 100%, 55%)" />
<g stroke="hsl(45, 100%, 40%)"><line x1="33.01685452057668" x2="36.74916490511814" y1="149" y2="149" />
<line x1="33.01685452057668" x2="33.01685452057668" y1="143" y2="155" />
<line x1="36.74916490511814" x2="36.74916490511814" y1="143" y2="155" />
</g>
</g>
<text fill="hsl(67, 100%, 40%)" y="187">findLargestPaths All.sparse.d=6 - Sync 126  ms</text>
<g>
<title>126  ms ± 7.5 ms</title>
<rect y="193" rx="5" height="22" width="14.22650607827414" fill="hsl(67, 100%, 80%)" stroke="hsl(67, 100%, 55%)" />
<g stroke="hsl(67, 100%, 40%)"><line x1="13.378930159874317" x2="15.074081996673963" y1="204" y2="204" />
<line x1="13.378930159874317" x2="13.378930159874317" y1="198" y2="210" />
<line x1="15.074081996673963" x2="15.074081996673963" y1="198" y2="210" />
</g>
</g>
<text fill="hsl(90, 100%, 40%)" y="242">findLargestPaths All.sparse.d=8 - Sync 832  ms</text>
<g>
<title>832  ms ±  39 ms</title>
<rect y="248" rx="5" height="22" width="93.92642659663912" fill="hsl(90, 100%, 80%)" stroke="hsl(90, 100%, 55%)" />
<g stroke="hsl(90, 100%, 40%)"><line x1="89.51134104030417" x2="98.34151215297406" y1="259" y2="259" />
<line x1="89.51134104030417" x2="89.51134104030417" y1="253" y2="265" />
<line x1="98.34151215297406" x2="98.34151215297406" y1="253" y2="265" />
</g>
</g>
<g fill="hsl(112, 100%, 40%)">
<text y="297">findLargestPaths All.sparse.d=10 - Sync</text>
<text y="297" x="390.99098755131104" text-anchor="end">3.463 s</text>
</g>
<g>
<title>3.463 s ±  40 ms</title>
<rect y="303" rx="5" height="22" width="390.99098755131104" fill="hsl(112, 100%, 80%)" stroke="hsl(112, 100%, 55%)" />
<g stroke="hsl(112, 100%, 40%)"><line x1="386.4640880071635" x2="395.51788709545855" y1="314" y2="314" />
<line x1="386.4640880071635" x2="386.4640880071635" y1="308" y2="320" />
<line x1="395.51788709545855" x2="395.51788709545855" y1="308" y2="320" />
</g>
</g>
<text fill="hsl(135, 100%, 40%)" y="352">findLargestPaths All.dense.d=6 - Sync 365  ms</text>
<g>
<title>365  ms ± 2.1 ms</title>
<rect y="358" rx="5" height="22" width="41.239448859993836" fill="hsl(135, 100%, 80%)" stroke="hsl(135, 100%, 55%)" />
<g stroke="hsl(135, 100%, 40%)"><line x1="41.00219014203261" x2="41.47670757795506" y1="369" y2="369" />
<line x1="41.00219014203261" x2="41.00219014203261" y1="363" y2="375" />
<line x1="41.47670757795506" x2="41.47670757795506" y1="363" y2="375" />
</g>
</g>
<text fill="hsl(157, 100%, 40%)" y="407">findLargestPaths All.dense.d=8 - Sync 1.479 s</text>
<g>
<title>1.479 s ±  27 ms</title>
<rect y="413" rx="5" height="22" width="167.02323690691063" fill="hsl(157, 100%, 80%)" stroke="hsl(157, 100%, 55%)" />
<g stroke="hsl(157, 100%, 40%)"><line x1="163.95092770877653" x2="170.09554610504472" y1="424" y2="424" />
<line x1="163.95092770877653" x2="163.95092770877653" y1="418" y2="430" />
<line x1="170.09554610504472" x2="170.09554610504472" y1="418" y2="430" />
</g>
</g>
<g fill="hsl(180, 100%, 40%)">
<text y="462">findLargestPaths All.dense.d=10 - Sync</text>
<text y="462" x="682.9189940404982" text-anchor="end">6.049 s</text>
</g>
<g>
<title>6.049 s ± 444 ms</title>
<rect y="468" rx="5" height="22" width="682.9189940404982" fill="hsl(180, 100%, 80%)" stroke="hsl(180, 100%, 55%)" />
<g stroke="hsl(180, 100%, 40%)"><line x1="632.7886373190917" x2="733.0493507619047" y1="479" y2="479" />
<line x1="632.7886373190917" x2="632.7886373190917" y1="473" y2="485" />
<line x1="733.0493507619047" x2="733.0493507619047" y1="473" y2="485" />
</g>
</g>
<g fill="hsl(202, 100%, 40%)">
<text y="517">takeLargestN.1</text>
<text y="517" x="650.1718461549617" text-anchor="end">5.758 s</text>
</g>
<g>
<title>5.758 s ±  64 ms</title>
<rect y="523" rx="5" height="22" width="650.1718461549617" fill="hsl(202, 100%, 80%)" stroke="hsl(202, 100%, 55%)" />
<g stroke="hsl(202, 100%, 40%)"><line x1="642.9417369602884" x2="657.401955349635" y1="534" y2="534" />
<line x1="642.9417369602884" x2="642.9417369602884" y1="528" y2="540" />
<line x1="657.401955349635" x2="657.401955349635" y1="528" y2="540" />
</g>
</g>
<g fill="hsl(225, 100%, 40%)">
<text y="572">takeLargestN.10</text>
<text y="572" x="646.9108661154273" text-anchor="end">5.730 s</text>
</g>
<g>
<title>5.730 s ± 120 ms</title>
<rect y="578" rx="5" height="22" width="646.9108661154273" fill="hsl(225, 100%, 80%)" stroke="hsl(225, 100%, 55%)" />
<g stroke="hsl(225, 100%, 40%)"><line x1="633.3509052716606" x2="660.470826959194" y1="589" y2="589" />
<line x1="633.3509052716606" x2="633.3509052716606" y1="583" y2="595" />
<line x1="660.470826959194" x2="660.470826959194" y1="583" y2="595" />
</g>
</g>
<g fill="hsl(247, 100%, 40%)">
<text y="627">takeLargestN.100</text>
<text y="627" x="655.0965718897769" text-anchor="end">5.802 s</text>
</g>
<g>
<title>5.802 s ±  86 ms</title>
<rect y="633" rx="5" height="22" width="655.0965718897769" fill="hsl(247, 100%, 80%)" stroke="hsl(247, 100%, 55%)" />
<g stroke="hsl(247, 100%, 40%)"><line x1="645.4320446352393" x2="664.7610991443145" y1="644" y2="644" />
<line x1="645.4320446352393" x2="645.4320446352393" y1="638" y2="650" />
<line x1="664.7610991443145" x2="664.7610991443145" y1="638" y2="650" />
</g>
</g>
<g fill="hsl(270, 100%, 40%)">
<text y="682">takeLargestN.1,000</text>
<text y="682" x="642.4844147172046" text-anchor="end">5.690 s</text>
</g>
<g>
<title>5.690 s ± 116 ms</title>
<rect y="688" rx="5" height="22" width="642.4844147172046" fill="hsl(270, 100%, 80%)" stroke="hsl(270, 100%, 55%)" />
<g stroke="hsl(270, 100%, 40%)"><line x1="629.4068229821474" x2="655.5620064522617" y1="699" y2="699" />
<line x1="629.4068229821474" x2="629.4068229821474" y1="693" y2="705" />
<line x1="655.5620064522617" x2="655.5620064522617" y1="693" y2="705" />
</g>
</g>
<text fill="hsl(292, 100%, 40%)" y="737">displayPathSize.d=6 423  ms</text>
<g>
<title>423  ms ±  18 ms</title>
<rect y="743" rx="5" height="22" width="47.70429351123159" fill="hsl(292, 100%, 80%)" stroke="hsl(292, 100%, 55%)" />
<g stroke="hsl(292, 100%, 40%)"><line x1="45.7249039519956" x2="49.68368307046758" y1="754" y2="754" />
<line x1="45.7249039519956" x2="45.7249039519956" y1="748" y2="760" />
<line x1="49.68368307046758" x2="49.68368307046758" y1="748" y2="760" />
</g>
</g>
<text fill="hsl(315, 100%, 40%)" y="792">displayPathSize.d=8 1.837 s</text>
<g>
<title>1.837 s ±  40 ms</title>
<rect y="798" rx="5" height="22" width="207.45845026886505" fill="hsl(315, 100%, 80%)" stroke="hsl(315, 100%, 55%)" />
<g stroke="hsl(315, 100%, 40%)"><line x1="202.9748475486537" x2="211.9420529890764" y1="809" y2="809" />
<line x1="202.9748475486537" x2="202.9748475486537" y1="803" y2="815" />
<line x1="211.9420529890764" x2="211.9420529890764" y1="803" y2="815" />
</g>
</g>
<g fill="hsl(337, 100%, 40%)">
<text y="847">displayPathSize.d=10</text>
<text y="847" x="907.6389853940909" text-anchor="end">8.039 s</text>
</g>
<g>
<title>8.039 s ± 287 ms</title>
<rect y="853" rx="5" height="22" width="907.6389853940909" fill="hsl(337, 100%, 80%)" stroke="hsl(337, 100%, 55%)" />
<g stroke="hsl(337, 100%, 40%)"><line x1="875.2779707881818" x2="940.0" y1="864" y2="864" />
<line x1="875.2779707881818" x2="875.2779707881818" y1="858" y2="870" />
<line x1="940.0" x2="940.0" y1="858" y2="870" />
</g>
</g>
</g>
</svg>
