<svg xmlns="http://www.w3.org/2000/svg" height="172" width="960.0" font-size="16" font-family="sans-serif" stroke-width="2">
<g transform="translate(10.0 0)">
<g fill="hsl(0, 100%, 40%)">
<text y="22">findLargestPaths.Sync</text>
<text y="22" x="449.6512927172817" text-anchor="end">4.001 s</text>
</g>
<g>
<title>4.001 s ±  15 ms</title>
<rect y="28" rx="5" height="22" width="449.6512927172817" fill="hsl(0, 100%, 80%)" stroke="hsl(0, 100%, 55%)" />
<g stroke="hsl(0, 100%, 40%)"><line x1="447.97891811494867" x2="451.32366731961474" y1="39" y2="39" />
<line x1="447.97891811494867" x2="447.97891811494867" y1="33" y2="45" />
<line x1="451.32366731961474" x2="451.32366731961474" y1="33" y2="45" />
</g>
</g>
<g fill="hsl(120, 100%, 40%)">
<text y="77">takeLargest10.Sync</text>
<text y="77" x="443.9602538919279" text-anchor="end">3.951 s</text>
</g>
<g>
<title>3.951 s ± 370 ms</title>
<rect y="83" rx="5" height="22" width="443.9602538919279" fill="hsl(120, 100%, 80%)" stroke="hsl(120, 100%, 55%)" />
<g stroke="hsl(120, 100%, 40%)"><line x1="402.38484146254666" x2="485.5356663213091" y1="94" y2="94" />
<line x1="402.38484146254666" x2="402.38484146254666" y1="88" y2="100" />
<line x1="485.5356663213091" x2="485.5356663213091" y1="88" y2="100" />
</g>
</g>
<g fill="hsl(240, 100%, 40%)">
<text y="132">displayPathSize.Sync</text>
<text y="132" x="902.3281434885677" text-anchor="end">8.030 s</text>
</g>
<g>
<title>8.030 s ± 335 ms</title>
<rect y="138" rx="5" height="22" width="902.3281434885677" fill="hsl(240, 100%, 80%)" stroke="hsl(240, 100%, 55%)" />
<g stroke="hsl(240, 100%, 40%)"><line x1="864.6562869771353" x2="940.0" y1="149" y2="149" />
<line x1="864.6562869771353" x2="864.6562869771353" y1="143" y2="155" />
<line x1="940.0" x2="940.0" y1="143" y2="155" />
</g>
</g>
</g>
</svg>
