<svg xmlns="http://www.w3.org/2000/svg" height="172" width="960.0" font-size="16" font-family="sans-serif" stroke-width="2">
<g transform="translate(10.0 0)">
<g fill="hsl(0, 100%, 40%)">
<text y="22">findLargestPaths.Sync</text>
<text y="22" x="590.6174181577042" text-anchor="end">4.294 s</text>
</g>
<g>
<title>4.294 s ± 194 ms</title>
<rect y="28" rx="5" height="22" width="590.6174181577042" fill="hsl(0, 100%, 80%)" stroke="hsl(0, 100%, 55%)" />
<g stroke="hsl(0, 100%, 40%)"><line x1="563.8712216772384" x2="617.3636146381699" y1="39" y2="39" />
<line x1="563.8712216772384" x2="563.8712216772384" y1="33" y2="45" />
<line x1="617.3636146381699" x2="617.3636146381699" y1="33" y2="45" />
</g>
</g>
<g fill="hsl(120, 100%, 40%)">
<text y="77">takeLargest10.Sync</text>
<text y="77" x="579.7067056984673" text-anchor="end">4.215 s</text>
</g>
<g>
<title>4.215 s ± 115 ms</title>
<rect y="83" rx="5" height="22" width="579.7067056984673" fill="hsl(120, 100%, 80%)" stroke="hsl(120, 100%, 55%)" />
<g stroke="hsl(120, 100%, 40%)"><line x1="563.916669242282" x2="595.4967421546527" y1="94" y2="94" />
<line x1="563.916669242282" x2="563.916669242282" y1="88" y2="100" />
<line x1="595.4967421546527" x2="595.4967421546527" y1="88" y2="100" />
</g>
</g>
<g fill="hsl(240, 100%, 40%)">
<text y="132">displayPathSize.Sync</text>
<text y="132" x="938.8487911773791" text-anchor="end">6.826 s</text>
</g>
<g>
<title>6.826 s ± 8.4 ms</title>
<rect y="138" rx="5" height="22" width="938.8487911773791" fill="hsl(240, 100%, 80%)" stroke="hsl(240, 100%, 55%)" />
<g stroke="hsl(240, 100%, 40%)"><line x1="937.6975823547582" x2="940.0" y1="149" y2="149" />
<line x1="937.6975823547582" x2="937.6975823547582" y1="143" y2="155" />
<line x1="940.0" x2="940.0" y1="143" y2="155" />
</g>
</g>
</g>
</svg>
