<svg xmlns="http://www.w3.org/2000/svg" height="887" width="960.0" font-size="16" font-family="sans-serif" stroke-width="2">
<g transform="translate(10.0 0)">
<text fill="hsl(0, 100%, 40%)" y="22">findLargestPaths All.flat.100 - Sync 560  μs</text>
<g>
<title>560  μs ±  16 μs</title>
<rect y="28" rx="5" height="22" width="0.09811156515895257" fill="hsl(0, 100%, 80%)" stroke="hsl(0, 100%, 55%)" />
<g stroke="hsl(0, 100%, 40%)"><line x1="0.09535334963986163" x2="0.10086978067804352" y1="39" y2="39" />
<line x1="0.09535334963986163" x2="0.09535334963986163" y1="33" y2="45" />
<line x1="0.10086978067804352" x2="0.10086978067804352" y1="33" y2="45" />
</g>
</g>
<text fill="hsl(22, 100%, 40%)" y="77">findLargestPaths All.flat.1_000 - Sync 10.0 ms</text>
<g>
<title>10.0 ms ± 854 μs</title>
<rect y="83" rx="5" height="22" width="1.7505240278133631" fill="hsl(22, 100%, 80%)" stroke="hsl(22, 100%, 55%)" />
<g stroke="hsl(22, 100%, 40%)"><line x1="1.600887671104761" x2="1.9001603845219652" y1="94" y2="94" />
<line x1="1.600887671104761" x2="1.600887671104761" y1="88" y2="100" />
<line x1="1.9001603845219652" x2="1.9001603845219652" y1="88" y2="100" />
</g>
</g>
<text fill="hsl(45, 100%, 40%)" y="132">findLargestPaths All.flat.10_000 - Sync 164  ms</text>
<g>
<title>164  ms ± 1.7 ms</title>
<rect y="138" rx="5" height="22" width="28.764081050630796" fill="hsl(45, 100%, 80%)" stroke="hsl(45, 100%, 55%)" />
<g stroke="hsl(45, 100%, 40%)"><line x1="28.465226062854995" x2="29.062936038406598" y1="149" y2="149" />
<line x1="28.465226062854995" x2="28.465226062854995" y1="143" y2="155" />
<line x1="29.062936038406598" x2="29.062936038406598" y1="143" y2="155" />
</g>
</g>
<text fill="hsl(67, 100%, 40%)" y="187">findLargestPaths All.sparse.d=6 - Sync 111  ms</text>
<g>
<title>111  ms ± 4.1 ms</title>
<rect y="193" rx="5" height="22" width="19.452176211532823" fill="hsl(67, 100%, 80%)" stroke="hsl(67, 100%, 55%)" />
<g stroke="hsl(67, 100%, 40%)"><line x1="18.738097377840848" x2="20.166255045224798" y1="204" y2="204" />
<line x1="18.738097377840848" x2="18.738097377840848" y1="198" y2="210" />
<line x1="20.166255045224798" x2="20.166255045224798" y1="198" y2="210" />
</g>
</g>
<text fill="hsl(90, 100%, 40%)" y="242">findLargestPaths All.sparse.d=8 - Sync 491  ms</text>
<g>
<title>491  ms ± 4.4 ms</title>
<rect y="248" rx="5" height="22" width="86.01416540788196" fill="hsl(90, 100%, 80%)" stroke="hsl(90, 100%, 55%)" />
<g stroke="hsl(90, 100%, 40%)"><line x1="85.24340939981788" x2="86.78492141594604" y1="259" y2="259" />
<line x1="85.24340939981788" x2="85.24340939981788" y1="253" y2="265" />
<line x1="86.78492141594604" x2="86.78492141594604" y1="253" y2="265" />
</g>
</g>
<text fill="hsl(112, 100%, 40%)" y="297">findLargestPaths All.sparse.d=10 - Sync 2.085 s</text>
<g>
<title>2.085 s ± 187 ms</title>
<rect y="303" rx="5" height="22" width="365.3746007792025" fill="hsl(112, 100%, 80%)" stroke="hsl(112, 100%, 55%)" />
<g stroke="hsl(112, 100%, 40%)"><line x1="332.69245687958255" x2="398.0567446788225" y1="314" y2="314" />
<line x1="332.69245687958255" x2="332.69245687958255" y1="308" y2="320" />
<line x1="398.0567446788225" x2="398.0567446788225" y1="308" y2="320" />
</g>
</g>
<text fill="hsl(135, 100%, 40%)" y="352">findLargestPaths All.dense.d=6 - Sync 221  ms</text>
<g>
<title>221  ms ±  12 ms</title>
<rect y="358" rx="5" height="22" width="38.78930453274076" fill="hsl(135, 100%, 80%)" stroke="hsl(135, 100%, 55%)" />
<g stroke="hsl(135, 100%, 40%)"><line x1="36.60899875714413" x2="40.96961030833739" y1="369" y2="369" />
<line x1="36.60899875714413" x2="36.60899875714413" y1="363" y2="375" />
<line x1="40.96961030833739" x2="40.96961030833739" y1="363" y2="375" />
</g>
</g>
<text fill="hsl(157, 100%, 40%)" y="407">findLargestPaths All.dense.d=8 - Sync 943  ms</text>
<g>
<title>943  ms ±  29 ms</title>
<rect y="413" rx="5" height="22" width="165.18609294446412" fill="hsl(157, 100%, 80%)" stroke="hsl(157, 100%, 55%)" />
<g stroke="hsl(157, 100%, 40%)"><line x1="160.03762524852368" x2="170.33456064040456" y1="424" y2="424" />
<line x1="160.03762524852368" x2="160.03762524852368" y1="418" y2="430" />
<line x1="170.33456064040456" x2="170.33456064040456" y1="418" y2="430" />
</g>
</g>
<g fill="hsl(180, 100%, 40%)">
<text y="462">findLargestPaths All.dense.d=10 - Sync</text>
<text y="462" x="715.1997314371494" text-anchor="end">4.082 s</text>
</g>
<g>
<title>4.082 s ± 121 ms</title>
<rect y="468" rx="5" height="22" width="715.1997314371494" fill="hsl(180, 100%, 80%)" stroke="hsl(180, 100%, 55%)" />
<g stroke="hsl(180, 100%, 40%)"><line x1="694.0647599158895" x2="736.3347029584093" y1="479" y2="479" />
<line x1="694.0647599158895" x2="694.0647599158895" y1="473" y2="485" />
<line x1="736.3347029584093" x2="736.3347029584093" y1="473" y2="485" />
</g>
</g>
<g fill="hsl(202, 100%, 40%)">
<text y="517">takeLargestN.1</text>
<text y="517" x="712.2504545315314" text-anchor="end">4.065 s</text>
</g>
<g>
<title>4.065 s ± 176 ms</title>
<rect y="523" rx="5" height="22" width="712.2504545315314" fill="hsl(202, 100%, 80%)" stroke="hsl(202, 100%, 55%)" />
<g stroke="hsl(202, 100%, 40%)"><line x1="681.3481661718799" x2="743.1527428911829" y1="534" y2="534" />
<line x1="681.3481661718799" x2="681.3481661718799" y1="528" y2="540" />
<line x1="743.1527428911829" x2="743.1527428911829" y1="528" y2="540" />
</g>
</g>
<g fill="hsl(225, 100%, 40%)">
<text y="572">takeLargestN.10</text>
<text y="572" x="710.2076081816828" text-anchor="end">4.053 s</text>
</g>
<g>
<title>4.053 s ±  31 ms</title>
<rect y="578" rx="5" height="22" width="710.2076081816828" fill="hsl(225, 100%, 80%)" stroke="hsl(225, 100%, 55%)" />
<g stroke="hsl(225, 100%, 40%)"><line x1="704.760565392782" x2="715.6546509705835" y1="589" y2="589" />
<line x1="704.760565392782" x2="704.760565392782" y1="583" y2="595" />
<line x1="715.6546509705835" x2="715.6546509705835" y1="583" y2="595" />
</g>
</g>
<g fill="hsl(247, 100%, 40%)">
<text y="627">takeLargestN.100</text>
<text y="627" x="696.8442861095743" text-anchor="end">3.977 s</text>
</g>
<g>
<title>3.977 s ± 188 ms</title>
<rect y="633" rx="5" height="22" width="696.8442861095743" fill="hsl(247, 100%, 80%)" stroke="hsl(247, 100%, 55%)" />
<g stroke="hsl(247, 100%, 40%)"><line x1="663.9836509259285" x2="729.7049212932202" y1="644" y2="644" />
<line x1="663.9836509259285" x2="663.9836509259285" y1="638" y2="650" />
<line x1="729.7049212932202" x2="729.7049212932202" y1="638" y2="650" />
</g>
</g>
<g fill="hsl(270, 100%, 40%)">
<text y="682">takeLargestN.1_000</text>
<text y="682" x="701.0534050169615" text-anchor="end">4.001 s</text>
</g>
<g>
<title>4.001 s ± 109 ms</title>
<rect y="688" rx="5" height="22" width="701.0534050169615" fill="hsl(270, 100%, 80%)" stroke="hsl(270, 100%, 55%)" />
<g stroke="hsl(270, 100%, 40%)"><line x1="682.007964238786" x2="720.098845795137" y1="699" y2="699" />
<line x1="682.007964238786" x2="682.007964238786" y1="693" y2="705" />
<line x1="720.098845795137" x2="720.098845795137" y1="693" y2="705" />
</g>
</g>
<text fill="hsl(292, 100%, 40%)" y="737">displayPathSize.d=6 287  ms</text>
<g>
<title>287  ms ±  24 ms</title>
<rect y="743" rx="5" height="22" width="50.27843133295091" fill="hsl(292, 100%, 80%)" stroke="hsl(292, 100%, 55%)" />
<g stroke="hsl(292, 100%, 40%)"><line x1="46.03618057711145" x2="54.520682088790366" y1="754" y2="754" />
<line x1="46.03618057711145" x2="46.03618057711145" y1="748" y2="760" />
<line x1="54.520682088790366" x2="54.520682088790366" y1="748" y2="760" />
</g>
</g>
<g fill="hsl(315, 100%, 40%)">
<text y="792">displayPathSize.d=8</text>
<text y="792" x="217.921061552124" text-anchor="end">1.244 s</text>
</g>
<g>
<title>1.244 s ± 108 ms</title>
<rect y="798" rx="5" height="22" width="217.921061552124" fill="hsl(315, 100%, 80%)" stroke="hsl(315, 100%, 55%)" />
<g stroke="hsl(315, 100%, 40%)"><line x1="199.03508212222397" x2="236.80704098202403" y1="809" y2="809" />
<line x1="199.03508212222397" x2="199.03508212222397" y1="803" y2="815" />
<line x1="236.80704098202403" x2="236.80704098202403" y1="803" y2="815" />
</g>
</g>
<g fill="hsl(337, 100%, 40%)">
<text y="847">displayPathSize.d=10</text>
<text y="847" x="938.6090877518487" text-anchor="end">5.357 s</text>
</g>
<g>
<title>5.357 s ± 7.9 ms</title>
<rect y="853" rx="5" height="22" width="938.6090877518487" fill="hsl(337, 100%, 80%)" stroke="hsl(337, 100%, 55%)" />
<g stroke="hsl(337, 100%, 40%)"><line x1="937.2181755036975" x2="940.0" y1="864" y2="864" />
<line x1="937.2181755036975" x2="937.2181755036975" y1="858" y2="870" />
<line x1="940.0" x2="940.0" y1="858" y2="870" />
</g>
</g>
</g>
</svg>
