<svg xmlns="http://www.w3.org/2000/svg" height="172" width="960.0" font-size="16" font-family="sans-serif" stroke-width="2">
<g transform="translate(10.0 0)">
<g fill="hsl(0, 100%, 40%)">
<text y="22">findLargestPaths.Sync</text>
<text y="22" x="330.71608656142365" text-anchor="end">1.997 s</text>
</g>
<g>
<title>1.997 s ±  42 ms</title>
<rect y="28" rx="5" height="22" width="330.71608656142365" fill="hsl(0, 100%, 80%)" stroke="hsl(0, 100%, 55%)" />
<g stroke="hsl(0, 100%, 40%)"><line x1="323.7381818436703" x2="337.693991279177" y1="39" y2="39" />
<line x1="323.7381818436703" x2="323.7381818436703" y1="33" y2="45" />
<line x1="337.693991279177" x2="337.693991279177" y1="33" y2="45" />
</g>
</g>
<g fill="hsl(120, 100%, 40%)">
<text y="77">takeLargest10.Sync</text>
<text y="77" x="330.1018977524989" text-anchor="end">1.994 s</text>
</g>
<g>
<title>1.994 s ±  84 ms</title>
<rect y="83" rx="5" height="22" width="330.1018977524989" fill="hsl(120, 100%, 80%)" stroke="hsl(120, 100%, 55%)" />
<g stroke="hsl(120, 100%, 40%)"><line x1="316.18483981390136" x2="344.0189556910965" y1="94" y2="94" />
<line x1="316.18483981390136" x2="316.18483981390136" y1="88" y2="100" />
<line x1="344.0189556910965" x2="344.0189556910965" y1="88" y2="100" />
</g>
</g>
<g fill="hsl(240, 100%, 40%)">
<text y="132">displayPathSize.Sync</text>
<text y="132" x="927.1504801034464" text-anchor="end">5.599 s</text>
</g>
<g>
<title>5.599 s ±  78 ms</title>
<rect y="138" rx="5" height="22" width="927.1504801034464" fill="hsl(240, 100%, 80%)" stroke="hsl(240, 100%, 55%)" />
<g stroke="hsl(240, 100%, 40%)"><line x1="914.3009602068928" x2="940.0" y1="149" y2="149" />
<line x1="914.3009602068928" x2="914.3009602068928" y1="143" y2="155" />
<line x1="940.0" x2="940.0" y1="143" y2="155" />
</g>
</g>
</g>
</svg>
