<svg xmlns="http://www.w3.org/2000/svg" height="172" width="960.0" font-size="16" font-family="sans-serif" stroke-width="2">
<g transform="translate(10.0 0)">
<g fill="hsl(0, 100%, 40%)">
<text y="22">findLargestPaths.Sync</text>
<text y="22" x="679.0329373020343" text-anchor="end">11.676 s</text>
</g>
<g>
<title>11.676 s ± 289 ms</title>
<rect y="28" rx="5" height="22" width="679.0329373020343" fill="hsl(0, 100%, 80%)" stroke="hsl(0, 100%, 55%)" />
<g stroke="hsl(0, 100%, 40%)"><line x1="662.2106536339404" x2="695.8552209701281" y1="39" y2="39" />
<line x1="662.2106536339404" x2="662.2106536339404" y1="33" y2="45" />
<line x1="695.8552209701281" x2="695.8552209701281" y1="33" y2="45" />
</g>
</g>
<g fill="hsl(120, 100%, 40%)">
<text y="77">takeLargest10.Sync</text>
<text y="77" x="685.019015059407" text-anchor="end">11.779 s</text>
</g>
<g>
<title>11.779 s ± 845 ms</title>
<rect y="83" rx="5" height="22" width="685.019015059407" fill="hsl(120, 100%, 80%)" stroke="hsl(120, 100%, 55%)" />
<g stroke="hsl(120, 100%, 40%)"><line x1="635.9056430629906" x2="734.1323870558234" y1="94" y2="94" />
<line x1="635.9056430629906" x2="635.9056430629906" y1="88" y2="100" />
<line x1="734.1323870558234" x2="734.1323870558234" y1="88" y2="100" />
</g>
</g>
<g fill="hsl(240, 100%, 40%)">
<text y="132">displayPathSize.Sync</text>
<text y="132" x="871.6338647473242" text-anchor="end">14.988 s</text>
</g>
<g>
<title>14.988 s ± 1.18 s</title>
<rect y="138" rx="5" height="22" width="871.6338647473242" fill="hsl(240, 100%, 80%)" stroke="hsl(240, 100%, 55%)" />
<g stroke="hsl(240, 100%, 40%)"><line x1="803.2677294946484" x2="940.0" y1="149" y2="149" />
<line x1="803.2677294946484" x2="803.2677294946484" y1="143" y2="155" />
<line x1="940.0" x2="940.0" y1="143" y2="155" />
</g>
</g>
</g>
</svg>
