<svg xmlns="http://www.w3.org/2000/svg" height="172" width="960.0" font-size="16" font-family="sans-serif" stroke-width="2">
<g transform="translate(10.0 0)">
<g fill="hsl(0, 100%, 40%)">
<text y="22">findLargestPaths.Sync</text>
<text y="22" x="416.18333918789307" text-anchor="end">1.985 s</text>
</g>
<g>
<title>1.985 s ±  79 ms</title>
<rect y="28" rx="5" height="22" width="416.18333918789307" fill="hsl(0, 100%, 80%)" stroke="hsl(0, 100%, 55%)" />
<g stroke="hsl(0, 100%, 40%)"><line x1="399.63356508026334" x2="432.7331132955228" y1="39" y2="39" />
<line x1="399.63356508026334" x2="399.63356508026334" y1="33" y2="45" />
<line x1="432.7331132955228" x2="432.7331132955228" y1="33" y2="45" />
</g>
</g>
<g fill="hsl(120, 100%, 40%)">
<text y="77">takeLargest10.Sync</text>
<text y="77" x="391.6610072433635" text-anchor="end">1.868 s</text>
</g>
<g>
<title>1.868 s ±  68 ms</title>
<rect y="83" rx="5" height="22" width="391.6610072433635" fill="hsl(120, 100%, 80%)" stroke="hsl(120, 100%, 55%)" />
<g stroke="hsl(120, 100%, 40%)"><line x1="377.4181004140919" x2="405.9039140726351" y1="94" y2="94" />
<line x1="377.4181004140919" x2="377.4181004140919" y1="88" y2="100" />
<line x1="405.9039140726351" x2="405.9039140726351" y1="88" y2="100" />
</g>
</g>
<g fill="hsl(240, 100%, 40%)">
<text y="132">displayPathSize.Sync</text>
<text y="132" x="918.6506095410592" text-anchor="end">4.382 s</text>
</g>
<g>
<title>4.382 s ± 102 ms</title>
<rect y="138" rx="5" height="22" width="918.6506095410592" fill="hsl(240, 100%, 80%)" stroke="hsl(240, 100%, 55%)" />
<g stroke="hsl(240, 100%, 40%)"><line x1="897.3012190821185" x2="940.0" y1="149" y2="149" />
<line x1="897.3012190821185" x2="897.3012190821185" y1="143" y2="155" />
<line x1="940.0" x2="940.0" y1="143" y2="155" />
</g>
</g>
</g>
</svg>
