<svg xmlns="http://www.w3.org/2000/svg" height="887" width="960.0" font-size="16" font-family="sans-serif" stroke-width="2">
<g transform="translate(10.0 0)">
<text fill="hsl(0, 100%, 40%)" y="22">findLargestPaths All.flat.100 - Sync 895  μs</text>
<g>
<title>895  μs ±  88 μs</title>
<rect y="28" rx="5" height="22" width="0.12187317499680973" fill="hsl(0, 100%, 80%)" stroke="hsl(0, 100%, 55%)" />
<g stroke="hsl(0, 100%, 40%)"><line x1="0.10986905501090921" x2="0.13387729498271025" y1="39" y2="39" />
<line x1="0.10986905501090921" x2="0.10986905501090921" y1="33" y2="45" />
<line x1="0.13387729498271025" x2="0.13387729498271025" y1="33" y2="45" />
</g>
</g>
<text fill="hsl(22, 100%, 40%)" y="77">findLargestPaths All.flat.1,000 - Sync 13.0 ms</text>
<g>
<title>13.0 ms ± 606 μs</title>
<rect y="83" rx="5" height="22" width="1.7693950791715711" fill="hsl(22, 100%, 80%)" stroke="hsl(22, 100%, 55%)" />
<g stroke="hsl(22, 100%, 40%)"><line x1="1.686823416463136" x2="1.8519667418800063" y1="94" y2="94" />
<line x1="1.686823416463136" x2="1.686823416463136" y1="88" y2="100" />
<line x1="1.8519667418800063" x2="1.8519667418800063" y1="88" y2="100" />
</g>
</g>
<text fill="hsl(45, 100%, 40%)" y="132">findLargestPaths All.flat.10,000 - Sync 255  ms</text>
<g>
<title>255  ms ±  17 ms</title>
<rect y="138" rx="5" height="22" width="34.68044499805012" fill="hsl(45, 100%, 80%)" stroke="hsl(45, 100%, 55%)" />
<g stroke="hsl(45, 100%, 40%)"><line x1="32.36880378149872" x2="36.99208621460152" y1="149" y2="149" />
<line x1="32.36880378149872" x2="32.36880378149872" y1="143" y2="155" />
<line x1="36.99208621460152" x2="36.99208621460152" y1="143" y2="155" />
</g>
</g>
<text fill="hsl(67, 100%, 40%)" y="187">findLargestPaths All.sparse.d=6 - Sync 134  ms</text>
<g>
<title>134  ms ± 5.7 ms</title>
<rect y="193" rx="5" height="22" width="18.21899969615883" fill="hsl(67, 100%, 80%)" stroke="hsl(67, 100%, 55%)" />
<g stroke="hsl(67, 100%, 40%)"><line x1="17.443709278234188" x2="18.99429011408347" y1="204" y2="204" />
<line x1="17.443709278234188" x2="17.443709278234188" y1="198" y2="210" />
<line x1="18.99429011408347" x2="18.99429011408347" y1="198" y2="210" />
</g>
</g>
<text fill="hsl(90, 100%, 40%)" y="242">findLargestPaths All.sparse.d=8 - Sync 623  ms</text>
<g>
<title>623  ms ±  34 ms</title>
<rect y="248" rx="5" height="22" width="84.8674449556263" fill="hsl(90, 100%, 80%)" stroke="hsl(90, 100%, 55%)" />
<g stroke="hsl(90, 100%, 40%)"><line x1="80.26468251592036" x2="89.47020739533224" y1="259" y2="259" />
<line x1="80.26468251592036" x2="80.26468251592036" y1="253" y2="265" />
<line x1="89.47020739533224" x2="89.47020739533224" y1="253" y2="265" />
</g>
</g>
<text fill="hsl(112, 100%, 40%)" y="297">findLargestPaths All.sparse.d=10 - Sync 2.689 s</text>
<g>
<title>2.689 s ±  55 ms</title>
<rect y="303" rx="5" height="22" width="366.1489362882987" fill="hsl(112, 100%, 80%)" stroke="hsl(112, 100%, 55%)" />
<g stroke="hsl(112, 100%, 40%)"><line x1="358.7192250531461" x2="373.57864752345137" y1="314" y2="314" />
<line x1="358.7192250531461" x2="358.7192250531461" y1="308" y2="320" />
<line x1="373.57864752345137" x2="373.57864752345137" y1="308" y2="320" />
</g>
</g>
<text fill="hsl(135, 100%, 40%)" y="352">findLargestPaths All.dense.d=6 - Sync 267  ms</text>
<g>
<title>267  ms ±  26 ms</title>
<rect y="358" rx="5" height="22" width="36.41426628376107" fill="hsl(135, 100%, 80%)" stroke="hsl(135, 100%, 55%)" />
<g stroke="hsl(135, 100%, 40%)"><line x1="32.93984775476617" x2="39.888684812755976" y1="369" y2="369" />
<line x1="32.93984775476617" x2="32.93984775476617" y1="363" y2="375" />
<line x1="39.888684812755976" x2="39.888684812755976" y1="363" y2="375" />
</g>
</g>
<text fill="hsl(157, 100%, 40%)" y="407">findLargestPaths All.dense.d=8 - Sync 1.172 s</text>
<g>
<title>1.172 s ±  72 ms</title>
<rect y="413" rx="5" height="22" width="159.56527263717558" fill="hsl(157, 100%, 80%)" stroke="hsl(157, 100%, 55%)" />
<g stroke="hsl(157, 100%, 40%)"><line x1="149.7657639660196" x2="169.36478130833157" y1="424" y2="424" />
<line x1="149.7657639660196" x2="149.7657639660196" y1="418" y2="430" />
<line x1="169.36478130833157" x2="169.36478130833157" y1="418" y2="430" />
</g>
</g>
<g fill="hsl(180, 100%, 40%)">
<text y="462">findLargestPaths All.dense.d=10 - Sync</text>
<text y="462" x="721.8445799137564" text-anchor="end">5.302 s</text>
</g>
<g>
<title>5.302 s ± 488 ms</title>
<rect y="468" rx="5" height="22" width="721.8445799137564" fill="hsl(180, 100%, 80%)" stroke="hsl(180, 100%, 55%)" />
<g stroke="hsl(180, 100%, 40%)"><line x1="655.3452478103668" x2="788.3439120171461" y1="479" y2="479" />
<line x1="655.3452478103668" x2="655.3452478103668" y1="473" y2="485" />
<line x1="788.3439120171461" x2="788.3439120171461" y1="473" y2="485" />
</g>
</g>
<g fill="hsl(202, 100%, 40%)">
<text y="517">takeLargestN.1</text>
<text y="517" x="701.0301589992557" text-anchor="end">5.149 s</text>
</g>
<g>
<title>5.149 s ±  19 ms</title>
<rect y="523" rx="5" height="22" width="701.0301589992557" fill="hsl(202, 100%, 80%)" stroke="hsl(202, 100%, 55%)" />
<g stroke="hsl(202, 100%, 40%)"><line x1="698.4541630281403" x2="703.6061549703711" y1="534" y2="534" />
<line x1="698.4541630281403" x2="698.4541630281403" y1="528" y2="540" />
<line x1="703.6061549703711" x2="703.6061549703711" y1="528" y2="540" />
</g>
</g>
<g fill="hsl(225, 100%, 40%)">
<text y="572">takeLargestN.10</text>
<text y="572" x="699.6359113738819" text-anchor="end">5.139 s</text>
</g>
<g>
<title>5.139 s ±  70 ms</title>
<rect y="578" rx="5" height="22" width="699.6359113738819" fill="hsl(225, 100%, 80%)" stroke="hsl(225, 100%, 55%)" />
<g stroke="hsl(225, 100%, 40%)"><line x1="690.1314278456541" x2="709.1403949021096" y1="589" y2="589" />
<line x1="690.1314278456541" x2="690.1314278456541" y1="583" y2="595" />
<line x1="709.1403949021096" x2="709.1403949021096" y1="583" y2="595" />
</g>
</g>
<g fill="hsl(247, 100%, 40%)">
<text y="627">takeLargestN.100</text>
<text y="627" x="679.9322573970709" text-anchor="end">4.994 s</text>
</g>
<g>
<title>4.994 s ± 299 ms</title>
<rect y="633" rx="5" height="22" width="679.9322573970709" fill="hsl(247, 100%, 80%)" stroke="hsl(247, 100%, 55%)" />
<g stroke="hsl(247, 100%, 40%)"><line x1="639.2294312986014" x2="720.6350834955404" y1="644" y2="644" />
<line x1="639.2294312986014" x2="639.2294312986014" y1="638" y2="650" />
<line x1="720.6350834955404" x2="720.6350834955404" y1="638" y2="650" />
</g>
</g>
<g fill="hsl(270, 100%, 40%)">
<text y="682">takeLargestN.1,000</text>
<text y="682" x="683.1729479481859" text-anchor="end">5.018 s</text>
</g>
<g>
<title>5.018 s ± 2.6 ms</title>
<rect y="688" rx="5" height="22" width="683.1729479481859" fill="hsl(270, 100%, 80%)" stroke="hsl(270, 100%, 55%)" />
<g stroke="hsl(270, 100%, 40%)"><line x1="682.8240593445951" x2="683.5218365517767" y1="699" y2="699" />
<line x1="682.8240593445951" x2="682.8240593445951" y1="693" y2="705" />
<line x1="683.5218365517767" x2="683.5218365517767" y1="693" y2="705" />
</g>
</g>
<text fill="hsl(292, 100%, 40%)" y="737">displayPathSize.d=6 352  ms</text>
<g>
<title>352  ms ±  22 ms</title>
<rect y="743" rx="5" height="22" width="47.85838048825645" fill="hsl(292, 100%, 80%)" stroke="hsl(292, 100%, 55%)" />
<g stroke="hsl(292, 100%, 40%)"><line x1="44.828643008087134" x2="50.88811796842577" y1="754" y2="754" />
<line x1="44.828643008087134" x2="44.828643008087134" y1="748" y2="760" />
<line x1="50.88811796842577" x2="50.88811796842577" y1="748" y2="760" />
</g>
</g>
<text fill="hsl(315, 100%, 40%)" y="792">displayPathSize.d=8 1.551 s</text>
<g>
<title>1.551 s ±  47 ms</title>
<rect y="798" rx="5" height="22" width="211.2074861659599" fill="hsl(315, 100%, 80%)" stroke="hsl(315, 100%, 55%)" />
<g stroke="hsl(315, 100%, 40%)"><line x1="204.766832534595" x2="217.64813979732477" y1="809" y2="809" />
<line x1="204.766832534595" x2="204.766832534595" y1="803" y2="815" />
<line x1="217.64813979732477" x2="217.64813979732477" y1="803" y2="815" />
</g>
</g>
<g fill="hsl(337, 100%, 40%)">
<text y="847">displayPathSize.d=10</text>
<text y="847" x="933.7776924966441" text-anchor="end">6.858 s</text>
</g>
<g>
<title>6.858 s ±  46 ms</title>
<rect y="853" rx="5" height="22" width="933.7776924966441" fill="hsl(337, 100%, 80%)" stroke="hsl(337, 100%, 55%)" />
<g stroke="hsl(337, 100%, 40%)"><line x1="927.5553849932883" x2="940.0" y1="864" y2="864" />
<line x1="927.5553849932883" x2="927.5553849932883" y1="858" y2="870" />
<line x1="940.0" x2="940.0" y1="858" y2="870" />
</g>
</g>
</g>
</svg>
