<svg xmlns="http://www.w3.org/2000/svg" height="172" width="960.0" font-size="16" font-family="sans-serif" stroke-width="2">
<g transform="translate(10.0 0)">
<g fill="hsl(0, 100%, 40%)">
<text y="22">findLargestPaths.Sync</text>
<text y="22" x="495.18951028425676" text-anchor="end">1.918 s</text>
</g>
<g>
<title>1.918 s ± 117 ms</title>
<rect y="28" rx="5" height="22" width="495.18951028425676" fill="hsl(0, 100%, 80%)" stroke="hsl(0, 100%, 55%)" />
<g stroke="hsl(0, 100%, 40%)"><line x1="464.9913602462743" x2="525.3876603222392" y1="39" y2="39" />
<line x1="464.9913602462743" x2="464.9913602462743" y1="33" y2="45" />
<line x1="525.3876603222392" x2="525.3876603222392" y1="33" y2="45" />
</g>
</g>
<g fill="hsl(120, 100%, 40%)">
<text y="77">takeLargest10.Sync</text>
<text y="77" x="488.2808875962143" text-anchor="end">1.892 s</text>
</g>
<g>
<title>1.892 s ± 3.6 ms</title>
<rect y="83" rx="5" height="22" width="488.2808875962143" fill="hsl(120, 100%, 80%)" stroke="hsl(120, 100%, 55%)" />
<g stroke="hsl(120, 100%, 40%)"><line x1="487.35514335092785" x2="489.2066318415008" y1="94" y2="94" />
<line x1="487.35514335092785" x2="487.35514335092785" y1="88" y2="100" />
<line x1="489.2066318415008" x2="489.2066318415008" y1="88" y2="100" />
</g>
</g>
<g fill="hsl(240, 100%, 40%)">
<text y="132">displayPathSize.Sync</text>
<text y="132" x="928.8387864689015" text-anchor="end">3.598 s</text>
</g>
<g>
<title>3.598 s ±  43 ms</title>
<rect y="138" rx="5" height="22" width="928.8387864689015" fill="hsl(240, 100%, 80%)" stroke="hsl(240, 100%, 55%)" />
<g stroke="hsl(240, 100%, 40%)"><line x1="917.677572937803" x2="940.0" y1="149" y2="149" />
<line x1="917.677572937803" x2="917.677572937803" y1="143" y2="155" />
<line x1="940.0" x2="940.0" y1="143" y2="155" />
</g>
</g>
</g>
</svg>
