<svg xmlns="http://www.w3.org/2000/svg" height="887" width="960.0" font-size="16" font-family="sans-serif" stroke-width="2">
<g transform="translate(10.0 0)">
<text fill="hsl(0, 100%, 40%)" y="22">findLargestPaths All.flat.100 - Sync 857  μs</text>
<g>
<title>857  μs ±  84 μs</title>
<rect y="28" rx="5" height="22" width="0.12471347229926111" fill="hsl(0, 100%, 80%)" stroke="hsl(0, 100%, 55%)" />
<g stroke="hsl(0, 100%, 40%)"><line x1="0.11249103948184419" x2="0.13693590511667803" y1="39" y2="39" />
<line x1="0.11249103948184419" x2="0.11249103948184419" y1="33" y2="45" />
<line x1="0.13693590511667803" x2="0.13693590511667803" y1="33" y2="45" />
</g>
</g>
<text fill="hsl(22, 100%, 40%)" y="77">findLargestPaths All.flat.1_000 - Sync 12.2 ms</text>
<g>
<title>12.2 ms ± 994 μs</title>
<rect y="83" rx="5" height="22" width="1.7759033047331405" fill="hsl(22, 100%, 80%)" stroke="hsl(22, 100%, 55%)" />
<g stroke="hsl(22, 100%, 40%)"><line x1="1.6312348230341307" x2="1.9205717864321503" y1="94" y2="94" />
<line x1="1.6312348230341307" x2="1.6312348230341307" y1="88" y2="100" />
<line x1="1.9205717864321503" x2="1.9205717864321503" y1="88" y2="100" />
</g>
</g>
<text fill="hsl(45, 100%, 40%)" y="132">findLargestPaths All.flat.10_000 - Sync 199  ms</text>
<g>
<title>199  ms ±  11 ms</title>
<rect y="138" rx="5" height="22" width="28.908902192284604" fill="hsl(45, 100%, 80%)" stroke="hsl(45, 100%, 55%)" />
<g stroke="hsl(45, 100%, 40%)"><line x1="27.27213151626905" x2="30.54567286830016" y1="149" y2="149" />
<line x1="27.27213151626905" x2="27.27213151626905" y1="143" y2="155" />
<line x1="30.54567286830016" x2="30.54567286830016" y1="143" y2="155" />
</g>
</g>
<text fill="hsl(67, 100%, 40%)" y="187">findLargestPaths All.sparse.d=6 - Sync 117  ms</text>
<g>
<title>117  ms ± 8.6 ms</title>
<rect y="193" rx="5" height="22" width="17.10671365486358" fill="hsl(67, 100%, 80%)" stroke="hsl(67, 100%, 55%)" />
<g stroke="hsl(67, 100%, 40%)"><line x1="15.854269150096284" x2="18.359158159630873" y1="204" y2="204" />
<line x1="15.854269150096284" x2="15.854269150096284" y1="198" y2="210" />
<line x1="18.359158159630873" x2="18.359158159630873" y1="198" y2="210" />
</g>
</g>
<text fill="hsl(90, 100%, 40%)" y="242">findLargestPaths All.sparse.d=8 - Sync 556  ms</text>
<g>
<title>556  ms ±  39 ms</title>
<rect y="248" rx="5" height="22" width="80.96057205405796" fill="hsl(90, 100%, 80%)" stroke="hsl(90, 100%, 55%)" />
<g stroke="hsl(90, 100%, 40%)"><line x1="75.28767657365485" x2="86.63346753446108" y1="259" y2="259" />
<line x1="75.28767657365485" x2="75.28767657365485" y1="253" y2="265" />
<line x1="86.63346753446108" x2="86.63346753446108" y1="253" y2="265" />
</g>
</g>
<text fill="hsl(112, 100%, 40%)" y="297">findLargestPaths All.sparse.d=10 - Sync 2.449 s</text>
<g>
<title>2.449 s ±  92 ms</title>
<rect y="303" rx="5" height="22" width="356.52610427494847" fill="hsl(112, 100%, 80%)" stroke="hsl(112, 100%, 55%)" />
<g stroke="hsl(112, 100%, 40%)"><line x1="343.1492080066964" x2="369.9030005432005" y1="314" y2="314" />
<line x1="343.1492080066964" x2="343.1492080066964" y1="308" y2="320" />
<line x1="369.9030005432005" x2="369.9030005432005" y1="308" y2="320" />
</g>
</g>
<text fill="hsl(135, 100%, 40%)" y="352">findLargestPaths All.dense.d=6 - Sync 248  ms</text>
<g>
<title>248  ms ± 9.1 ms</title>
<rect y="358" rx="5" height="22" width="36.045991619358674" fill="hsl(135, 100%, 80%)" stroke="hsl(135, 100%, 55%)" />
<g stroke="hsl(135, 100%, 40%)"><line x1="34.71756877175157" x2="37.374414466965774" y1="369" y2="369" />
<line x1="34.71756877175157" x2="34.71756877175157" y1="363" y2="375" />
<line x1="37.374414466965774" x2="37.374414466965774" y1="363" y2="375" />
</g>
</g>
<text fill="hsl(157, 100%, 40%)" y="407">findLargestPaths All.dense.d=8 - Sync 1.090 s</text>
<g>
<title>1.090 s ±  26 ms</title>
<rect y="413" rx="5" height="22" width="158.66964053339964" fill="hsl(157, 100%, 80%)" stroke="hsl(157, 100%, 55%)" />
<g stroke="hsl(157, 100%, 40%)"><line x1="154.89559803471238" x2="162.4436830320869" y1="424" y2="424" />
<line x1="154.89559803471238" x2="154.89559803471238" y1="418" y2="430" />
<line x1="162.4436830320869" x2="162.4436830320869" y1="418" y2="430" />
</g>
</g>
<g fill="hsl(180, 100%, 40%)">
<text y="462">findLargestPaths All.dense.d=10 - Sync</text>
<text y="462" x="708.3842235344333" text-anchor="end">4.865 s</text>
</g>
<g>
<title>4.865 s ± 305 ms</title>
<rect y="468" rx="5" height="22" width="708.3842235344333" fill="hsl(180, 100%, 80%)" stroke="hsl(180, 100%, 55%)" />
<g stroke="hsl(180, 100%, 40%)"><line x1="663.991408867301" x2="752.7770382015657" y1="479" y2="479" />
<line x1="663.991408867301" x2="663.991408867301" y1="473" y2="485" />
<line x1="752.7770382015657" x2="752.7770382015657" y1="473" y2="485" />
</g>
</g>
<g fill="hsl(202, 100%, 40%)">
<text y="517">takeLargestN.1</text>
<text y="517" x="699.0195153050769" text-anchor="end">4.801 s</text>
</g>
<g>
<title>4.801 s ± 136 ms</title>
<rect y="523" rx="5" height="22" width="699.0195153050769" fill="hsl(202, 100%, 80%)" stroke="hsl(202, 100%, 55%)" />
<g stroke="hsl(202, 100%, 40%)"><line x1="679.226408180975" x2="718.8126224291788" y1="534" y2="534" />
<line x1="679.226408180975" x2="679.226408180975" y1="528" y2="540" />
<line x1="718.8126224291788" x2="718.8126224291788" y1="528" y2="540" />
</g>
</g>
<g fill="hsl(225, 100%, 40%)">
<text y="572">takeLargestN.10</text>
<text y="572" x="690.6745479097274" text-anchor="end">4.743 s</text>
</g>
<g>
<title>4.743 s ± 296 ms</title>
<rect y="578" rx="5" height="22" width="690.6745479097274" fill="hsl(225, 100%, 80%)" stroke="hsl(225, 100%, 55%)" />
<g stroke="hsl(225, 100%, 40%)"><line x1="647.6101821370247" x2="733.73891368243" y1="589" y2="589" />
<line x1="647.6101821370247" x2="647.6101821370247" y1="583" y2="595" />
<line x1="733.73891368243" x2="733.73891368243" y1="583" y2="595" />
</g>
</g>
<g fill="hsl(247, 100%, 40%)">
<text y="627">takeLargestN.100</text>
<text y="627" x="700.3543978514542" text-anchor="end">4.810 s</text>
</g>
<g>
<title>4.810 s ± 291 ms</title>
<rect y="633" rx="5" height="22" width="700.3543978514542" fill="hsl(247, 100%, 80%)" stroke="hsl(247, 100%, 55%)" />
<g stroke="hsl(247, 100%, 40%)"><line x1="658.0551160176265" x2="742.653679685282" y1="644" y2="644" />
<line x1="658.0551160176265" x2="658.0551160176265" y1="638" y2="650" />
<line x1="742.653679685282" x2="742.653679685282" y1="638" y2="650" />
</g>
</g>
<g fill="hsl(270, 100%, 40%)">
<text y="682">takeLargestN.1_000</text>
<text y="682" x="675.0595181312639" text-anchor="end">4.636 s</text>
</g>
<g>
<title>4.636 s ±  88 ms</title>
<rect y="688" rx="5" height="22" width="675.0595181312639" fill="hsl(270, 100%, 80%)" stroke="hsl(270, 100%, 55%)" />
<g stroke="hsl(270, 100%, 40%)"><line x1="662.1950198585141" x2="687.9240164040136" y1="699" y2="699" />
<line x1="662.1950198585141" x2="662.1950198585141" y1="693" y2="705" />
<line x1="687.9240164040136" x2="687.9240164040136" y1="693" y2="705" />
</g>
</g>
<text fill="hsl(292, 100%, 40%)" y="737">displayPathSize.d=6 327  ms</text>
<g>
<title>327  ms ±  20 ms</title>
<rect y="743" rx="5" height="22" width="47.57841791911414" fill="hsl(292, 100%, 80%)" stroke="hsl(292, 100%, 55%)" />
<g stroke="hsl(292, 100%, 40%)"><line x1="44.68357013035743" x2="50.473265707870844" y1="754" y2="754" />
<line x1="44.68357013035743" x2="44.68357013035743" y1="748" y2="760" />
<line x1="50.473265707870844" x2="50.473265707870844" y1="748" y2="760" />
</g>
</g>
<text fill="hsl(315, 100%, 40%)" y="792">displayPathSize.d=8 1.417 s</text>
<g>
<title>1.417 s ± 8.8 ms</title>
<rect y="798" rx="5" height="22" width="206.2823078269605" fill="hsl(315, 100%, 80%)" stroke="hsl(315, 100%, 55%)" />
<g stroke="hsl(315, 100%, 40%)"><line x1="205.00444170318852" x2="207.5601739507325" y1="809" y2="809" />
<line x1="205.00444170318852" x2="205.00444170318852" y1="803" y2="815" />
<line x1="207.5601739507325" x2="207.5601739507325" y1="803" y2="815" />
</g>
</g>
<g fill="hsl(337, 100%, 40%)">
<text y="847">displayPathSize.d=10</text>
<text y="847" x="901.9697399029016" text-anchor="end">6.195 s</text>
</g>
<g>
<title>6.195 s ± 261 ms</title>
<rect y="853" rx="5" height="22" width="901.9697399029016" fill="hsl(337, 100%, 80%)" stroke="hsl(337, 100%, 55%)" />
<g stroke="hsl(337, 100%, 40%)"><line x1="863.9394798058031" x2="940.0" y1="864" y2="864" />
<line x1="863.9394798058031" x2="863.9394798058031" y1="858" y2="870" />
<line x1="940.0" x2="940.0" y1="858" y2="870" />
</g>
</g>
</g>
</svg>
