<svg xmlns="http://www.w3.org/2000/svg" height="172" width="960.0" font-size="16" font-family="sans-serif" stroke-width="2">
<g transform="translate(10.0 0)">
<g fill="hsl(0, 100%, 40%)">
<text y="22">findLargestPaths.Sync</text>
<text y="22" x="356.426935012581" text-anchor="end">1.874 s</text>
</g>
<g>
<title>1.874 s ± 751 ms</title>
<rect y="28" rx="5" height="22" width="356.426935012581" fill="hsl(0, 100%, 80%)" stroke="hsl(0, 100%, 55%)" />
<g stroke="hsl(0, 100%, 40%)"><line x1="213.48525399654332" x2="499.3686160286187" y1="39" y2="39" />
<line x1="213.48525399654332" x2="213.48525399654332" y1="33" y2="45" />
<line x1="499.3686160286187" x2="499.3686160286187" y1="33" y2="45" />
</g>
</g>
<g fill="hsl(120, 100%, 40%)">
<text y="77">takeLargest10.Sync</text>
<text y="77" x="345.3097208265139" text-anchor="end">1.815 s</text>
</g>
<g>
<title>1.815 s ± 173 ms</title>
<rect y="83" rx="5" height="22" width="345.3097208265139" fill="hsl(120, 100%, 80%)" stroke="hsl(120, 100%, 55%)" />
<g stroke="hsl(120, 100%, 40%)"><line x1="312.4379998159674" x2="378.18144183706045" y1="94" y2="94" />
<line x1="312.4379998159674" x2="312.4379998159674" y1="88" y2="100" />
<line x1="378.18144183706045" x2="378.18144183706045" y1="88" y2="100" />
</g>
</g>
<g fill="hsl(240, 100%, 40%)">
<text y="132">displayPathSize.Sync</text>
<text y="132" x="924.4750631471901" text-anchor="end">4.860 s</text>
</g>
<g>
<title>4.860 s ±  82 ms</title>
<rect y="138" rx="5" height="22" width="924.4750631471901" fill="hsl(240, 100%, 80%)" stroke="hsl(240, 100%, 55%)" />
<g stroke="hsl(240, 100%, 40%)"><line x1="908.9501262943802" x2="940.0" y1="149" y2="149" />
<line x1="908.9501262943802" x2="908.9501262943802" y1="143" y2="155" />
<line x1="940.0" x2="940.0" y1="143" y2="155" />
</g>
</g>
</g>
</svg>
