<svg xmlns="http://www.w3.org/2000/svg" height="172" width="960.0" font-size="16" font-family="sans-serif" stroke-width="2">
<g transform="translate(10.0 0)">
<g fill="hsl(0, 100%, 40%)">
<text y="22">findLargestPaths.Sync</text>
<text y="22" x="511.52611371015644" text-anchor="end">2.971 s</text>
</g>
<g>
<title>2.971 s ±  99 ms</title>
<rect y="28" rx="5" height="22" width="511.52611371015644" fill="hsl(0, 100%, 80%)" stroke="hsl(0, 100%, 55%)" />
<g stroke="hsl(0, 100%, 40%)"><line x1="494.4395308831522" x2="528.6126965371607" y1="39" y2="39" />
<line x1="494.4395308831522" x2="494.4395308831522" y1="33" y2="45" />
<line x1="528.6126965371607" x2="528.6126965371607" y1="33" y2="45" />
</g>
</g>
<g fill="hsl(120, 100%, 40%)">
<text y="77">takeLargest10.Sync</text>
<text y="77" x="529.8714381217402" text-anchor="end">3.078 s</text>
</g>
<g>
<title>3.078 s ± 209 ms</title>
<rect y="83" rx="5" height="22" width="529.8714381217402" fill="hsl(120, 100%, 80%)" stroke="hsl(120, 100%, 55%)" />
<g stroke="hsl(120, 100%, 40%)"><line x1="493.9135876939145" x2="565.829288549566" y1="94" y2="94" />
<line x1="493.9135876939145" x2="493.9135876939145" y1="88" y2="100" />
<line x1="565.829288549566" x2="565.829288549566" y1="88" y2="100" />
</g>
</g>
<g fill="hsl(240, 100%, 40%)">
<text y="132">displayPathSize.Sync</text>
<text y="132" x="932.7646812007479" text-anchor="end">5.418 s</text>
</g>
<g>
<title>5.418 s ±  42 ms</title>
<rect y="138" rx="5" height="22" width="932.7646812007479" fill="hsl(240, 100%, 80%)" stroke="hsl(240, 100%, 55%)" />
<g stroke="hsl(240, 100%, 40%)"><line x1="925.5293624014957" x2="940.0" y1="149" y2="149" />
<line x1="925.5293624014957" x2="925.5293624014957" y1="143" y2="155" />
<line x1="940.0" x2="940.0" y1="143" y2="155" />
</g>
</g>
</g>
</svg>
