<svg xmlns="http://www.w3.org/2000/svg" height="172" width="960.0" font-size="16" font-family="sans-serif" stroke-width="2">
<g transform="translate(10.0 0)">
<g fill="hsl(0, 100%, 40%)">
<text y="22">findLargestPaths.Sync</text>
<text y="22" x="515.9240863811638" text-anchor="end">1.947 s</text>
</g>
<g>
<title>1.947 s ±  21 ms</title>
<rect y="28" rx="5" height="22" width="515.9240863811638" fill="hsl(0, 100%, 80%)" stroke="hsl(0, 100%, 55%)" />
<g stroke="hsl(0, 100%, 40%)"><line x1="510.3743392997291" x2="521.4738334625985" y1="39" y2="39" />
<line x1="510.3743392997291" x2="510.3743392997291" y1="33" y2="45" />
<line x1="521.4738334625985" x2="521.4738334625985" y1="33" y2="45" />
</g>
</g>
<g fill="hsl(120, 100%, 40%)">
<text y="77">takeLargest10.Sync</text>
<text y="77" x="520.3911435556558" text-anchor="end">1.964 s</text>
</g>
<g>
<title>1.964 s ± 176 ms</title>
<rect y="83" rx="5" height="22" width="520.3911435556558" fill="hsl(120, 100%, 80%)" stroke="hsl(120, 100%, 55%)" />
<g stroke="hsl(120, 100%, 40%)"><line x1="473.7880145874368" x2="566.9942725238749" y1="94" y2="94" />
<line x1="473.7880145874368" x2="473.7880145874368" y1="88" y2="100" />
<line x1="566.9942725238749" x2="566.9942725238749" y1="88" y2="100" />
</g>
</g>
<g fill="hsl(240, 100%, 40%)">
<text y="132">displayPathSize.Sync</text>
<text y="132" x="923.8184588263455" text-anchor="end">3.486 s</text>
</g>
<g>
<title>3.486 s ±  61 ms</title>
<rect y="138" rx="5" height="22" width="923.8184588263455" fill="hsl(240, 100%, 80%)" stroke="hsl(240, 100%, 55%)" />
<g stroke="hsl(240, 100%, 40%)"><line x1="907.636917652691" x2="940.0" y1="149" y2="149" />
<line x1="907.636917652691" x2="907.636917652691" y1="143" y2="155" />
<line x1="940.0" x2="940.0" y1="143" y2="155" />
</g>
</g>
</g>
</svg>
