<svg xmlns="http://www.w3.org/2000/svg" height="172" width="960.0" font-size="16" font-family="sans-serif" stroke-width="2">
<g transform="translate(10.0 0)">
<g fill="hsl(0, 100%, 40%)">
<text y="22">findLargestPaths.Sync</text>
<text y="22" x="595.971629367481" text-anchor="end">4.570 s</text>
</g>
<g>
<title>4.570 s ± 156 ms</title>
<rect y="28" rx="5" height="22" width="595.971629367481" fill="hsl(0, 100%, 80%)" stroke="hsl(0, 100%, 55%)" />
<g stroke="hsl(0, 100%, 40%)"><line x1="575.6831270176433" x2="616.2601317173187" y1="39" y2="39" />
<line x1="575.6831270176433" x2="575.6831270176433" y1="33" y2="45" />
<line x1="616.2601317173187" x2="616.2601317173187" y1="33" y2="45" />
</g>
</g>
<g fill="hsl(120, 100%, 40%)">
<text y="77">takeLargest10.Sync</text>
<text y="77" x="592.2477423149415" text-anchor="end">4.541 s</text>
</g>
<g>
<title>4.541 s ±  61 ms</title>
<rect y="83" rx="5" height="22" width="592.2477423149415" fill="hsl(120, 100%, 80%)" stroke="hsl(120, 100%, 55%)" />
<g stroke="hsl(120, 100%, 40%)"><line x1="584.2475411731032" x2="600.2479434567799" y1="94" y2="94" />
<line x1="584.2475411731032" x2="584.2475411731032" y1="88" y2="100" />
<line x1="600.2479434567799" x2="600.2479434567799" y1="88" y2="100" />
</g>
</g>
<g fill="hsl(240, 100%, 40%)">
<text y="132">displayPathSize.Sync</text>
<text y="132" x="938.2140975026466" text-anchor="end">7.194 s</text>
</g>
<g>
<title>7.194 s ±  14 ms</title>
<rect y="138" rx="5" height="22" width="938.2140975026466" fill="hsl(240, 100%, 80%)" stroke="hsl(240, 100%, 55%)" />
<g stroke="hsl(240, 100%, 40%)"><line x1="936.4281950052932" x2="940.0" y1="149" y2="149" />
<line x1="936.4281950052932" x2="936.4281950052932" y1="143" y2="155" />
<line x1="940.0" x2="940.0" y1="143" y2="155" />
</g>
</g>
</g>
</svg>
