<svg xmlns="http://www.w3.org/2000/svg" height="887" width="960.0" font-size="16" font-family="sans-serif" stroke-width="2">
<g transform="translate(10.0 0)">
<text fill="hsl(0, 100%, 40%)" y="22">findLargestPaths All.flat.100 - Sync 2.53 ms</text>
<g>
<title>2.53 ms ± 234 μs</title>
<rect y="28" rx="5" height="22" width="0.2053784446296499" fill="hsl(0, 100%, 80%)" stroke="hsl(0, 100%, 55%)" />
<g stroke="hsl(0, 100%, 40%)"><line x1="0.1864096130060448" x2="0.224347276253255" y1="39" y2="39" />
<line x1="0.1864096130060448" x2="0.1864096130060448" y1="33" y2="45" />
<line x1="0.224347276253255" x2="0.224347276253255" y1="33" y2="45" />
</g>
</g>
<text fill="hsl(22, 100%, 40%)" y="77">findLargestPaths All.flat.1,000 - Sync 33.7 ms</text>
<g>
<title>33.7 ms ± 2.5 ms</title>
<rect y="83" rx="5" height="22" width="2.738546627194912" fill="hsl(22, 100%, 80%)" stroke="hsl(22, 100%, 55%)" />
<g stroke="hsl(22, 100%, 40%)"><line x1="2.5335088258141996" x2="2.9435844285756243" y1="94" y2="94" />
<line x1="2.5335088258141996" x2="2.5335088258141996" y1="88" y2="100" />
<line x1="2.9435844285756243" x2="2.9435844285756243" y1="88" y2="100" />
</g>
</g>
<text fill="hsl(45, 100%, 40%)" y="132">findLargestPaths All.flat.10,000 - Sync 533  ms</text>
<g>
<title>533  ms ±  35 ms</title>
<rect y="138" rx="5" height="22" width="43.25158409813914" fill="hsl(45, 100%, 80%)" stroke="hsl(45, 100%, 55%)" />
<g stroke="hsl(45, 100%, 40%)"><line x1="40.379204094576906" x2="46.123964101701375" y1="149" y2="149" />
<line x1="40.379204094576906" x2="40.379204094576906" y1="143" y2="155" />
<line x1="46.123964101701375" x2="46.123964101701375" y1="143" y2="155" />
</g>
</g>
<text fill="hsl(67, 100%, 40%)" y="187">findLargestPaths All.sparse.d=6 - Sync 262  ms</text>
<g>
<title>262  ms ±  20 ms</title>
<rect y="193" rx="5" height="22" width="21.268913225755036" fill="hsl(67, 100%, 80%)" stroke="hsl(67, 100%, 55%)" />
<g stroke="hsl(67, 100%, 40%)"><line x1="19.67792875633331" x2="22.859897695176763" y1="204" y2="204" />
<line x1="19.67792875633331" x2="19.67792875633331" y1="198" y2="210" />
<line x1="22.859897695176763" x2="22.859897695176763" y1="198" y2="210" />
</g>
</g>
<text fill="hsl(90, 100%, 40%)" y="242">findLargestPaths All.sparse.d=8 - Sync 1.141 s</text>
<g>
<title>1.141 s ±  86 ms</title>
<rect y="248" rx="5" height="22" width="92.56229782944618" fill="hsl(90, 100%, 80%)" stroke="hsl(90, 100%, 55%)" />
<g stroke="hsl(90, 100%, 40%)"><line x1="85.55054936881865" x2="99.57404629007371" y1="259" y2="259" />
<line x1="85.55054936881865" x2="85.55054936881865" y1="253" y2="265" />
<line x1="99.57404629007371" x2="99.57404629007371" y1="253" y2="265" />
</g>
</g>
<g fill="hsl(112, 100%, 40%)">
<text y="297">findLargestPaths All.sparse.d=10 - Sync</text>
<text y="297" x="391.9224906616415" text-anchor="end">4.830 s</text>
</g>
<g>
<title>4.830 s ± 320 ms</title>
<rect y="303" rx="5" height="22" width="391.9224906616415" fill="hsl(112, 100%, 80%)" stroke="hsl(112, 100%, 55%)" />
<g stroke="hsl(112, 100%, 40%)"><line x1="365.9468503817824" x2="417.89813094150065" y1="314" y2="314" />
<line x1="365.9468503817824" x2="365.9468503817824" y1="308" y2="320" />
<line x1="417.89813094150065" x2="417.89813094150065" y1="308" y2="320" />
</g>
</g>
<text fill="hsl(135, 100%, 40%)" y="352">findLargestPaths All.dense.d=6 - Sync 528  ms</text>
<g>
<title>528  ms ±  45 ms</title>
<rect y="358" rx="5" height="22" width="42.83526942536367" fill="hsl(135, 100%, 80%)" stroke="hsl(135, 100%, 55%)" />
<g stroke="hsl(135, 100%, 40%)"><line x1="39.203451179161426" x2="46.46708767156591" y1="369" y2="369" />
<line x1="39.203451179161426" x2="39.203451179161426" y1="363" y2="375" />
<line x1="46.46708767156591" x2="46.46708767156591" y1="363" y2="375" />
</g>
</g>
<text fill="hsl(157, 100%, 40%)" y="407">findLargestPaths All.dense.d=8 - Sync 2.187 s</text>
<g>
<title>2.187 s ± 161 ms</title>
<rect y="413" rx="5" height="22" width="177.49212212291448" fill="hsl(157, 100%, 80%)" stroke="hsl(157, 100%, 55%)" />
<g stroke="hsl(157, 100%, 40%)"><line x1="164.42936338844248" x2="190.55488085738648" y1="424" y2="424" />
<line x1="164.42936338844248" x2="164.42936338844248" y1="418" y2="430" />
<line x1="190.55488085738648" x2="190.55488085738648" y1="418" y2="430" />
</g>
</g>
<g fill="hsl(180, 100%, 40%)">
<text y="462">findLargestPaths All.dense.d=10 - Sync</text>
<text y="462" x="752.0006821742745" text-anchor="end">9.267 s</text>
</g>
<g>
<title>9.267 s ± 227 ms</title>
<rect y="468" rx="5" height="22" width="752.0006821742745" fill="hsl(180, 100%, 80%)" stroke="hsl(180, 100%, 55%)" />
<g stroke="hsl(180, 100%, 40%)"><line x1="733.5680378551795" x2="770.4333264933696" y1="479" y2="479" />
<line x1="733.5680378551795" x2="733.5680378551795" y1="473" y2="485" />
<line x1="770.4333264933696" x2="770.4333264933696" y1="473" y2="485" />
</g>
</g>
<g fill="hsl(202, 100%, 40%)">
<text y="517">takeLargestN.1</text>
<text y="517" x="736.8759483650446" text-anchor="end">9.081 s</text>
</g>
<g>
<title>9.081 s ± 280 ms</title>
<rect y="523" rx="5" height="22" width="736.8759483650446" fill="hsl(202, 100%, 80%)" stroke="hsl(202, 100%, 55%)" />
<g stroke="hsl(202, 100%, 40%)"><line x1="714.1478528306849" x2="759.6040438994042" y1="534" y2="534" />
<line x1="714.1478528306849" x2="714.1478528306849" y1="528" y2="540" />
<line x1="759.6040438994042" x2="759.6040438994042" y1="528" y2="540" />
</g>
</g>
<g fill="hsl(225, 100%, 40%)">
<text y="572">takeLargestN.10</text>
<text y="572" x="750.838410871914" text-anchor="end">9.253 s</text>
</g>
<g>
<title>9.253 s ± 188 ms</title>
<rect y="578" rx="5" height="22" width="750.838410871914" fill="hsl(225, 100%, 80%)" stroke="hsl(225, 100%, 55%)" />
<g stroke="hsl(225, 100%, 40%)"><line x1="735.5458569744422" x2="766.1309647693857" y1="589" y2="589" />
<line x1="735.5458569744422" x2="735.5458569744422" y1="583" y2="595" />
<line x1="766.1309647693857" x2="766.1309647693857" y1="583" y2="595" />
</g>
</g>
<g fill="hsl(247, 100%, 40%)">
<text y="627">takeLargestN.100</text>
<text y="627" x="740.994464446061" text-anchor="end">9.132 s</text>
</g>
<g>
<title>9.132 s ± 610 ms</title>
<rect y="633" rx="5" height="22" width="740.994464446061" fill="hsl(247, 100%, 80%)" stroke="hsl(247, 100%, 55%)" />
<g stroke="hsl(247, 100%, 40%)"><line x1="691.5303468525371" x2="790.4585820395848" y1="644" y2="644" />
<line x1="691.5303468525371" x2="691.5303468525371" y1="638" y2="650" />
<line x1="790.4585820395848" x2="790.4585820395848" y1="638" y2="650" />
</g>
</g>
<g fill="hsl(270, 100%, 40%)">
<text y="682">takeLargestN.1,000</text>
<text y="682" x="749.4215420165687" text-anchor="end">9.235 s</text>
</g>
<g>
<title>9.235 s ± 785 ms</title>
<rect y="688" rx="5" height="22" width="749.4215420165687" fill="hsl(270, 100%, 80%)" stroke="hsl(270, 100%, 55%)" />
<g stroke="hsl(270, 100%, 40%)"><line x1="685.6870111830266" x2="813.1560728501107" y1="699" y2="699" />
<line x1="685.6870111830266" x2="685.6870111830266" y1="693" y2="705" />
<line x1="813.1560728501107" x2="813.1560728501107" y1="693" y2="705" />
</g>
</g>
<text fill="hsl(292, 100%, 40%)" y="737">displayPathSize.d=6 644  ms</text>
<g>
<title>644  ms ± 7.4 ms</title>
<rect y="743" rx="5" height="22" width="52.24108084951768" fill="hsl(292, 100%, 80%)" stroke="hsl(292, 100%, 55%)" />
<g stroke="hsl(292, 100%, 40%)"><line x1="51.641717251679" x2="52.84044444735636" y1="754" y2="754" />
<line x1="51.641717251679" x2="51.641717251679" y1="748" y2="760" />
<line x1="52.84044444735636" x2="52.84044444735636" y1="748" y2="760" />
</g>
</g>
<g fill="hsl(315, 100%, 40%)">
<text y="792">displayPathSize.d=8</text>
<text y="792" x="217.74465659484414" text-anchor="end">2.683 s</text>
</g>
<g>
<title>2.683 s ±  23 ms</title>
<rect y="798" rx="5" height="22" width="217.74465659484414" fill="hsl(315, 100%, 80%)" stroke="hsl(315, 100%, 55%)" />
<g stroke="hsl(315, 100%, 40%)"><line x1="215.86436923119746" x2="219.62494395849083" y1="809" y2="809" />
<line x1="215.86436923119746" x2="215.86436923119746" y1="803" y2="815" />
<line x1="219.62494395849083" x2="219.62494395849083" y1="803" y2="815" />
</g>
</g>
<g fill="hsl(337, 100%, 40%)">
<text y="847">displayPathSize.d=10</text>
<text y="847" x="926.0594254462478" text-anchor="end">11.412 s</text>
</g>
<g>
<title>11.412 s ± 172 ms</title>
<rect y="853" rx="5" height="22" width="926.0594254462478" fill="hsl(337, 100%, 80%)" stroke="hsl(337, 100%, 55%)" />
<g stroke="hsl(337, 100%, 40%)"><line x1="912.1188508924956" x2="940.0" y1="864" y2="864" />
<line x1="912.1188508924956" x2="912.1188508924956" y1="858" y2="870" />
<line x1="940.0" x2="940.0" y1="858" y2="870" />
</g>
</g>
</g>
</svg>
