<svg xmlns="http://www.w3.org/2000/svg" height="172" width="960.0" font-size="16" font-family="sans-serif" stroke-width="2">
<g transform="translate(10.0 0)">
<g fill="hsl(0, 100%, 40%)">
<text y="22">findLargestPaths.Sync</text>
<text y="22" x="527.6276348176069" text-anchor="end">3.043 s</text>
</g>
<g>
<title>3.043 s ±  61 ms</title>
<rect y="28" rx="5" height="22" width="527.6276348176069" fill="hsl(0, 100%, 80%)" stroke="hsl(0, 100%, 55%)" />
<g stroke="hsl(0, 100%, 40%)"><line x1="516.9895726977943" x2="538.2656969374195" y1="39" y2="39" />
<line x1="516.9895726977943" x2="516.9895726977943" y1="33" y2="45" />
<line x1="538.2656969374195" x2="538.2656969374195" y1="33" y2="45" />
</g>
</g>
<g fill="hsl(120, 100%, 40%)">
<text y="77">takeLargest10.Sync</text>
<text y="77" x="515.3697158705953" text-anchor="end">2.972 s</text>
</g>
<g>
<title>2.972 s ±  59 ms</title>
<rect y="83" rx="5" height="22" width="515.3697158705953" fill="hsl(120, 100%, 80%)" stroke="hsl(120, 100%, 55%)" />
<g stroke="hsl(120, 100%, 40%)"><line x1="505.2092025546593" x2="525.5302291865313" y1="94" y2="94" />
<line x1="505.2092025546593" x2="505.2092025546593" y1="88" y2="100" />
<line x1="525.5302291865313" x2="525.5302291865313" y1="88" y2="100" />
</g>
</g>
<g fill="hsl(240, 100%, 40%)">
<text y="132">displayPathSize.Sync</text>
<text y="132" x="920.5263274065774" text-anchor="end">5.309 s</text>
</g>
<g>
<title>5.309 s ± 112 ms</title>
<rect y="138" rx="5" height="22" width="920.5263274065774" fill="hsl(240, 100%, 80%)" stroke="hsl(240, 100%, 55%)" />
<g stroke="hsl(240, 100%, 40%)"><line x1="901.0526548131547" x2="940.0" y1="149" y2="149" />
<line x1="901.0526548131547" x2="901.0526548131547" y1="143" y2="155" />
<line x1="940.0" x2="940.0" y1="143" y2="155" />
</g>
</g>
</g>
</svg>
