<svg xmlns="http://www.w3.org/2000/svg" height="887" width="960.0" font-size="16" font-family="sans-serif" stroke-width="2">
<g transform="translate(10.0 0)">
<text fill="hsl(0, 100%, 40%)" y="22">findLargestPaths All.flat.100 - Sync 781  μs</text>
<g>
<title>781  μs ±  44 μs</title>
<rect y="28" rx="5" height="22" width="0.1305014132863705" fill="hsl(0, 100%, 80%)" stroke="hsl(0, 100%, 55%)" />
<g stroke="hsl(0, 100%, 40%)"><line x1="0.12320275895835538" x2="0.1378000676143856" y1="39" y2="39" />
<line x1="0.12320275895835538" x2="0.12320275895835538" y1="33" y2="45" />
<line x1="0.1378000676143856" x2="0.1378000676143856" y1="33" y2="45" />
</g>
</g>
<text fill="hsl(22, 100%, 40%)" y="77">findLargestPaths All.flat.1_000 - Sync 9.77 ms</text>
<g>
<title>9.77 ms ± 612 μs</title>
<rect y="83" rx="5" height="22" width="1.6325325889006583" fill="hsl(22, 100%, 80%)" stroke="hsl(22, 100%, 55%)" />
<g stroke="hsl(22, 100%, 40%)"><line x1="1.5303042515906717" x2="1.734760926210645" y1="94" y2="94" />
<line x1="1.5303042515906717" x2="1.5303042515906717" y1="88" y2="100" />
<line x1="1.734760926210645" x2="1.734760926210645" y1="88" y2="100" />
</g>
</g>
<text fill="hsl(45, 100%, 40%)" y="132">findLargestPaths All.flat.10_000 - Sync 158  ms</text>
<g>
<title>158  ms ± 6.8 ms</title>
<rect y="138" rx="5" height="22" width="26.33777294826513" fill="hsl(45, 100%, 80%)" stroke="hsl(45, 100%, 55%)" />
<g stroke="hsl(45, 100%, 40%)"><line x1="25.200754993433453" x2="27.474790903096807" y1="149" y2="149" />
<line x1="25.200754993433453" x2="25.200754993433453" y1="143" y2="155" />
<line x1="27.474790903096807" x2="27.474790903096807" y1="143" y2="155" />
</g>
</g>
<text fill="hsl(67, 100%, 40%)" y="187">findLargestPaths All.sparse.d=6 - Sync 104  ms</text>
<g>
<title>104  ms ±  10 ms</title>
<rect y="193" rx="5" height="22" width="17.31676302787629" fill="hsl(67, 100%, 80%)" stroke="hsl(67, 100%, 55%)" />
<g stroke="hsl(67, 100%, 40%)"><line x1="15.636270996755442" x2="18.99725505899714" y1="204" y2="204" />
<line x1="15.636270996755442" x2="15.636270996755442" y1="198" y2="210" />
<line x1="18.99725505899714" x2="18.99725505899714" y1="198" y2="210" />
</g>
</g>
<text fill="hsl(90, 100%, 40%)" y="242">findLargestPaths All.sparse.d=8 - Sync 466  ms</text>
<g>
<title>466  ms ±  29 ms</title>
<rect y="248" rx="5" height="22" width="77.87703705062752" fill="hsl(90, 100%, 80%)" stroke="hsl(90, 100%, 55%)" />
<g stroke="hsl(90, 100%, 40%)"><line x1="72.94992935362089" x2="82.80414474763415" y1="259" y2="259" />
<line x1="72.94992935362089" x2="72.94992935362089" y1="253" y2="265" />
<line x1="82.80414474763415" x2="82.80414474763415" y1="253" y2="265" />
</g>
</g>
<text fill="hsl(112, 100%, 40%)" y="297">findLargestPaths All.sparse.d=10 - Sync 2.077 s</text>
<g>
<title>2.077 s ±  78 ms</title>
<rect y="303" rx="5" height="22" width="347.13985653815314" fill="hsl(112, 100%, 80%)" stroke="hsl(112, 100%, 55%)" />
<g stroke="hsl(112, 100%, 40%)"><line x1="334.0986533811172" x2="360.1810596951891" y1="314" y2="314" />
<line x1="334.0986533811172" x2="334.0986533811172" y1="308" y2="320" />
<line x1="360.1810596951891" x2="360.1810596951891" y1="308" y2="320" />
</g>
</g>
<text fill="hsl(135, 100%, 40%)" y="352">findLargestPaths All.dense.d=6 - Sync 209  ms</text>
<g>
<title>209  ms ± 6.7 ms</title>
<rect y="358" rx="5" height="22" width="34.91819557107417" fill="hsl(135, 100%, 80%)" stroke="hsl(135, 100%, 55%)" />
<g stroke="hsl(135, 100%, 40%)"><line x1="33.79800704838782" x2="36.03838409376053" y1="369" y2="369" />
<line x1="33.79800704838782" x2="33.79800704838782" y1="363" y2="375" />
<line x1="36.03838409376053" x2="36.03838409376053" y1="363" y2="375" />
</g>
</g>
<text fill="hsl(157, 100%, 40%)" y="407">findLargestPaths All.dense.d=8 - Sync 909  ms</text>
<g>
<title>909  ms ±  83 ms</title>
<rect y="413" rx="5" height="22" width="151.82820484478796" fill="hsl(157, 100%, 80%)" stroke="hsl(157, 100%, 55%)" />
<g stroke="hsl(157, 100%, 40%)"><line x1="138.017249470027" x2="165.63916021954893" y1="424" y2="424" />
<line x1="138.017249470027" x2="138.017249470027" y1="418" y2="430" />
<line x1="165.63916021954893" x2="165.63916021954893" y1="418" y2="430" />
</g>
</g>
<g fill="hsl(180, 100%, 40%)">
<text y="462">findLargestPaths All.dense.d=10 - Sync</text>
<text y="462" x="679.5039933097041" text-anchor="end">4.066 s</text>
</g>
<g>
<title>4.066 s ±  60 ms</title>
<rect y="468" rx="5" height="22" width="679.5039933097041" fill="hsl(180, 100%, 80%)" stroke="hsl(180, 100%, 55%)" />
<g stroke="hsl(180, 100%, 40%)"><line x1="669.4961906646275" x2="689.5117959547807" y1="479" y2="479" />
<line x1="669.4961906646275" x2="669.4961906646275" y1="473" y2="485" />
<line x1="689.5117959547807" x2="689.5117959547807" y1="473" y2="485" />
</g>
</g>
<g fill="hsl(202, 100%, 40%)">
<text y="517">takeLargestN.1</text>
<text y="517" x="672.3146363344035" text-anchor="end">4.023 s</text>
</g>
<g>
<title>4.023 s ±  55 ms</title>
<rect y="523" rx="5" height="22" width="672.3146363344035" fill="hsl(202, 100%, 80%)" stroke="hsl(202, 100%, 55%)" />
<g stroke="hsl(202, 100%, 40%)"><line x1="663.0894919591176" x2="681.5397807096895" y1="534" y2="534" />
<line x1="663.0894919591176" x2="663.0894919591176" y1="528" y2="540" />
<line x1="681.5397807096895" x2="681.5397807096895" y1="528" y2="540" />
</g>
</g>
<g fill="hsl(225, 100%, 40%)">
<text y="572">takeLargestN.10</text>
<text y="572" x="673.7316189309179" text-anchor="end">4.032 s</text>
</g>
<g>
<title>4.032 s ± 4.0 ms</title>
<rect y="578" rx="5" height="22" width="673.7316189309179" fill="hsl(225, 100%, 80%)" stroke="hsl(225, 100%, 55%)" />
<g stroke="hsl(225, 100%, 40%)"><line x1="673.0632543267013" x2="674.3999835351344" y1="589" y2="589" />
<line x1="673.0632543267013" x2="673.0632543267013" y1="583" y2="595" />
<line x1="674.3999835351344" x2="674.3999835351344" y1="583" y2="595" />
</g>
</g>
<g fill="hsl(247, 100%, 40%)">
<text y="627">takeLargestN.100</text>
<text y="627" x="639.2179312966456" text-anchor="end">3.825 s</text>
</g>
<g>
<title>3.825 s ± 216 ms</title>
<rect y="633" rx="5" height="22" width="639.2179312966456" fill="hsl(247, 100%, 80%)" stroke="hsl(247, 100%, 55%)" />
<g stroke="hsl(247, 100%, 40%)"><line x1="603.1338577565377" x2="675.3020048367534" y1="644" y2="644" />
<line x1="603.1338577565377" x2="603.1338577565377" y1="638" y2="650" />
<line x1="675.3020048367534" x2="675.3020048367534" y1="638" y2="650" />
</g>
</g>
<g fill="hsl(270, 100%, 40%)">
<text y="682">takeLargestN.1_000</text>
<text y="682" x="636.0537340923032" text-anchor="end">3.806 s</text>
</g>
<g>
<title>3.806 s ± 233 ms</title>
<rect y="688" rx="5" height="22" width="636.0537340923032" fill="hsl(270, 100%, 80%)" stroke="hsl(270, 100%, 55%)" />
<g stroke="hsl(270, 100%, 40%)"><line x1="597.1504392247898" x2="674.9570289598166" y1="699" y2="699" />
<line x1="597.1504392247898" x2="597.1504392247898" y1="693" y2="705" />
<line x1="674.9570289598166" x2="674.9570289598166" y1="693" y2="705" />
</g>
</g>
<text fill="hsl(292, 100%, 40%)" y="737">displayPathSize.d=6 280  ms</text>
<g>
<title>280  ms ± 6.2 ms</title>
<rect y="743" rx="5" height="22" width="46.81013235282766" fill="hsl(292, 100%, 80%)" stroke="hsl(292, 100%, 55%)" />
<g stroke="hsl(292, 100%, 40%)"><line x1="45.77382195891724" x2="47.84644274673808" y1="754" y2="754" />
<line x1="45.77382195891724" x2="45.77382195891724" y1="748" y2="760" />
<line x1="47.84644274673808" x2="47.84644274673808" y1="748" y2="760" />
</g>
</g>
<text fill="hsl(315, 100%, 40%)" y="792">displayPathSize.d=8 1.214 s</text>
<g>
<title>1.214 s ±  75 ms</title>
<rect y="798" rx="5" height="22" width="202.90472704046527" fill="hsl(315, 100%, 80%)" stroke="hsl(315, 100%, 55%)" />
<g stroke="hsl(315, 100%, 40%)"><line x1="190.30359260808382" x2="215.50586147284673" y1="809" y2="809" />
<line x1="190.30359260808382" x2="190.30359260808382" y1="803" y2="815" />
<line x1="215.50586147284673" x2="215.50586147284673" y1="803" y2="815" />
</g>
</g>
<g fill="hsl(337, 100%, 40%)">
<text y="847">displayPathSize.d=10</text>
<text y="847" x="898.9043950973305" text-anchor="end">5.379 s</text>
</g>
<g>
<title>5.379 s ± 246 ms</title>
<rect y="853" rx="5" height="22" width="898.9043950973305" fill="hsl(337, 100%, 80%)" stroke="hsl(337, 100%, 55%)" />
<g stroke="hsl(337, 100%, 40%)"><line x1="857.808790194661" x2="940.0" y1="864" y2="864" />
<line x1="857.808790194661" x2="857.808790194661" y1="858" y2="870" />
<line x1="940.0" x2="940.0" y1="858" y2="870" />
</g>
</g>
</g>
</svg>
