<svg xmlns="http://www.w3.org/2000/svg" height="172" width="960.0" font-size="16" font-family="sans-serif" stroke-width="2">
<g transform="translate(10.0 0)">
<g fill="hsl(0, 100%, 40%)">
<text y="22">findLargestPaths.Sync</text>
<text y="22" x="423.7499212658018" text-anchor="end">2.071 s</text>
</g>
<g>
<title>2.071 s ±  36 ms</title>
<rect y="28" rx="5" height="22" width="423.7499212658018" fill="hsl(0, 100%, 80%)" stroke="hsl(0, 100%, 55%)" />
<g stroke="hsl(0, 100%, 40%)"><line x1="416.3863426135996" x2="431.113499918004" y1="39" y2="39" />
<line x1="416.3863426135996" x2="416.3863426135996" y1="33" y2="45" />
<line x1="431.113499918004" x2="431.113499918004" y1="33" y2="45" />
</g>
</g>
<g fill="hsl(120, 100%, 40%)">
<text y="77">takeLargest10.Sync</text>
<text y="77" x="418.99547502248896" text-anchor="end">2.048 s</text>
</g>
<g>
<title>2.048 s ±  43 ms</title>
<rect y="83" rx="5" height="22" width="418.99547502248896" fill="hsl(120, 100%, 80%)" stroke="hsl(120, 100%, 55%)" />
<g stroke="hsl(120, 100%, 40%)"><line x1="410.24721947450496" x2="427.74373057047296" y1="94" y2="94" />
<line x1="410.24721947450496" x2="410.24721947450496" y1="88" y2="100" />
<line x1="427.74373057047296" x2="427.74373057047296" y1="88" y2="100" />
</g>
</g>
<g fill="hsl(240, 100%, 40%)">
<text y="132">displayPathSize.Sync</text>
<text y="132" x="917.7919943179709" text-anchor="end">4.486 s</text>
</g>
<g>
<title>4.486 s ± 109 ms</title>
<rect y="138" rx="5" height="22" width="917.7919943179709" fill="hsl(240, 100%, 80%)" stroke="hsl(240, 100%, 55%)" />
<g stroke="hsl(240, 100%, 40%)"><line x1="895.5839886359418" x2="940.0" y1="149" y2="149" />
<line x1="895.5839886359418" x2="895.5839886359418" y1="143" y2="155" />
<line x1="940.0" x2="940.0" y1="143" y2="155" />
</g>
</g>
</g>
</svg>
