<svg xmlns="http://www.w3.org/2000/svg" height="172" width="960.0" font-size="16" font-family="sans-serif" stroke-width="2">
<g transform="translate(10.0 0)">
<g fill="hsl(0, 100%, 40%)">
<text y="22">findLargestPaths.Sync</text>
<text y="22" x="587.4300739055495" text-anchor="end">4.408 s</text>
</g>
<g>
<title>4.408 s ± 128 ms</title>
<rect y="28" rx="5" height="22" width="587.4300739055495" fill="hsl(0, 100%, 80%)" stroke="hsl(0, 100%, 55%)" />
<g stroke="hsl(0, 100%, 40%)"><line x1="570.4049290360331" x2="604.455218775066" y1="39" y2="39" />
<line x1="570.4049290360331" x2="570.4049290360331" y1="33" y2="45" />
<line x1="604.455218775066" x2="604.455218775066" y1="33" y2="45" />
</g>
</g>
<g fill="hsl(120, 100%, 40%)">
<text y="77">takeLargest10.Sync</text>
<text y="77" x="583.6394224941191" text-anchor="end">4.379 s</text>
</g>
<g>
<title>4.379 s ± 131 ms</title>
<rect y="83" rx="5" height="22" width="583.6394224941191" fill="hsl(120, 100%, 80%)" stroke="hsl(120, 100%, 55%)" />
<g stroke="hsl(120, 100%, 40%)"><line x1="566.1173450282361" x2="601.1614999600022" y1="94" y2="94" />
<line x1="566.1173450282361" x2="566.1173450282361" y1="88" y2="100" />
<line x1="601.1614999600022" x2="601.1614999600022" y1="88" y2="100" />
</g>
</g>
<g fill="hsl(240, 100%, 40%)">
<text y="132">displayPathSize.Sync</text>
<text y="132" x="924.9919227293148" text-anchor="end">6.940 s</text>
</g>
<g>
<title>6.940 s ± 113 ms</title>
<rect y="138" rx="5" height="22" width="924.9919227293148" fill="hsl(240, 100%, 80%)" stroke="hsl(240, 100%, 55%)" />
<g stroke="hsl(240, 100%, 40%)"><line x1="909.9838454586295" x2="940.0" y1="149" y2="149" />
<line x1="909.9838454586295" x2="909.9838454586295" y1="143" y2="155" />
<line x1="940.0" x2="940.0" y1="143" y2="155" />
</g>
</g>
</g>
</svg>
