<svg xmlns="http://www.w3.org/2000/svg" height="172" width="960.0" font-size="16" font-family="sans-serif" stroke-width="2">
<g transform="translate(10.0 0)">
<g fill="hsl(0, 100%, 40%)">
<text y="22">findLargestPaths.Sync</text>
<text y="22" x="492.3465107127723" text-anchor="end">3.405 s</text>
</g>
<g>
<title>3.405 s ± 333 ms</title>
<rect y="28" rx="5" height="22" width="492.3465107127723" fill="hsl(0, 100%, 80%)" stroke="hsl(0, 100%, 55%)" />
<g stroke="hsl(0, 100%, 40%)"><line x1="444.1553852980357" x2="540.5376361275088" y1="39" y2="39" />
<line x1="444.1553852980357" x2="444.1553852980357" y1="33" y2="45" />
<line x1="540.5376361275088" x2="540.5376361275088" y1="33" y2="45" />
</g>
</g>
<g fill="hsl(120, 100%, 40%)">
<text y="77">takeLargest10.Sync</text>
<text y="77" x="468.87831453591724" text-anchor="end">3.243 s</text>
</g>
<g>
<title>3.243 s ± 108 ms</title>
<rect y="83" rx="5" height="22" width="468.87831453591724" fill="hsl(120, 100%, 80%)" stroke="hsl(120, 100%, 55%)" />
<g stroke="hsl(120, 100%, 40%)"><line x1="453.3044602882331" x2="484.4521687836014" y1="94" y2="94" />
<line x1="453.3044602882331" x2="453.3044602882331" y1="88" y2="100" />
<line x1="484.4521687836014" x2="484.4521687836014" y1="88" y2="100" />
</g>
</g>
<g fill="hsl(240, 100%, 40%)">
<text y="132">displayPathSize.Sync</text>
<text y="132" x="876.9495003597752" text-anchor="end">6.066 s</text>
</g>
<g>
<title>6.066 s ± 436 ms</title>
<rect y="138" rx="5" height="22" width="876.9495003597752" fill="hsl(240, 100%, 80%)" stroke="hsl(240, 100%, 55%)" />
<g stroke="hsl(240, 100%, 40%)"><line x1="813.8990007195505" x2="940.0" y1="149" y2="149" />
<line x1="813.8990007195505" x2="813.8990007195505" y1="143" y2="155" />
<line x1="940.0" x2="940.0" y1="143" y2="155" />
</g>
</g>
</g>
</svg>
