<svg xmlns="http://www.w3.org/2000/svg" height="172" width="960.0" font-size="16" font-family="sans-serif" stroke-width="2">
<g transform="translate(10.0 0)">
<g fill="hsl(0, 100%, 40%)">
<text y="22">findLargestPaths.Sync</text>
<text y="22" x="559.6351119371371" text-anchor="end">1.969 s</text>
</g>
<g>
<title>1.969 s ±  92 ms</title>
<rect y="28" rx="5" height="22" width="559.6351119371371" fill="hsl(0, 100%, 80%)" stroke="hsl(0, 100%, 55%)" />
<g stroke="hsl(0, 100%, 40%)"><line x1="533.5129980021736" x2="585.7572258721007" y1="39" y2="39" />
<line x1="533.5129980021736" x2="533.5129980021736" y1="33" y2="45" />
<line x1="585.7572258721007" x2="585.7572258721007" y1="33" y2="45" />
</g>
</g>
<g fill="hsl(120, 100%, 40%)">
<text y="77">takeLargest10.Sync</text>
<text y="77" x="556.7376721370152" text-anchor="end">1.958 s</text>
</g>
<g>
<title>1.958 s ±  90 ms</title>
<rect y="83" rx="5" height="22" width="556.7376721370152" fill="hsl(120, 100%, 80%)" stroke="hsl(120, 100%, 55%)" />
<g stroke="hsl(120, 100%, 40%)"><line x1="531.2803556197726" x2="582.1949886542578" y1="94" y2="94" />
<line x1="531.2803556197726" x2="531.2803556197726" y1="88" y2="100" />
<line x1="582.1949886542578" x2="582.1949886542578" y1="88" y2="100" />
</g>
</g>
<g fill="hsl(240, 100%, 40%)">
<text y="132">displayPathSize.Sync</text>
<text y="132" x="891.452515332554" text-anchor="end">3.136 s</text>
</g>
<g>
<title>3.136 s ± 171 ms</title>
<rect y="138" rx="5" height="22" width="891.452515332554" fill="hsl(240, 100%, 80%)" stroke="hsl(240, 100%, 55%)" />
<g stroke="hsl(240, 100%, 40%)"><line x1="842.9050306651079" x2="940.0" y1="149" y2="149" />
<line x1="842.9050306651079" x2="842.9050306651079" y1="143" y2="155" />
<line x1="940.0" x2="940.0" y1="143" y2="155" />
</g>
</g>
</g>
</svg>
