<svg xmlns="http://www.w3.org/2000/svg" height="887" width="960.0" font-size="16" font-family="sans-serif" stroke-width="2">
<g transform="translate(10.0 0)">
<text fill="hsl(0, 100%, 40%)" y="22">findLargestPaths All.flat.100 - Sync 973  μs</text>
<g>
<title>973  μs ±  83 μs</title>
<rect y="28" rx="5" height="22" width="0.12234500591905371" fill="hsl(0, 100%, 80%)" stroke="hsl(0, 100%, 55%)" />
<g stroke="hsl(0, 100%, 40%)"><line x1="0.11197076982394742" x2="0.13271924201416" y1="39" y2="39" />
<line x1="0.11197076982394742" x2="0.11197076982394742" y1="33" y2="45" />
<line x1="0.13271924201416" x2="0.13271924201416" y1="33" y2="45" />
</g>
</g>
<text fill="hsl(22, 100%, 40%)" y="77">findLargestPaths All.flat.1_000 - Sync 12.9 ms</text>
<g>
<title>12.9 ms ± 561 μs</title>
<rect y="83" rx="5" height="22" width="1.624897533561018" fill="hsl(22, 100%, 80%)" stroke="hsl(22, 100%, 55%)" />
<g stroke="hsl(22, 100%, 40%)"><line x1="1.5543485819936727" x2="1.6954464851283635" y1="94" y2="94" />
<line x1="1.5543485819936727" x2="1.5543485819936727" y1="88" y2="100" />
<line x1="1.6954464851283635" x2="1.6954464851283635" y1="88" y2="100" />
</g>
</g>
<text fill="hsl(45, 100%, 40%)" y="132">findLargestPaths All.flat.10_000 - Sync 261  ms</text>
<g>
<title>261  ms ±  24 ms</title>
<rect y="138" rx="5" height="22" width="32.76421062770951" fill="hsl(45, 100%, 80%)" stroke="hsl(45, 100%, 55%)" />
<g stroke="hsl(45, 100%, 40%)"><line x1="29.782541355578502" x2="35.74587989984052" y1="149" y2="149" />
<line x1="29.782541355578502" x2="29.782541355578502" y1="143" y2="155" />
<line x1="35.74587989984052" x2="35.74587989984052" y1="143" y2="155" />
</g>
</g>
<text fill="hsl(67, 100%, 40%)" y="187">findLargestPaths All.sparse.d=6 - Sync 132  ms</text>
<g>
<title>132  ms ± 7.4 ms</title>
<rect y="193" rx="5" height="22" width="16.578737817189335" fill="hsl(67, 100%, 80%)" stroke="hsl(67, 100%, 55%)" />
<g stroke="hsl(67, 100%, 40%)"><line x1="15.65240160675136" x2="17.50507402762731" y1="204" y2="204" />
<line x1="15.65240160675136" x2="15.65240160675136" y1="198" y2="210" />
<line x1="17.50507402762731" x2="17.50507402762731" y1="198" y2="210" />
</g>
</g>
<text fill="hsl(90, 100%, 40%)" y="242">findLargestPaths All.sparse.d=8 - Sync 618  ms</text>
<g>
<title>618  ms ±  18 ms</title>
<rect y="248" rx="5" height="22" width="77.68727144977153" fill="hsl(90, 100%, 80%)" stroke="hsl(90, 100%, 55%)" />
<g stroke="hsl(90, 100%, 40%)"><line x1="75.4302671585246" x2="79.94427574101846" y1="259" y2="259" />
<line x1="75.4302671585246" x2="75.4302671585246" y1="253" y2="265" />
<line x1="79.94427574101846" x2="79.94427574101846" y1="253" y2="265" />
</g>
</g>
<text fill="hsl(112, 100%, 40%)" y="297">findLargestPaths All.sparse.d=10 - Sync 2.878 s</text>
<g>
<title>2.878 s ±  90 ms</title>
<rect y="303" rx="5" height="22" width="361.77680742758247" fill="hsl(112, 100%, 80%)" stroke="hsl(112, 100%, 55%)" />
<g stroke="hsl(112, 100%, 40%)"><line x1="350.49956634006725" x2="373.0540485150977" y1="314" y2="314" />
<line x1="350.49956634006725" x2="350.49956634006725" y1="308" y2="320" />
<line x1="373.0540485150977" x2="373.0540485150977" y1="308" y2="320" />
</g>
</g>
<text fill="hsl(135, 100%, 40%)" y="352">findLargestPaths All.dense.d=6 - Sync 247  ms</text>
<g>
<title>247  ms ± 4.2 ms</title>
<rect y="358" rx="5" height="22" width="31.02064724823327" fill="hsl(135, 100%, 80%)" stroke="hsl(135, 100%, 55%)" />
<g stroke="hsl(135, 100%, 40%)"><line x1="30.486632243645577" x2="31.554662252820965" y1="369" y2="369" />
<line x1="30.486632243645577" x2="30.486632243645577" y1="363" y2="375" />
<line x1="31.554662252820965" x2="31.554662252820965" y1="363" y2="375" />
</g>
</g>
<text fill="hsl(157, 100%, 40%)" y="407">findLargestPaths All.dense.d=8 - Sync 1.138 s</text>
<g>
<title>1.138 s ±  14 ms</title>
<rect y="413" rx="5" height="22" width="143.0419685013015" fill="hsl(157, 100%, 80%)" stroke="hsl(157, 100%, 55%)" />
<g stroke="hsl(157, 100%, 40%)"><line x1="141.30243749665712" x2="144.7814995059459" y1="424" y2="424" />
<line x1="141.30243749665712" x2="141.30243749665712" y1="418" y2="430" />
<line x1="144.7814995059459" x2="144.7814995059459" y1="418" y2="430" />
</g>
</g>
<g fill="hsl(180, 100%, 40%)">
<text y="462">findLargestPaths All.dense.d=10 - Sync</text>
<text y="462" x="638.7766232087204" text-anchor="end">5.082 s</text>
</g>
<g>
<title>5.082 s ± 229 ms</title>
<rect y="468" rx="5" height="22" width="638.7766232087204" fill="hsl(180, 100%, 80%)" stroke="hsl(180, 100%, 55%)" />
<g stroke="hsl(180, 100%, 40%)"><line x1="610.0060641509041" x2="667.5471822665367" y1="479" y2="479" />
<line x1="610.0060641509041" x2="610.0060641509041" y1="473" y2="485" />
<line x1="667.5471822665367" x2="667.5471822665367" y1="473" y2="485" />
</g>
</g>
<g fill="hsl(202, 100%, 40%)">
<text y="517">takeLargestN.1</text>
<text y="517" x="594.3757205177924" text-anchor="end">4.728 s</text>
</g>
<g>
<title>4.728 s ±  76 ms</title>
<rect y="523" rx="5" height="22" width="594.3757205177924" fill="hsl(202, 100%, 80%)" stroke="hsl(202, 100%, 55%)" />
<g stroke="hsl(202, 100%, 40%)"><line x1="584.7899733983223" x2="603.9614676372624" y1="534" y2="534" />
<line x1="584.7899733983223" x2="584.7899733983223" y1="528" y2="540" />
<line x1="603.9614676372624" x2="603.9614676372624" y1="528" y2="540" />
</g>
</g>
<g fill="hsl(225, 100%, 40%)">
<text y="572">takeLargestN.10</text>
<text y="572" x="617.0586370665237" text-anchor="end">4.909 s</text>
</g>
<g>
<title>4.909 s ± 222 ms</title>
<rect y="578" rx="5" height="22" width="617.0586370665237" fill="hsl(225, 100%, 80%)" stroke="hsl(225, 100%, 55%)" />
<g stroke="hsl(225, 100%, 40%)"><line x1="589.1134914688603" x2="645.0037826641872" y1="589" y2="589" />
<line x1="589.1134914688603" x2="589.1134914688603" y1="583" y2="595" />
<line x1="645.0037826641872" x2="645.0037826641872" y1="583" y2="595" />
</g>
</g>
<g fill="hsl(247, 100%, 40%)">
<text y="627">takeLargestN.100</text>
<text y="627" x="607.9571818900979" text-anchor="end">4.836 s</text>
</g>
<g>
<title>4.836 s ±  29 ms</title>
<rect y="633" rx="5" height="22" width="607.9571818900979" fill="hsl(247, 100%, 80%)" stroke="hsl(247, 100%, 55%)" />
<g stroke="hsl(247, 100%, 40%)"><line x1="604.2832283662473" x2="611.6311354139485" y1="644" y2="644" />
<line x1="604.2832283662473" x2="604.2832283662473" y1="638" y2="650" />
<line x1="611.6311354139485" x2="611.6311354139485" y1="638" y2="650" />
</g>
</g>
<g fill="hsl(270, 100%, 40%)">
<text y="682">takeLargestN.1_000</text>
<text y="682" x="611.785927533196" text-anchor="end">4.867 s</text>
</g>
<g>
<title>4.867 s ± 323 ms</title>
<rect y="688" rx="5" height="22" width="611.785927533196" fill="hsl(270, 100%, 80%)" stroke="hsl(270, 100%, 55%)" />
<g stroke="hsl(270, 100%, 40%)"><line x1="571.2330667141712" x2="652.3387883522207" y1="699" y2="699" />
<line x1="571.2330667141712" x2="571.2330667141712" y1="693" y2="705" />
<line x1="652.3387883522207" x2="652.3387883522207" y1="693" y2="705" />
</g>
</g>
<text fill="hsl(292, 100%, 40%)" y="737">displayPathSize.d=6 327  ms</text>
<g>
<title>327  ms ±  25 ms</title>
<rect y="743" rx="5" height="22" width="41.056622830474375" fill="hsl(292, 100%, 80%)" stroke="hsl(292, 100%, 55%)" />
<g stroke="hsl(292, 100%, 40%)"><line x1="37.867581971059145" x2="44.245663689889604" y1="754" y2="754" />
<line x1="37.867581971059145" x2="37.867581971059145" y1="748" y2="760" />
<line x1="44.245663689889604" x2="44.245663689889604" y1="748" y2="760" />
</g>
</g>
<text fill="hsl(315, 100%, 40%)" y="792">displayPathSize.d=8 1.435 s</text>
<g>
<title>1.435 s ±  31 ms</title>
<rect y="798" rx="5" height="22" width="180.43454560142774" fill="hsl(315, 100%, 80%)" stroke="hsl(315, 100%, 55%)" />
<g stroke="hsl(315, 100%, 40%)"><line x1="176.48604172040078" x2="184.3830494824547" y1="809" y2="809" />
<line x1="176.48604172040078" x2="176.48604172040078" y1="803" y2="815" />
<line x1="184.3830494824547" x2="184.3830494824547" y1="803" y2="815" />
</g>
</g>
<g fill="hsl(337, 100%, 40%)">
<text y="847">displayPathSize.d=10</text>
<text y="847" x="860.3427313453934" text-anchor="end">6.844 s</text>
</g>
<g>
<title>6.844 s ± 634 ms</title>
<rect y="853" rx="5" height="22" width="860.3427313453934" fill="hsl(337, 100%, 80%)" stroke="hsl(337, 100%, 55%)" />
<g stroke="hsl(337, 100%, 40%)"><line x1="780.6854626907868" x2="940.0" y1="864" y2="864" />
<line x1="780.6854626907868" x2="780.6854626907868" y1="858" y2="870" />
<line x1="940.0" x2="940.0" y1="858" y2="870" />
</g>
</g>
</g>
</svg>
