<svg xmlns="http://www.w3.org/2000/svg" height="887" width="960.0" font-size="16" font-family="sans-serif" stroke-width="2">
<g transform="translate(10.0 0)">
<text fill="hsl(0, 100%, 40%)" y="22">findLargestPaths All.flat.100 - Sync 895  μs</text>
<g>
<title>895  μs ±  85 μs</title>
<rect y="28" rx="5" height="22" width="0.13713438283363644" fill="hsl(0, 100%, 80%)" stroke="hsl(0, 100%, 55%)" />
<g stroke="hsl(0, 100%, 40%)"><line x1="0.12405961600310389" x2="0.15020914966416898" y1="39" y2="39" />
<line x1="0.12405961600310389" x2="0.12405961600310389" y1="33" y2="45" />
<line x1="0.15020914966416898" x2="0.15020914966416898" y1="33" y2="45" />
</g>
</g>
<text fill="hsl(22, 100%, 40%)" y="77">findLargestPaths All.flat.1,000 - Sync 11.8 ms</text>
<g>
<title>11.8 ms ± 748 μs</title>
<rect y="83" rx="5" height="22" width="1.8101201290877416" fill="hsl(22, 100%, 80%)" stroke="hsl(22, 100%, 55%)" />
<g stroke="hsl(22, 100%, 40%)"><line x1="1.695400809038464" x2="1.924839449137019" y1="94" y2="94" />
<line x1="1.695400809038464" x2="1.695400809038464" y1="88" y2="100" />
<line x1="1.924839449137019" x2="1.924839449137019" y1="88" y2="100" />
</g>
</g>
<text fill="hsl(45, 100%, 40%)" y="132">findLargestPaths All.flat.10,000 - Sync 220  ms</text>
<g>
<title>220  ms ±  18 ms</title>
<rect y="138" rx="5" height="22" width="33.78415614761214" fill="hsl(45, 100%, 80%)" stroke="hsl(45, 100%, 55%)" />
<g stroke="hsl(45, 100%, 40%)"><line x1="30.996501687951103" x2="36.57181060727317" y1="149" y2="149" />
<line x1="30.996501687951103" x2="30.996501687951103" y1="143" y2="155" />
<line x1="36.57181060727317" x2="36.57181060727317" y1="143" y2="155" />
</g>
</g>
<text fill="hsl(67, 100%, 40%)" y="187">findLargestPaths All.sparse.d=6 - Sync 117  ms</text>
<g>
<title>117  ms ± 3.7 ms</title>
<rect y="193" rx="5" height="22" width="17.897091807233085" fill="hsl(67, 100%, 80%)" stroke="hsl(67, 100%, 55%)" />
<g stroke="hsl(67, 100%, 40%)"><line x1="17.32754984965054" x2="18.46663376481563" y1="204" y2="204" />
<line x1="17.32754984965054" x2="17.32754984965054" y1="198" y2="210" />
<line x1="18.46663376481563" x2="18.46663376481563" y1="198" y2="210" />
</g>
</g>
<text fill="hsl(90, 100%, 40%)" y="242">findLargestPaths All.sparse.d=8 - Sync 543  ms</text>
<g>
<title>543  ms ±  37 ms</title>
<rect y="248" rx="5" height="22" width="83.24175848445785" fill="hsl(90, 100%, 80%)" stroke="hsl(90, 100%, 55%)" />
<g stroke="hsl(90, 100%, 40%)"><line x1="77.5759518526122" x2="88.90756511630349" y1="259" y2="259" />
<line x1="77.5759518526122" x2="77.5759518526122" y1="253" y2="265" />
<line x1="88.90756511630349" x2="88.90756511630349" y1="253" y2="265" />
</g>
</g>
<text fill="hsl(112, 100%, 40%)" y="297">findLargestPaths All.sparse.d=10 - Sync 2.331 s</text>
<g>
<title>2.331 s ±  90 ms</title>
<rect y="303" rx="5" height="22" width="357.23348141797925" fill="hsl(112, 100%, 80%)" stroke="hsl(112, 100%, 55%)" />
<g stroke="hsl(112, 100%, 40%)"><line x1="343.41634800502334" x2="371.05061483093516" y1="314" y2="314" />
<line x1="343.41634800502334" x2="343.41634800502334" y1="308" y2="320" />
<line x1="371.05061483093516" x2="371.05061483093516" y1="308" y2="320" />
</g>
</g>
<text fill="hsl(135, 100%, 40%)" y="352">findLargestPaths All.dense.d=6 - Sync 230  ms</text>
<g>
<title>230  ms ± 2.2 ms</title>
<rect y="358" rx="5" height="22" width="35.26852030289248" fill="hsl(135, 100%, 80%)" stroke="hsl(135, 100%, 55%)" />
<g stroke="hsl(135, 100%, 40%)"><line x1="34.931597635377386" x2="35.60544297040758" y1="369" y2="369" />
<line x1="34.931597635377386" x2="34.931597635377386" y1="363" y2="375" />
<line x1="35.60544297040758" x2="35.60544297040758" y1="363" y2="375" />
</g>
</g>
<text fill="hsl(157, 100%, 40%)" y="407">findLargestPaths All.dense.d=8 - Sync 1.031 s</text>
<g>
<title>1.031 s ±  27 ms</title>
<rect y="413" rx="5" height="22" width="158.02473603399483" fill="hsl(157, 100%, 80%)" stroke="hsl(157, 100%, 55%)" />
<g stroke="hsl(157, 100%, 40%)"><line x1="153.8390763141756" x2="162.21039575381405" y1="424" y2="424" />
<line x1="153.8390763141756" x2="153.8390763141756" y1="418" y2="430" />
<line x1="162.21039575381405" x2="162.21039575381405" y1="418" y2="430" />
</g>
</g>
<g fill="hsl(180, 100%, 40%)">
<text y="462">findLargestPaths All.dense.d=10 - Sync</text>
<text y="462" x="710.3356748093366" text-anchor="end">4.634 s</text>
</g>
<g>
<title>4.634 s ± 343 ms</title>
<rect y="468" rx="5" height="22" width="710.3356748093366" fill="hsl(180, 100%, 80%)" stroke="hsl(180, 100%, 55%)" />
<g stroke="hsl(180, 100%, 40%)"><line x1="657.697257484881" x2="762.9740921337923" y1="479" y2="479" />
<line x1="657.697257484881" x2="657.697257484881" y1="473" y2="485" />
<line x1="762.9740921337923" x2="762.9740921337923" y1="473" y2="485" />
</g>
</g>
<g fill="hsl(202, 100%, 40%)">
<text y="517">takeLargestN.1</text>
<text y="517" x="697.8029260911844" text-anchor="end">4.552 s</text>
</g>
<g>
<title>4.552 s ± 5.5 ms</title>
<rect y="523" rx="5" height="22" width="697.8029260911844" fill="hsl(202, 100%, 80%)" stroke="hsl(202, 100%, 55%)" />
<g stroke="hsl(202, 100%, 40%)"><line x1="696.9557010682319" x2="698.650151114137" y1="534" y2="534" />
<line x1="696.9557010682319" x2="696.9557010682319" y1="528" y2="540" />
<line x1="698.650151114137" x2="698.650151114137" y1="528" y2="540" />
</g>
</g>
<g fill="hsl(225, 100%, 40%)">
<text y="572">takeLargestN.10</text>
<text y="572" x="684.4571330372052" text-anchor="end">4.465 s</text>
</g>
<g>
<title>4.465 s ± 260 ms</title>
<rect y="578" rx="5" height="22" width="684.4571330372052" fill="hsl(225, 100%, 80%)" stroke="hsl(225, 100%, 55%)" />
<g stroke="hsl(225, 100%, 40%)"><line x1="644.6578267346267" x2="724.2564393397836" y1="589" y2="589" />
<line x1="644.6578267346267" x2="644.6578267346267" y1="583" y2="595" />
<line x1="724.2564393397836" x2="724.2564393397836" y1="583" y2="595" />
</g>
</g>
<g fill="hsl(247, 100%, 40%)">
<text y="627">takeLargestN.100</text>
<text y="627" x="679.3756848770107" text-anchor="end">4.432 s</text>
</g>
<g>
<title>4.432 s ±  35 ms</title>
<rect y="633" rx="5" height="22" width="679.3756848770107" fill="hsl(247, 100%, 80%)" stroke="hsl(247, 100%, 55%)" />
<g stroke="hsl(247, 100%, 40%)"><line x1="674.0477880112318" x2="684.7035817427897" y1="644" y2="644" />
<line x1="674.0477880112318" x2="674.0477880112318" y1="638" y2="650" />
<line x1="684.7035817427897" x2="684.7035817427897" y1="638" y2="650" />
</g>
</g>
<g fill="hsl(270, 100%, 40%)">
<text y="682">takeLargestN.1,000</text>
<text y="682" x="701.5150954753987" text-anchor="end">4.577 s</text>
</g>
<g>
<title>4.577 s ± 441 ms</title>
<rect y="688" rx="5" height="22" width="701.5150954753987" fill="hsl(270, 100%, 80%)" stroke="hsl(270, 100%, 55%)" />
<g stroke="hsl(270, 100%, 40%)"><line x1="633.8647720316445" x2="769.1654189191528" y1="699" y2="699" />
<line x1="633.8647720316445" x2="633.8647720316445" y1="693" y2="705" />
<line x1="769.1654189191528" x2="769.1654189191528" y1="693" y2="705" />
</g>
</g>
<text fill="hsl(292, 100%, 40%)" y="737">displayPathSize.d=6 325  ms</text>
<g>
<title>325  ms ±  13 ms</title>
<rect y="743" rx="5" height="22" width="49.85295275927971" fill="hsl(292, 100%, 80%)" stroke="hsl(292, 100%, 55%)" />
<g stroke="hsl(292, 100%, 40%)"><line x1="47.907601541546114" x2="51.798303977013305" y1="754" y2="754" />
<line x1="47.907601541546114" x2="47.907601541546114" y1="748" y2="760" />
<line x1="51.798303977013305" x2="51.798303977013305" y1="748" y2="760" />
</g>
</g>
<text fill="hsl(315, 100%, 40%)" y="792">displayPathSize.d=8 1.368 s</text>
<g>
<title>1.368 s ±  26 ms</title>
<rect y="798" rx="5" height="22" width="209.71465115421205" fill="hsl(315, 100%, 80%)" stroke="hsl(315, 100%, 55%)" />
<g stroke="hsl(315, 100%, 40%)"><line x1="205.65928154350274" x2="213.77002076492136" y1="809" y2="809" />
<line x1="205.65928154350274" x2="205.65928154350274" y1="803" y2="815" />
<line x1="213.77002076492136" x2="213.77002076492136" y1="803" y2="815" />
</g>
</g>
<g fill="hsl(337, 100%, 40%)">
<text y="847">displayPathSize.d=10</text>
<text y="847" x="936.4231125369848" text-anchor="end">6.109 s</text>
</g>
<g>
<title>6.109 s ±  23 ms</title>
<rect y="853" rx="5" height="22" width="936.4231125369848" fill="hsl(337, 100%, 80%)" stroke="hsl(337, 100%, 55%)" />
<g stroke="hsl(337, 100%, 40%)"><line x1="932.8462250739697" x2="940.0" y1="864" y2="864" />
<line x1="932.8462250739697" x2="932.8462250739697" y1="858" y2="870" />
<line x1="940.0" x2="940.0" y1="858" y2="870" />
</g>
</g>
</g>
</svg>
