<svg xmlns="http://www.w3.org/2000/svg" height="172" width="960.0" font-size="16" font-family="sans-serif" stroke-width="2">
<g transform="translate(10.0 0)">
<g fill="hsl(0, 100%, 40%)">
<text y="22">findLargestPaths.Sync</text>
<text y="22" x="398.86664303252314" text-anchor="end">2.076 s</text>
</g>
<g>
<title>2.076 s ±  15 ms</title>
<rect y="28" rx="5" height="22" width="398.86664303252314" fill="hsl(0, 100%, 80%)" stroke="hsl(0, 100%, 55%)" />
<g stroke="hsl(0, 100%, 40%)"><line x1="395.96327158368825" x2="401.77001448135803" y1="39" y2="39" />
<line x1="395.96327158368825" x2="395.96327158368825" y1="33" y2="45" />
<line x1="401.77001448135803" x2="401.77001448135803" y1="33" y2="45" />
</g>
</g>
<g fill="hsl(120, 100%, 40%)">
<text y="77">takeLargest10.Sync</text>
<text y="77" x="398.8181134613055" text-anchor="end">2.075 s</text>
</g>
<g>
<title>2.075 s ± 149 ms</title>
<rect y="83" rx="5" height="22" width="398.8181134613055" fill="hsl(120, 100%, 80%)" stroke="hsl(120, 100%, 55%)" />
<g stroke="hsl(120, 100%, 40%)"><line x1="370.11296826832876" x2="427.5232586542822" y1="94" y2="94" />
<line x1="370.11296826832876" x2="370.11296826832876" y1="88" y2="100" />
<line x1="427.5232586542822" x2="427.5232586542822" y1="88" y2="100" />
</g>
</g>
<g fill="hsl(240, 100%, 40%)">
<text y="132">displayPathSize.Sync</text>
<text y="132" x="878.5402711432317" text-anchor="end">4.572 s</text>
</g>
<g>
<title>4.572 s ± 320 ms</title>
<rect y="138" rx="5" height="22" width="878.5402711432317" fill="hsl(240, 100%, 80%)" stroke="hsl(240, 100%, 55%)" />
<g stroke="hsl(240, 100%, 40%)"><line x1="817.0805422864635" x2="940.0" y1="149" y2="149" />
<line x1="817.0805422864635" x2="817.0805422864635" y1="143" y2="155" />
<line x1="940.0" x2="940.0" y1="143" y2="155" />
</g>
</g>
</g>
</svg>
