<svg xmlns="http://www.w3.org/2000/svg" height="172" width="960.0" font-size="16" font-family="sans-serif" stroke-width="2">
<g transform="translate(10.0 0)">
<g fill="hsl(0, 100%, 40%)">
<text y="22">findLargestPaths.Sync</text>
<text y="22" x="569.2524864190199" text-anchor="end">3.940 s</text>
</g>
<g>
<title>3.940 s ± 9.7 ms</title>
<rect y="28" rx="5" height="22" width="569.2524864190199" fill="hsl(0, 100%, 80%)" stroke="hsl(0, 100%, 55%)" />
<g stroke="hsl(0, 100%, 40%)"><line x1="567.8475014301542" x2="570.6574714078855" y1="39" y2="39" />
<line x1="567.8475014301542" x2="567.8475014301542" y1="33" y2="45" />
<line x1="570.6574714078855" x2="570.6574714078855" y1="33" y2="45" />
</g>
</g>
<g fill="hsl(120, 100%, 40%)">
<text y="77">takeLargest10.Sync</text>
<text y="77" x="564.6378606851631" text-anchor="end">3.908 s</text>
</g>
<g>
<title>3.908 s ±  55 ms</title>
<rect y="83" rx="5" height="22" width="564.6378606851631" fill="hsl(120, 100%, 80%)" stroke="hsl(120, 100%, 55%)" />
<g stroke="hsl(120, 100%, 40%)"><line x1="556.7108737171501" x2="572.5648476531761" y1="94" y2="94" />
<line x1="556.7108737171501" x2="556.7108737171501" y1="88" y2="100" />
<line x1="572.5648476531761" x2="572.5648476531761" y1="88" y2="100" />
</g>
</g>
<g fill="hsl(240, 100%, 40%)">
<text y="132">displayPathSize.Sync</text>
<text y="132" x="935.2822900446811" text-anchor="end">6.474 s</text>
</g>
<g>
<title>6.474 s ±  33 ms</title>
<rect y="138" rx="5" height="22" width="935.2822900446811" fill="hsl(240, 100%, 80%)" stroke="hsl(240, 100%, 55%)" />
<g stroke="hsl(240, 100%, 40%)"><line x1="930.5645800893622" x2="940.0" y1="149" y2="149" />
<line x1="930.5645800893622" x2="930.5645800893622" y1="143" y2="155" />
<line x1="940.0" x2="940.0" y1="143" y2="155" />
</g>
</g>
</g>
</svg>
