<svg xmlns="http://www.w3.org/2000/svg" height="172" width="960.0" font-size="16" font-family="sans-serif" stroke-width="2">
<g transform="translate(10.0 0)">
<g fill="hsl(0, 100%, 40%)">
<text y="22">findLargestPaths.Sync</text>
<text y="22" x="426.12059220754736" text-anchor="end">2.118 s</text>
</g>
<g>
<title>2.118 s ± 174 ms</title>
<rect y="28" rx="5" height="22" width="426.12059220754736" fill="hsl(0, 100%, 80%)" stroke="hsl(0, 100%, 55%)" />
<g stroke="hsl(0, 100%, 40%)"><line x1="391.0307380584083" x2="461.2104463566864" y1="39" y2="39" />
<line x1="391.0307380584083" x2="391.0307380584083" y1="33" y2="45" />
<line x1="461.2104463566864" x2="461.2104463566864" y1="33" y2="45" />
</g>
</g>
<g fill="hsl(120, 100%, 40%)">
<text y="77">takeLargest10.Sync</text>
<text y="77" x="415.0133102171488" text-anchor="end">2.063 s</text>
</g>
<g>
<title>2.063 s ±  96 ms</title>
<rect y="83" rx="5" height="22" width="415.0133102171488" fill="hsl(120, 100%, 80%)" stroke="hsl(120, 100%, 55%)" />
<g stroke="hsl(120, 100%, 40%)"><line x1="395.7634326782645" x2="434.26318775603306" y1="94" y2="94" />
<line x1="395.7634326782645" x2="395.7634326782645" y1="88" y2="100" />
<line x1="434.26318775603306" x2="434.26318775603306" y1="88" y2="100" />
</g>
</g>
<g fill="hsl(240, 100%, 40%)">
<text y="132">displayPathSize.Sync</text>
<text y="132" x="914.6367167348869" text-anchor="end">4.547 s</text>
</g>
<g>
<title>4.547 s ± 126 ms</title>
<rect y="138" rx="5" height="22" width="914.6367167348869" fill="hsl(240, 100%, 80%)" stroke="hsl(240, 100%, 55%)" />
<g stroke="hsl(240, 100%, 40%)"><line x1="889.2734334697739" x2="940.0" y1="149" y2="149" />
<line x1="889.2734334697739" x2="889.2734334697739" y1="143" y2="155" />
<line x1="940.0" x2="940.0" y1="143" y2="155" />
</g>
</g>
</g>
</svg>
