<svg xmlns="http://www.w3.org/2000/svg" height="172" width="960.0" font-size="16" font-family="sans-serif" stroke-width="2">
<g transform="translate(10.0 0)">
<g fill="hsl(0, 100%, 40%)">
<text y="22">findLargestPaths.Sync</text>
<text y="22" x="526.3422809255266" text-anchor="end">1.972 s</text>
</g>
<g>
<title>1.972 s ± 140 ms</title>
<rect y="28" rx="5" height="22" width="526.3422809255266" fill="hsl(0, 100%, 80%)" stroke="hsl(0, 100%, 55%)" />
<g stroke="hsl(0, 100%, 40%)"><line x1="489.0119184096178" x2="563.6726434414353" y1="39" y2="39" />
<line x1="489.0119184096178" x2="489.0119184096178" y1="33" y2="45" />
<line x1="563.6726434414353" x2="563.6726434414353" y1="33" y2="45" />
</g>
</g>
<g fill="hsl(120, 100%, 40%)">
<text y="77">takeLargest10.Sync</text>
<text y="77" x="525.4781112206159" text-anchor="end">1.969 s</text>
</g>
<g>
<title>1.969 s ±  77 ms</title>
<rect y="83" rx="5" height="22" width="525.4781112206159" fill="hsl(120, 100%, 80%)" stroke="hsl(120, 100%, 55%)" />
<g stroke="hsl(120, 100%, 40%)"><line x1="504.79936809786983" x2="546.1568543433619" y1="94" y2="94" />
<line x1="504.79936809786983" x2="504.79936809786983" y1="88" y2="100" />
<line x1="546.1568543433619" x2="546.1568543433619" y1="88" y2="100" />
</g>
</g>
<g fill="hsl(240, 100%, 40%)">
<text y="132">displayPathSize.Sync</text>
<text y="132" x="937.4841380010148" text-anchor="end">3.513 s</text>
</g>
<g>
<title>3.513 s ± 9.4 ms</title>
<rect y="138" rx="5" height="22" width="937.4841380010148" fill="hsl(240, 100%, 80%)" stroke="hsl(240, 100%, 55%)" />
<g stroke="hsl(240, 100%, 40%)"><line x1="934.9682760020296" x2="940.0" y1="149" y2="149" />
<line x1="934.9682760020296" x2="934.9682760020296" y1="143" y2="155" />
<line x1="940.0" x2="940.0" y1="143" y2="155" />
</g>
</g>
</g>
</svg>
