<svg xmlns="http://www.w3.org/2000/svg" height="172" width="960.0" font-size="16" font-family="sans-serif" stroke-width="2">
<g transform="translate(10.0 0)">
<g fill="hsl(0, 100%, 40%)">
<text y="22">findLargestPaths.Sync</text>
<text y="22" x="458.24783926829684" text-anchor="end">5.700 s</text>
</g>
<g>
<title>5.700 s ± 375 ms</title>
<rect y="28" rx="5" height="22" width="458.24783926829684" fill="hsl(0, 100%, 80%)" stroke="hsl(0, 100%, 55%)" />
<g stroke="hsl(0, 100%, 40%)"><line x1="428.0943188033484" x2="488.4013597332453" y1="39" y2="39" />
<line x1="428.0943188033484" x2="428.0943188033484" y1="33" y2="45" />
<line x1="488.4013597332453" x2="488.4013597332453" y1="33" y2="45" />
</g>
</g>
<g fill="hsl(120, 100%, 40%)">
<text y="77">takeLargest10.Sync</text>
<text y="77" x="468.798696702919" text-anchor="end">5.831 s</text>
</g>
<g>
<title>5.831 s ± 196 ms</title>
<rect y="83" rx="5" height="22" width="468.798696702919" fill="hsl(120, 100%, 80%)" stroke="hsl(120, 100%, 55%)" />
<g stroke="hsl(120, 100%, 40%)"><line x1="453.0169426703986" x2="484.58045073543946" y1="94" y2="94" />
<line x1="453.0169426703986" x2="453.0169426703986" y1="88" y2="100" />
<line x1="484.58045073543946" x2="484.58045073543946" y1="88" y2="100" />
</g>
</g>
<g fill="hsl(240, 100%, 40%)">
<text y="132">displayPathSize.Sync</text>
<text y="132" x="868.7561355023944" text-anchor="end">10.806 s</text>
</g>
<g>
<title>10.806 s ± 886 ms</title>
<rect y="138" rx="5" height="22" width="868.7561355023944" fill="hsl(240, 100%, 80%)" stroke="hsl(240, 100%, 55%)" />
<g stroke="hsl(240, 100%, 40%)"><line x1="797.5122710047888" x2="940.0" y1="149" y2="149" />
<line x1="797.5122710047888" x2="797.5122710047888" y1="143" y2="155" />
<line x1="940.0" x2="940.0" y1="143" y2="155" />
</g>
</g>
</g>
</svg>
