<svg xmlns="http://www.w3.org/2000/svg" height="887" width="960.0" font-size="16" font-family="sans-serif" stroke-width="2">
<g transform="translate(10.0 0)">
<text fill="hsl(0, 100%, 40%)" y="22">findLargestPaths All.flat.100 - Sync 3.07 ms</text>
<g>
<title>3.07 ms ± 270 μs</title>
<rect y="28" rx="5" height="22" width="0.21151277356414888" fill="hsl(0, 100%, 80%)" stroke="hsl(0, 100%, 55%)" />
<g stroke="hsl(0, 100%, 40%)"><line x1="0.19290453557228282" x2="0.23012101155601494" y1="39" y2="39" />
<line x1="0.19290453557228282" x2="0.19290453557228282" y1="33" y2="45" />
<line x1="0.23012101155601494" x2="0.23012101155601494" y1="33" y2="45" />
</g>
</g>
<text fill="hsl(22, 100%, 40%)" y="77">findLargestPaths All.flat.1,000 - Sync 44.4 ms</text>
<g>
<title>44.4 ms ± 2.0 ms</title>
<rect y="83" rx="5" height="22" width="3.0576869384199217" fill="hsl(22, 100%, 80%)" stroke="hsl(22, 100%, 55%)" />
<g stroke="hsl(22, 100%, 40%)"><line x1="2.9167358328892004" x2="3.198638043950643" y1="94" y2="94" />
<line x1="2.9167358328892004" x2="2.9167358328892004" y1="88" y2="100" />
<line x1="3.198638043950643" x2="3.198638043950643" y1="88" y2="100" />
</g>
</g>
<text fill="hsl(45, 100%, 40%)" y="132">findLargestPaths All.flat.10,000 - Sync 672  ms</text>
<g>
<title>672  ms ±  35 ms</title>
<rect y="138" rx="5" height="22" width="46.23553254871568" fill="hsl(45, 100%, 80%)" stroke="hsl(45, 100%, 55%)" />
<g stroke="hsl(45, 100%, 40%)"><line x1="43.813804107722135" x2="48.65726098970923" y1="149" y2="149" />
<line x1="43.813804107722135" x2="43.813804107722135" y1="143" y2="155" />
<line x1="48.65726098970923" x2="48.65726098970923" y1="143" y2="155" />
</g>
</g>
<text fill="hsl(67, 100%, 40%)" y="187">findLargestPaths All.sparse.d=6 - Sync 331  ms</text>
<g>
<title>331  ms ±  30 ms</title>
<rect y="193" rx="5" height="22" width="22.762870073221144" fill="hsl(67, 100%, 80%)" stroke="hsl(67, 100%, 55%)" />
<g stroke="hsl(67, 100%, 40%)"><line x1="20.677424433533563" x2="24.848315712908725" y1="204" y2="204" />
<line x1="20.677424433533563" x2="20.677424433533563" y1="198" y2="210" />
<line x1="24.848315712908725" x2="24.848315712908725" y1="198" y2="210" />
</g>
</g>
<text fill="hsl(90, 100%, 40%)" y="242">findLargestPaths All.sparse.d=8 - Sync 1.384 s</text>
<g>
<title>1.384 s ±  74 ms</title>
<rect y="248" rx="5" height="22" width="95.18620059629554" fill="hsl(90, 100%, 80%)" stroke="hsl(90, 100%, 55%)" />
<g stroke="hsl(90, 100%, 40%)"><line x1="90.06245676818253" x2="100.30994442440854" y1="259" y2="259" />
<line x1="90.06245676818253" x2="90.06245676818253" y1="253" y2="265" />
<line x1="100.30994442440854" x2="100.30994442440854" y1="253" y2="265" />
</g>
</g>
<g fill="hsl(112, 100%, 40%)">
<text y="297">findLargestPaths All.sparse.d=10 - Sync</text>
<text y="297" x="406.80613255545745" text-anchor="end">5.913 s</text>
</g>
<g>
<title>5.913 s ±  86 ms</title>
<rect y="303" rx="5" height="22" width="406.80613255545745" fill="hsl(112, 100%, 80%)" stroke="hsl(112, 100%, 55%)" />
<g stroke="hsl(112, 100%, 40%)"><line x1="400.9203912826628" x2="412.6918738282521" y1="314" y2="314" />
<line x1="400.9203912826628" x2="400.9203912826628" y1="308" y2="320" />
<line x1="412.6918738282521" x2="412.6918738282521" y1="308" y2="320" />
</g>
</g>
<text fill="hsl(135, 100%, 40%)" y="352">findLargestPaths All.dense.d=6 - Sync 705  ms</text>
<g>
<title>705  ms ±  37 ms</title>
<rect y="358" rx="5" height="22" width="48.47215739791014" fill="hsl(135, 100%, 80%)" stroke="hsl(135, 100%, 55%)" />
<g stroke="hsl(135, 100%, 40%)"><line x1="45.94517520913023" x2="50.99913958669005" y1="369" y2="369" />
<line x1="45.94517520913023" x2="45.94517520913023" y1="363" y2="375" />
<line x1="50.99913958669005" x2="50.99913958669005" y1="363" y2="375" />
</g>
</g>
<text fill="hsl(157, 100%, 40%)" y="407">findLargestPaths All.dense.d=8 - Sync 2.848 s</text>
<g>
<title>2.848 s ± 243 ms</title>
<rect y="413" rx="5" height="22" width="195.96537021421508" fill="hsl(157, 100%, 80%)" stroke="hsl(157, 100%, 55%)" />
<g stroke="hsl(157, 100%, 40%)"><line x1="179.25713000000815" x2="212.67361042842202" y1="424" y2="424" />
<line x1="179.25713000000815" x2="179.25713000000815" y1="418" y2="430" />
<line x1="212.67361042842202" x2="212.67361042842202" y1="418" y2="430" />
</g>
</g>
<g fill="hsl(180, 100%, 40%)">
<text y="462">findLargestPaths All.dense.d=10 - Sync</text>
<text y="462" x="835.580381927446" text-anchor="end">12.146 s</text>
</g>
<g>
<title>12.146 s ± 684 ms</title>
<rect y="468" rx="5" height="22" width="835.580381927446" fill="hsl(180, 100%, 80%)" stroke="hsl(180, 100%, 55%)" />
<g stroke="hsl(180, 100%, 40%)"><line x1="788.5084199412489" x2="882.652343913643" y1="479" y2="479" />
<line x1="788.5084199412489" x2="788.5084199412489" y1="473" y2="485" />
<line x1="882.652343913643" x2="882.652343913643" y1="473" y2="485" />
</g>
</g>
<g fill="hsl(202, 100%, 40%)">
<text y="517">takeLargestN.1</text>
<text y="517" x="788.284006527587" text-anchor="end">11.458 s</text>
</g>
<g>
<title>11.458 s ± 1.10 s</title>
<rect y="523" rx="5" height="22" width="788.284006527587" fill="hsl(202, 100%, 80%)" stroke="hsl(202, 100%, 55%)" />
<g stroke="hsl(202, 100%, 40%)"><line x1="712.9039552313212" x2="863.6640578238529" y1="534" y2="534" />
<line x1="712.9039552313212" x2="712.9039552313212" y1="528" y2="540" />
<line x1="863.6640578238529" x2="863.6640578238529" y1="528" y2="540" />
</g>
</g>
<g fill="hsl(225, 100%, 40%)">
<text y="572">takeLargestN.10</text>
<text y="572" x="806.6331500663055" text-anchor="end">11.725 s</text>
</g>
<g>
<title>11.725 s ±  29 ms</title>
<rect y="578" rx="5" height="22" width="806.6331500663055" fill="hsl(225, 100%, 80%)" stroke="hsl(225, 100%, 55%)" />
<g stroke="hsl(225, 100%, 40%)"><line x1="804.6386207741934" x2="808.6276793584175" y1="589" y2="589" />
<line x1="804.6386207741934" x2="804.6386207741934" y1="583" y2="595" />
<line x1="808.6276793584175" x2="808.6276793584175" y1="583" y2="595" />
</g>
</g>
<g fill="hsl(247, 100%, 40%)">
<text y="627">takeLargestN.100</text>
<text y="627" x="734.8441966747555" text-anchor="end">10.681 s</text>
</g>
<g>
<title>10.681 s ± 806 ms</title>
<rect y="633" rx="5" height="22" width="734.8441966747555" fill="hsl(247, 100%, 80%)" stroke="hsl(247, 100%, 55%)" />
<g stroke="hsl(247, 100%, 40%)"><line x1="679.417714611111" x2="790.2706787384" y1="644" y2="644" />
<line x1="679.417714611111" x2="679.417714611111" y1="638" y2="650" />
<line x1="790.2706787384" x2="790.2706787384" y1="638" y2="650" />
</g>
</g>
<g fill="hsl(270, 100%, 40%)">
<text y="682">takeLargestN.1,000</text>
<text y="682" x="755.7282963708933" text-anchor="end">10.985 s</text>
</g>
<g>
<title>10.985 s ± 825 ms</title>
<rect y="688" rx="5" height="22" width="755.7282963708933" fill="hsl(270, 100%, 80%)" stroke="hsl(270, 100%, 55%)" />
<g stroke="hsl(270, 100%, 40%)"><line x1="698.9511142832268" x2="812.5054784585598" y1="699" y2="699" />
<line x1="698.9511142832268" x2="698.9511142832268" y1="693" y2="705" />
<line x1="812.5054784585598" x2="812.5054784585598" y1="693" y2="705" />
</g>
</g>
<text fill="hsl(292, 100%, 40%)" y="737">displayPathSize.d=6 744  ms</text>
<g>
<title>744  ms ±  54 ms</title>
<rect y="743" rx="5" height="22" width="51.17928492604344" fill="hsl(292, 100%, 80%)" stroke="hsl(292, 100%, 55%)" />
<g stroke="hsl(292, 100%, 40%)"><line x1="47.459006447123826" x2="54.89956340496305" y1="754" y2="754" />
<line x1="47.459006447123826" x2="47.459006447123826" y1="748" y2="760" />
<line x1="54.89956340496305" x2="54.89956340496305" y1="748" y2="760" />
</g>
</g>
<g fill="hsl(315, 100%, 40%)">
<text y="792">displayPathSize.d=8</text>
<text y="792" x="220.77825327574143" text-anchor="end">3.209 s</text>
</g>
<g>
<title>3.209 s ±  87 ms</title>
<rect y="798" rx="5" height="22" width="220.77825327574143" fill="hsl(315, 100%, 80%)" stroke="hsl(315, 100%, 55%)" />
<g stroke="hsl(315, 100%, 40%)"><line x1="214.82518621705336" x2="226.7313203344295" y1="809" y2="809" />
<line x1="214.82518621705336" x2="214.82518621705336" y1="803" y2="815" />
<line x1="226.7313203344295" x2="226.7313203344295" y1="803" y2="815" />
</g>
</g>
<g fill="hsl(337, 100%, 40%)">
<text y="847">displayPathSize.d=10</text>
<text y="847" x="937.3649027367878" text-anchor="end">13.625 s</text>
</g>
<g>
<title>13.625 s ±  38 ms</title>
<rect y="853" rx="5" height="22" width="937.3649027367878" fill="hsl(337, 100%, 80%)" stroke="hsl(337, 100%, 55%)" />
<g stroke="hsl(337, 100%, 40%)"><line x1="934.7298054735757" x2="940.0" y1="864" y2="864" />
<line x1="934.7298054735757" x2="934.7298054735757" y1="858" y2="870" />
<line x1="940.0" x2="940.0" y1="858" y2="870" />
</g>
</g>
</g>
</svg>
