<svg xmlns="http://www.w3.org/2000/svg" height="172" width="960.0" font-size="16" font-family="sans-serif" stroke-width="2">
<g transform="translate(10.0 0)">
<g fill="hsl(0, 100%, 40%)">
<text y="22">findLargestPaths.Sync</text>
<text y="22" x="508.1066168137016" text-anchor="end">3.126 s</text>
</g>
<g>
<title>3.126 s ± 137 ms</title>
<rect y="28" rx="5" height="22" width="508.1066168137016" fill="hsl(0, 100%, 80%)" stroke="hsl(0, 100%, 55%)" />
<g stroke="hsl(0, 100%, 40%)"><line x1="485.7998105414827" x2="530.4134230859205" y1="39" y2="39" />
<line x1="485.7998105414827" x2="485.7998105414827" y1="33" y2="45" />
<line x1="530.4134230859205" x2="530.4134230859205" y1="33" y2="45" />
</g>
</g>
<g fill="hsl(120, 100%, 40%)">
<text y="77">takeLargest10.Sync</text>
<text y="77" x="522.6180956673896" text-anchor="end">3.216 s</text>
</g>
<g>
<title>3.216 s ± 173 ms</title>
<rect y="83" rx="5" height="22" width="522.6180956673896" fill="hsl(120, 100%, 80%)" stroke="hsl(120, 100%, 55%)" />
<g stroke="hsl(120, 100%, 40%)"><line x1="494.49784649762785" x2="550.7383448371514" y1="94" y2="94" />
<line x1="494.49784649762785" x2="494.49784649762785" y1="88" y2="100" />
<line x1="550.7383448371514" x2="550.7383448371514" y1="88" y2="100" />
</g>
</g>
<g fill="hsl(240, 100%, 40%)">
<text y="132">displayPathSize.Sync</text>
<text y="132" x="884.7176377450952" text-anchor="end">5.444 s</text>
</g>
<g>
<title>5.444 s ± 340 ms</title>
<rect y="138" rx="5" height="22" width="884.7176377450952" fill="hsl(240, 100%, 80%)" stroke="hsl(240, 100%, 55%)" />
<g stroke="hsl(240, 100%, 40%)"><line x1="829.4352754901904" x2="940.0" y1="149" y2="149" />
<line x1="829.4352754901904" x2="829.4352754901904" y1="143" y2="155" />
<line x1="940.0" x2="940.0" y1="143" y2="155" />
</g>
</g>
</g>
</svg>
