<svg xmlns="http://www.w3.org/2000/svg" height="172" width="960.0" font-size="16" font-family="sans-serif" stroke-width="2">
<g transform="translate(10.0 0)">
<g fill="hsl(0, 100%, 40%)">
<text y="22">findLargestPaths.Sync</text>
<text y="22" x="532.54105370419" text-anchor="end">2.008 s</text>
</g>
<g>
<title>2.008 s ± 134 ms</title>
<rect y="28" rx="5" height="22" width="532.54105370419" fill="hsl(0, 100%, 80%)" stroke="hsl(0, 100%, 55%)" />
<g stroke="hsl(0, 100%, 40%)"><line x1="496.8898911316538" x2="568.1922162767261" y1="39" y2="39" />
<line x1="496.8898911316538" x2="496.8898911316538" y1="33" y2="45" />
<line x1="568.1922162767261" x2="568.1922162767261" y1="33" y2="45" />
</g>
</g>
<g fill="hsl(120, 100%, 40%)">
<text y="77">takeLargest10.Sync</text>
<text y="77" x="514.91656207269" text-anchor="end">1.942 s</text>
</g>
<g>
<title>1.942 s ±  13 ms</title>
<rect y="83" rx="5" height="22" width="514.91656207269" fill="hsl(120, 100%, 80%)" stroke="hsl(120, 100%, 55%)" />
<g stroke="hsl(120, 100%, 40%)"><line x1="511.39911775864385" x2="518.4340063867362" y1="94" y2="94" />
<line x1="511.39911775864385" x2="511.39911775864385" y1="88" y2="100" />
<line x1="518.4340063867362" x2="518.4340063867362" y1="88" y2="100" />
</g>
</g>
<g fill="hsl(240, 100%, 40%)">
<text y="132">displayPathSize.Sync</text>
<text y="132" x="936.5667736133278" text-anchor="end">3.532 s</text>
</g>
<g>
<title>3.532 s ±  13 ms</title>
<rect y="138" rx="5" height="22" width="936.5667736133278" fill="hsl(240, 100%, 80%)" stroke="hsl(240, 100%, 55%)" />
<g stroke="hsl(240, 100%, 40%)"><line x1="933.1335472266555" x2="940.0" y1="149" y2="149" />
<line x1="933.1335472266555" x2="933.1335472266555" y1="143" y2="155" />
<line x1="940.0" x2="940.0" y1="143" y2="155" />
</g>
</g>
</g>
</svg>
