<svg xmlns="http://www.w3.org/2000/svg" height="172" width="960.0" font-size="16" font-family="sans-serif" stroke-width="2">
<g transform="translate(10.0 0)">
<g fill="hsl(0, 100%, 40%)">
<text y="22">findLargestPaths.Sync</text>
<text y="22" x="439.4387838419695" text-anchor="end">1.888 s</text>
</g>
<g>
<title>1.888 s ± 103 ms</title>
<rect y="28" rx="5" height="22" width="439.4387838419695" fill="hsl(0, 100%, 80%)" stroke="hsl(0, 100%, 55%)" />
<g stroke="hsl(0, 100%, 40%)"><line x1="415.53287305559354" x2="463.34469462834545" y1="39" y2="39" />
<line x1="415.53287305559354" x2="415.53287305559354" y1="33" y2="45" />
<line x1="463.34469462834545" x2="463.34469462834545" y1="33" y2="45" />
</g>
</g>
<g fill="hsl(120, 100%, 40%)">
<text y="77">takeLargest10.Sync</text>
<text y="77" x="438.76059187907674" text-anchor="end">1.885 s</text>
</g>
<g>
<title>1.885 s ±  59 ms</title>
<rect y="83" rx="5" height="22" width="438.76059187907674" fill="hsl(120, 100%, 80%)" stroke="hsl(120, 100%, 55%)" />
<g stroke="hsl(120, 100%, 40%)"><line x1="425.02672373891846" x2="452.494460019235" y1="94" y2="94" />
<line x1="425.02672373891846" x2="425.02672373891846" y1="88" y2="100" />
<line x1="452.494460019235" x2="452.494460019235" y1="88" y2="100" />
</g>
</g>
<g fill="hsl(240, 100%, 40%)">
<text y="132">displayPathSize.Sync</text>
<text y="132" x="824.9572507296555" text-anchor="end">3.544 s</text>
</g>
<g>
<title>3.544 s ± 494 ms</title>
<rect y="138" rx="5" height="22" width="824.9572507296555" fill="hsl(240, 100%, 80%)" stroke="hsl(240, 100%, 55%)" />
<g stroke="hsl(240, 100%, 40%)"><line x1="709.9145014593109" x2="940.0" y1="149" y2="149" />
<line x1="709.9145014593109" x2="709.9145014593109" y1="143" y2="155" />
<line x1="940.0" x2="940.0" y1="143" y2="155" />
</g>
</g>
</g>
</svg>
