<svg xmlns="http://www.w3.org/2000/svg" height="172" width="960.0" font-size="16" font-family="sans-serif" stroke-width="2">
<g transform="translate(10.0 0)">
<g fill="hsl(0, 100%, 40%)">
<text y="22">findLargestPaths.Sync</text>
<text y="22" x="515.2775576269407" text-anchor="end">2.992 s</text>
</g>
<g>
<title>2.992 s ±  61 ms</title>
<rect y="28" rx="5" height="22" width="515.2775576269407" fill="hsl(0, 100%, 80%)" stroke="hsl(0, 100%, 55%)" />
<g stroke="hsl(0, 100%, 40%)"><line x1="504.68880339910504" x2="525.8663118547764" y1="39" y2="39" />
<line x1="504.68880339910504" x2="504.68880339910504" y1="33" y2="45" />
<line x1="525.8663118547764" x2="525.8663118547764" y1="33" y2="45" />
</g>
</g>
<g fill="hsl(120, 100%, 40%)">
<text y="77">takeLargest10.Sync</text>
<text y="77" x="506.51985903951004" text-anchor="end">2.941 s</text>
</g>
<g>
<title>2.941 s ± 165 ms</title>
<rect y="83" rx="5" height="22" width="506.51985903951004" fill="hsl(120, 100%, 80%)" stroke="hsl(120, 100%, 55%)" />
<g stroke="hsl(120, 100%, 40%)"><line x1="478.1483912790434" x2="534.8913267999767" y1="94" y2="94" />
<line x1="478.1483912790434" x2="478.1483912790434" y1="88" y2="100" />
<line x1="534.8913267999767" x2="534.8913267999767" y1="88" y2="100" />
</g>
</g>
<g fill="hsl(240, 100%, 40%)">
<text y="132">displayPathSize.Sync</text>
<text y="132" x="923.0205969173282" text-anchor="end">5.359 s</text>
</g>
<g>
<title>5.359 s ±  99 ms</title>
<rect y="138" rx="5" height="22" width="923.0205969173282" fill="hsl(240, 100%, 80%)" stroke="hsl(240, 100%, 55%)" />
<g stroke="hsl(240, 100%, 40%)"><line x1="906.0411938346565" x2="940.0" y1="149" y2="149" />
<line x1="906.0411938346565" x2="906.0411938346565" y1="143" y2="155" />
<line x1="940.0" x2="940.0" y1="143" y2="155" />
</g>
</g>
</g>
</svg>
