<svg xmlns="http://www.w3.org/2000/svg" height="172" width="960.0" font-size="16" font-family="sans-serif" stroke-width="2">
<g transform="translate(10.0 0)">
<g fill="hsl(0, 100%, 40%)">
<text y="22">findLargestPaths.Sync</text>
<text y="22" x="493.4596601551894" text-anchor="end">3.296 s</text>
</g>
<g>
<title>3.296 s ± 255 ms</title>
<rect y="28" rx="5" height="22" width="493.4596601551894" fill="hsl(0, 100%, 80%)" stroke="hsl(0, 100%, 55%)" />
<g stroke="hsl(0, 100%, 40%)"><line x1="455.32868395574417" x2="531.5906363546346" y1="39" y2="39" />
<line x1="455.32868395574417" x2="455.32868395574417" y1="33" y2="45" />
<line x1="531.5906363546346" x2="531.5906363546346" y1="33" y2="45" />
</g>
</g>
<g fill="hsl(120, 100%, 40%)">
<text y="77">takeLargest10.Sync</text>
<text y="77" x="499.1367669889029" text-anchor="end">3.334 s</text>
</g>
<g>
<title>3.334 s ± 119 ms</title>
<rect y="83" rx="5" height="22" width="499.1367669889029" fill="hsl(120, 100%, 80%)" stroke="hsl(120, 100%, 55%)" />
<g stroke="hsl(120, 100%, 40%)"><line x1="481.30997202752235" x2="516.9635619502834" y1="94" y2="94" />
<line x1="481.30997202752235" x2="481.30997202752235" y1="88" y2="100" />
<line x1="516.9635619502834" x2="516.9635619502834" y1="88" y2="100" />
</g>
</g>
<g fill="hsl(240, 100%, 40%)">
<text y="132">displayPathSize.Sync</text>
<text y="132" x="928.2283693998571" text-anchor="end">6.199 s</text>
</g>
<g>
<title>6.199 s ±  79 ms</title>
<rect y="138" rx="5" height="22" width="928.2283693998571" fill="hsl(240, 100%, 80%)" stroke="hsl(240, 100%, 55%)" />
<g stroke="hsl(240, 100%, 40%)"><line x1="916.4567387997142" x2="940.0" y1="149" y2="149" />
<line x1="916.4567387997142" x2="916.4567387997142" y1="143" y2="155" />
<line x1="940.0" x2="940.0" y1="143" y2="155" />
</g>
</g>
</g>
</svg>
