<svg xmlns="http://www.w3.org/2000/svg" height="887" width="960.0" font-size="16" font-family="sans-serif" stroke-width="2">
<g transform="translate(10.0 0)">
<text fill="hsl(0, 100%, 40%)" y="22">findLargestPaths All.flat.100 - Sync 9.86 ms</text>
<g>
<title>9.86 ms ± 889 μs</title>
<rect y="28" rx="5" height="22" width="0.29659149781532984" fill="hsl(0, 100%, 80%)" stroke="hsl(0, 100%, 55%)" />
<g stroke="hsl(0, 100%, 40%)"><line x1="0.2698534254327168" x2="0.3233295701979429" y1="39" y2="39" />
<line x1="0.2698534254327168" x2="0.2698534254327168" y1="33" y2="45" />
<line x1="0.3233295701979429" x2="0.3233295701979429" y1="33" y2="45" />
</g>
</g>
<text fill="hsl(22, 100%, 40%)" y="77">findLargestPaths All.flat.1,000 - Sync 106  ms</text>
<g>
<title>106  ms ± 8.9 ms</title>
<rect y="83" rx="5" height="22" width="3.1832196399189856" fill="hsl(22, 100%, 80%)" stroke="hsl(22, 100%, 55%)" />
<g stroke="hsl(22, 100%, 40%)"><line x1="2.916784466608446" x2="3.4496548132295253" y1="94" y2="94" />
<line x1="2.916784466608446" x2="2.916784466608446" y1="88" y2="100" />
<line x1="3.4496548132295253" x2="3.4496548132295253" y1="88" y2="100" />
</g>
</g>
<text fill="hsl(45, 100%, 40%)" y="132">findLargestPaths All.flat.10,000 - Sync 1.095 s</text>
<g>
<title>1.095 s ±  35 ms</title>
<rect y="138" rx="5" height="22" width="32.93633900491822" fill="hsl(45, 100%, 80%)" stroke="hsl(45, 100%, 55%)" />
<g stroke="hsl(45, 100%, 40%)"><line x1="31.870598311615918" x2="34.00207969822052" y1="149" y2="149" />
<line x1="31.870598311615918" x2="31.870598311615918" y1="143" y2="155" />
<line x1="34.00207969822052" x2="34.00207969822052" y1="143" y2="155" />
</g>
</g>
<text fill="hsl(67, 100%, 40%)" y="187">findLargestPaths All.sparse.d=6 - Sync 809  ms</text>
<g>
<title>809  ms ±  28 ms</title>
<rect y="193" rx="5" height="22" width="24.33812211775697" fill="hsl(67, 100%, 80%)" stroke="hsl(67, 100%, 55%)" />
<g stroke="hsl(67, 100%, 40%)"><line x1="23.48250380091195" x2="25.19374043460199" y1="204" y2="204" />
<line x1="23.48250380091195" x2="23.48250380091195" y1="198" y2="210" />
<line x1="25.19374043460199" x2="25.19374043460199" y1="198" y2="210" />
</g>
</g>
<text fill="hsl(90, 100%, 40%)" y="242">findLargestPaths All.sparse.d=8 - Sync 3.625 s</text>
<g>
<title>3.625 s ± 113 ms</title>
<rect y="248" rx="5" height="22" width="109.00471682084202" fill="hsl(90, 100%, 80%)" stroke="hsl(90, 100%, 55%)" />
<g stroke="hsl(90, 100%, 40%)"><line x1="105.61250117549376" x2="112.39693246619028" y1="259" y2="259" />
<line x1="105.61250117549376" x2="105.61250117549376" y1="253" y2="265" />
<line x1="112.39693246619028" x2="112.39693246619028" y1="253" y2="265" />
</g>
</g>
<g fill="hsl(112, 100%, 40%)">
<text y="297">findLargestPaths All.sparse.d=10 - Sync</text>
<text y="297" x="456.6921756459416" text-anchor="end">15.188 s</text>
</g>
<g>
<title>15.188 s ± 1.02 s</title>
<rect y="303" rx="5" height="22" width="456.6921756459416" fill="hsl(112, 100%, 80%)" stroke="hsl(112, 100%, 55%)" />
<g stroke="hsl(112, 100%, 40%)"><line x1="425.98405106235015" x2="487.400300229533" y1="314" y2="314" />
<line x1="425.98405106235015" x2="425.98405106235015" y1="308" y2="320" />
<line x1="487.400300229533" x2="487.400300229533" y1="308" y2="320" />
</g>
</g>
<text fill="hsl(135, 100%, 40%)" y="352">findLargestPaths All.dense.d=6 - Sync 1.603 s</text>
<g>
<title>1.603 s ±  57 ms</title>
<rect y="358" rx="5" height="22" width="48.20639631818272" fill="hsl(135, 100%, 80%)" stroke="hsl(135, 100%, 55%)" />
<g stroke="hsl(135, 100%, 40%)"><line x1="46.49515968443254" x2="49.9176329519329" y1="369" y2="369" />
<line x1="46.49515968443254" x2="46.49515968443254" y1="363" y2="375" />
<line x1="49.9176329519329" x2="49.9176329519329" y1="363" y2="375" />
</g>
</g>
<text fill="hsl(157, 100%, 40%)" y="407">findLargestPaths All.dense.d=8 - Sync 7.012 s</text>
<g>
<title>7.012 s ± 364 ms</title>
<rect y="413" rx="5" height="22" width="210.86774529824956" fill="hsl(157, 100%, 80%)" stroke="hsl(157, 100%, 55%)" />
<g stroke="hsl(157, 100%, 40%)"><line x1="199.91112410080018" x2="221.82436649569894" y1="424" y2="424" />
<line x1="199.91112410080018" x2="199.91112410080018" y1="418" y2="430" />
<line x1="221.82436649569894" x2="221.82436649569894" y1="418" y2="430" />
</g>
</g>
<g fill="hsl(180, 100%, 40%)">
<text y="462">findLargestPaths All.dense.d=10 - Sync</text>
<text y="462" x="879.5553012440356" text-anchor="end">29.250 s</text>
</g>
<g>
<title>29.250 s ± 1.65 s</title>
<rect y="468" rx="5" height="22" width="879.5553012440356" fill="hsl(180, 100%, 80%)" stroke="hsl(180, 100%, 55%)" />
<g stroke="hsl(180, 100%, 40%)"><line x1="829.9361627801914" x2="929.1744397078799" y1="479" y2="479" />
<line x1="829.9361627801914" x2="829.9361627801914" y1="473" y2="485" />
<line x1="929.1744397078799" x2="929.1744397078799" y1="473" y2="485" />
</g>
</g>
<g fill="hsl(202, 100%, 40%)">
<text y="517">takeLargestN.1</text>
<text y="517" x="873.2593391517973" text-anchor="end">29.041 s</text>
</g>
<g>
<title>29.041 s ± 867 ms</title>
<rect y="523" rx="5" height="22" width="873.2593391517973" fill="hsl(202, 100%, 80%)" stroke="hsl(202, 100%, 55%)" />
<g stroke="hsl(202, 100%, 40%)"><line x1="847.1739068500856" x2="899.3447714535091" y1="534" y2="534" />
<line x1="847.1739068500856" x2="847.1739068500856" y1="528" y2="540" />
<line x1="899.3447714535091" x2="899.3447714535091" y1="528" y2="540" />
</g>
</g>
<g fill="hsl(225, 100%, 40%)">
<text y="572">takeLargestN.10</text>
<text y="572" x="860.0096278830571" text-anchor="end">28.600 s</text>
</g>
<g>
<title>28.600 s ± 378 ms</title>
<rect y="578" rx="5" height="22" width="860.0096278830571" fill="hsl(225, 100%, 80%)" stroke="hsl(225, 100%, 55%)" />
<g stroke="hsl(225, 100%, 40%)"><line x1="848.6327619326931" x2="871.386493833421" y1="589" y2="589" />
<line x1="848.6327619326931" x2="848.6327619326931" y1="583" y2="595" />
<line x1="871.386493833421" x2="871.386493833421" y1="583" y2="595" />
</g>
</g>
<g fill="hsl(247, 100%, 40%)">
<text y="627">takeLargestN.100</text>
<text y="627" x="869.3126166462151" text-anchor="end">28.909 s</text>
</g>
<g>
<title>28.909 s ±  85 ms</title>
<rect y="633" rx="5" height="22" width="869.3126166462151" fill="hsl(247, 100%, 80%)" stroke="hsl(247, 100%, 55%)" />
<g stroke="hsl(247, 100%, 40%)"><line x1="866.7608905066359" x2="871.8643427857944" y1="644" y2="644" />
<line x1="866.7608905066359" x2="866.7608905066359" y1="638" y2="650" />
<line x1="871.8643427857944" x2="871.8643427857944" y1="638" y2="650" />
</g>
</g>
<g fill="hsl(270, 100%, 40%)">
<text y="682">takeLargestN.1,000</text>
<text y="682" x="874.4809437368585" text-anchor="end">29.081 s</text>
</g>
<g>
<title>29.081 s ± 979 ms</title>
<rect y="688" rx="5" height="22" width="874.4809437368585" fill="hsl(270, 100%, 80%)" stroke="hsl(270, 100%, 55%)" />
<g stroke="hsl(270, 100%, 40%)"><line x1="845.0335534119506" x2="903.9283340617665" y1="699" y2="699" />
<line x1="845.0335534119506" x2="845.0335534119506" y1="693" y2="705" />
<line x1="903.9283340617665" x2="903.9283340617665" y1="693" y2="705" />
</g>
</g>
<text fill="hsl(292, 100%, 40%)" y="737">displayPathSize.d=6 1.655 s</text>
<g>
<title>1.655 s ±  42 ms</title>
<rect y="743" rx="5" height="22" width="49.756894445375735" fill="hsl(292, 100%, 80%)" stroke="hsl(292, 100%, 55%)" />
<g stroke="hsl(292, 100%, 40%)"><line x1="48.48103137561616" x2="51.03275751513531" y1="754" y2="754" />
<line x1="48.48103137561616" x2="48.48103137561616" y1="748" y2="760" />
<line x1="51.03275751513531" x2="51.03275751513531" y1="748" y2="760" />
</g>
</g>
<g fill="hsl(315, 100%, 40%)">
<text y="792">displayPathSize.d=8</text>
<text y="792" x="220.7345515622051" text-anchor="end">7.341 s</text>
</g>
<g>
<title>7.341 s ± 155 ms</title>
<rect y="798" rx="5" height="22" width="220.7345515622051" fill="hsl(315, 100%, 80%)" stroke="hsl(315, 100%, 55%)" />
<g stroke="hsl(315, 100%, 40%)"><line x1="216.08160165817333" x2="225.38750146623687" y1="809" y2="809" />
<line x1="216.08160165817333" x2="216.08160165817333" y1="803" y2="815" />
<line x1="225.38750146623687" x2="225.38750146623687" y1="803" y2="815" />
</g>
</g>
<g fill="hsl(337, 100%, 40%)">
<text y="847">displayPathSize.d=10</text>
<text y="847" x="931.1446025670031" text-anchor="end">30.966 s</text>
</g>
<g>
<title>30.966 s ± 294 ms</title>
<rect y="853" rx="5" height="22" width="931.1446025670031" fill="hsl(337, 100%, 80%)" stroke="hsl(337, 100%, 55%)" />
<g stroke="hsl(337, 100%, 40%)"><line x1="922.2892051340061" x2="940.0" y1="864" y2="864" />
<line x1="922.2892051340061" x2="922.2892051340061" y1="858" y2="870" />
<line x1="940.0" x2="940.0" y1="858" y2="870" />
</g>
</g>
</g>
</svg>
