<svg xmlns="http://www.w3.org/2000/svg" height="172" width="960.0" font-size="16" font-family="sans-serif" stroke-width="2">
<g transform="translate(10.0 0)">
<g fill="hsl(0, 100%, 40%)">
<text y="22">findLargestPaths.Sync</text>
<text y="22" x="591.8631745979366" text-anchor="end">1.942 s</text>
</g>
<g>
<title>1.942 s ±  66 ms</title>
<rect y="28" rx="5" height="22" width="591.8631745979366" fill="hsl(0, 100%, 80%)" stroke="hsl(0, 100%, 55%)" />
<g stroke="hsl(0, 100%, 40%)"><line x1="571.868661703819" x2="611.8576874920541" y1="39" y2="39" />
<line x1="571.868661703819" x2="571.868661703819" y1="33" y2="45" />
<line x1="611.8576874920541" x2="611.8576874920541" y1="33" y2="45" />
</g>
</g>
<g fill="hsl(120, 100%, 40%)">
<text y="77">takeLargest10.Sync</text>
<text y="77" x="589.2073928675098" text-anchor="end">1.934 s</text>
</g>
<g>
<title>1.934 s ± 3.9 ms</title>
<rect y="83" rx="5" height="22" width="589.2073928675098" fill="hsl(120, 100%, 80%)" stroke="hsl(120, 100%, 55%)" />
<g stroke="hsl(120, 100%, 40%)"><line x1="588.0335641749894" x2="590.3812215600303" y1="94" y2="94" />
<line x1="588.0335641749894" x2="588.0335641749894" y1="88" y2="100" />
<line x1="590.3812215600303" x2="590.3812215600303" y1="88" y2="100" />
</g>
</g>
<g fill="hsl(240, 100%, 40%)">
<text y="132">displayPathSize.Sync</text>
<text y="132" x="926.8090316070934" text-anchor="end">3.042 s</text>
</g>
<g>
<title>3.042 s ±  43 ms</title>
<rect y="138" rx="5" height="22" width="926.8090316070934" fill="hsl(240, 100%, 80%)" stroke="hsl(240, 100%, 55%)" />
<g stroke="hsl(240, 100%, 40%)"><line x1="913.6180632141868" x2="940.0" y1="149" y2="149" />
<line x1="913.6180632141868" x2="913.6180632141868" y1="143" y2="155" />
<line x1="940.0" x2="940.0" y1="143" y2="155" />
</g>
</g>
</g>
</svg>
