<svg xmlns="http://www.w3.org/2000/svg" height="172" width="960.0" font-size="16" font-family="sans-serif" stroke-width="2">
<g transform="translate(10.0 0)">
<g fill="hsl(0, 100%, 40%)">
<text y="22">findLargestPaths.Sync</text>
<text y="22" x="424.5782111984135" text-anchor="end">2.116 s</text>
</g>
<g>
<title>2.116 s ± 132 ms</title>
<rect y="28" rx="5" height="22" width="424.5782111984135" fill="hsl(0, 100%, 80%)" stroke="hsl(0, 100%, 55%)" />
<g stroke="hsl(0, 100%, 40%)"><line x1="398.0541084868604" x2="451.1023139099666" y1="39" y2="39" />
<line x1="398.0541084868604" x2="398.0541084868604" y1="33" y2="45" />
<line x1="451.1023139099666" x2="451.1023139099666" y1="33" y2="45" />
</g>
</g>
<g fill="hsl(120, 100%, 40%)">
<text y="77">takeLargest10.Sync</text>
<text y="77" x="411.808457096434" text-anchor="end">2.052 s</text>
</g>
<g>
<title>2.052 s ±  54 ms</title>
<rect y="83" rx="5" height="22" width="411.808457096434" fill="hsl(120, 100%, 80%)" stroke="hsl(120, 100%, 55%)" />
<g stroke="hsl(120, 100%, 40%)"><line x1="400.96838936818307" x2="422.6485248246849" y1="94" y2="94" />
<line x1="400.96838936818307" x2="400.96838936818307" y1="88" y2="100" />
<line x1="422.6485248246849" x2="422.6485248246849" y1="88" y2="100" />
</g>
</g>
<g fill="hsl(240, 100%, 40%)">
<text y="132">displayPathSize.Sync</text>
<text y="132" x="927.0444903942706" text-anchor="end">4.620 s</text>
</g>
<g>
<title>4.620 s ±  65 ms</title>
<rect y="138" rx="5" height="22" width="927.0444903942706" fill="hsl(240, 100%, 80%)" stroke="hsl(240, 100%, 55%)" />
<g stroke="hsl(240, 100%, 40%)"><line x1="914.0889807885412" x2="940.0" y1="149" y2="149" />
<line x1="914.0889807885412" x2="914.0889807885412" y1="143" y2="155" />
<line x1="940.0" x2="940.0" y1="143" y2="155" />
</g>
</g>
</g>
</svg>
