<svg xmlns="http://www.w3.org/2000/svg" height="172" width="960.0" font-size="16" font-family="sans-serif" stroke-width="2">
<g transform="translate(10.0 0)">
<g fill="hsl(0, 100%, 40%)">
<text y="22">findLargestPaths.Sync</text>
<text y="22" x="467.84777343758213" text-anchor="end">3.386 s</text>
</g>
<g>
<title>3.386 s ± 166 ms</title>
<rect y="28" rx="5" height="22" width="467.84777343758213" fill="hsl(0, 100%, 80%)" stroke="hsl(0, 100%, 55%)" />
<g stroke="hsl(0, 100%, 40%)"><line x1="444.8977410284224" x2="490.7978058467419" y1="39" y2="39" />
<line x1="444.8977410284224" x2="444.8977410284224" y1="33" y2="45" />
<line x1="490.7978058467419" x2="490.7978058467419" y1="33" y2="45" />
</g>
</g>
<g fill="hsl(120, 100%, 40%)">
<text y="77">takeLargest10.Sync</text>
<text y="77" x="452.3282398548586" text-anchor="end">3.273 s</text>
</g>
<g>
<title>3.273 s ± 315 ms</title>
<rect y="83" rx="5" height="22" width="452.3282398548586" fill="hsl(120, 100%, 80%)" stroke="hsl(120, 100%, 55%)" />
<g stroke="hsl(120, 100%, 40%)"><line x1="408.79101258192765" x2="495.8654671277896" y1="94" y2="94" />
<line x1="408.79101258192765" x2="408.79101258192765" y1="88" y2="100" />
<line x1="495.8654671277896" x2="495.8654671277896" y1="88" y2="100" />
</g>
</g>
<g fill="hsl(240, 100%, 40%)">
<text y="132">displayPathSize.Sync</text>
<text y="132" x="871.4152039123385" text-anchor="end">6.306 s</text>
</g>
<g>
<title>6.306 s ± 496 ms</title>
<rect y="138" rx="5" height="22" width="871.4152039123385" fill="hsl(240, 100%, 80%)" stroke="hsl(240, 100%, 55%)" />
<g stroke="hsl(240, 100%, 40%)"><line x1="802.830407824677" x2="940.0" y1="149" y2="149" />
<line x1="802.830407824677" x2="802.830407824677" y1="143" y2="155" />
<line x1="940.0" x2="940.0" y1="143" y2="155" />
</g>
</g>
</g>
</svg>
