<svg xmlns="http://www.w3.org/2000/svg" height="887" width="960.0" font-size="16" font-family="sans-serif" stroke-width="2">
<g transform="translate(10.0 0)">
<text fill="hsl(0, 100%, 40%)" y="22">findLargestPaths All.flat.100 - Sync 1.38 ms</text>
<g>
<title>1.38 ms ±  86 μs</title>
<rect y="28" rx="5" height="22" width="0.12904091720004404" fill="hsl(0, 100%, 80%)" stroke="hsl(0, 100%, 55%)" />
<g stroke="hsl(0, 100%, 40%)"><line x1="0.1210258027763148" x2="0.13705603162377328" y1="39" y2="39" />
<line x1="0.1210258027763148" x2="0.1210258027763148" y1="33" y2="45" />
<line x1="0.13705603162377328" x2="0.13705603162377328" y1="33" y2="45" />
</g>
</g>
<text fill="hsl(22, 100%, 40%)" y="77">findLargestPaths All.flat.1_000 - Sync 23.5 ms</text>
<g>
<title>23.5 ms ± 1.9 ms</title>
<rect y="83" rx="5" height="22" width="2.1925685074915915" fill="hsl(22, 100%, 80%)" stroke="hsl(22, 100%, 55%)" />
<g stroke="hsl(22, 100%, 40%)"><line x1="2.0141354426792626" x2="2.3710015723039204" y1="94" y2="94" />
<line x1="2.0141354426792626" x2="2.0141354426792626" y1="88" y2="100" />
<line x1="2.3710015723039204" x2="2.3710015723039204" y1="88" y2="100" />
</g>
</g>
<text fill="hsl(45, 100%, 40%)" y="132">findLargestPaths All.flat.10_000 - Sync 420  ms</text>
<g>
<title>420  ms ±  21 ms</title>
<rect y="138" rx="5" height="22" width="39.11165985625008" fill="hsl(45, 100%, 80%)" stroke="hsl(45, 100%, 55%)" />
<g stroke="hsl(45, 100%, 40%)"><line x1="37.189223536422126" x2="41.03409617607803" y1="149" y2="149" />
<line x1="37.189223536422126" x2="37.189223536422126" y1="143" y2="155" />
<line x1="41.03409617607803" x2="41.03409617607803" y1="143" y2="155" />
</g>
</g>
<text fill="hsl(67, 100%, 40%)" y="187">findLargestPaths All.sparse.d=6 - Sync 198  ms</text>
<g>
<title>198  ms ±  17 ms</title>
<rect y="193" rx="5" height="22" width="18.44590938190121" fill="hsl(67, 100%, 80%)" stroke="hsl(67, 100%, 55%)" />
<g stroke="hsl(67, 100%, 40%)"><line x1="16.83462280417938" x2="20.05719595962304" y1="204" y2="204" />
<line x1="16.83462280417938" x2="16.83462280417938" y1="198" y2="210" />
<line x1="20.05719595962304" x2="20.05719595962304" y1="198" y2="210" />
</g>
</g>
<text fill="hsl(90, 100%, 40%)" y="242">findLargestPaths All.sparse.d=8 - Sync 891  ms</text>
<g>
<title>891  ms ±  12 ms</title>
<rect y="248" rx="5" height="22" width="83.10762364868522" fill="hsl(90, 100%, 80%)" stroke="hsl(90, 100%, 55%)" />
<g stroke="hsl(90, 100%, 40%)"><line x1="81.98588239650618" x2="84.22936490086425" y1="259" y2="259" />
<line x1="81.98588239650618" x2="81.98588239650618" y1="253" y2="265" />
<line x1="84.22936490086425" x2="84.22936490086425" y1="253" y2="265" />
</g>
</g>
<text fill="hsl(112, 100%, 40%)" y="297">findLargestPaths All.sparse.d=10 - Sync 3.902 s</text>
<g>
<title>3.902 s ± 338 ms</title>
<rect y="303" rx="5" height="22" width="363.7396642349538" fill="hsl(112, 100%, 80%)" stroke="hsl(112, 100%, 55%)" />
<g stroke="hsl(112, 100%, 40%)"><line x1="332.267910283189" x2="395.2114181867186" y1="314" y2="314" />
<line x1="332.267910283189" x2="332.267910283189" y1="308" y2="320" />
<line x1="395.2114181867186" x2="395.2114181867186" y1="308" y2="320" />
</g>
</g>
<text fill="hsl(135, 100%, 40%)" y="352">findLargestPaths All.dense.d=6 - Sync 382  ms</text>
<g>
<title>382  ms ±  20 ms</title>
<rect y="358" rx="5" height="22" width="35.61952456158681" fill="hsl(135, 100%, 80%)" stroke="hsl(135, 100%, 55%)" />
<g stroke="hsl(135, 100%, 40%)"><line x1="33.733984695435915" x2="37.5050644277377" y1="369" y2="369" />
<line x1="33.733984695435915" x2="33.733984695435915" y1="363" y2="375" />
<line x1="37.5050644277377" x2="37.5050644277377" y1="363" y2="375" />
</g>
</g>
<text fill="hsl(157, 100%, 40%)" y="407">findLargestPaths All.dense.d=8 - Sync 1.655 s</text>
<g>
<title>1.655 s ±  68 ms</title>
<rect y="413" rx="5" height="22" width="154.29438251720848" fill="hsl(157, 100%, 80%)" stroke="hsl(157, 100%, 55%)" />
<g stroke="hsl(157, 100%, 40%)"><line x1="147.92205207276032" x2="160.66671296165663" y1="424" y2="424" />
<line x1="147.92205207276032" x2="147.92205207276032" y1="418" y2="430" />
<line x1="160.66671296165663" x2="160.66671296165663" y1="418" y2="430" />
</g>
</g>
<g fill="hsl(180, 100%, 40%)">
<text y="462">findLargestPaths All.dense.d=10 - Sync</text>
<text y="462" x="689.1382902056399" text-anchor="end">7.392 s</text>
</g>
<g>
<title>7.392 s ± 409 ms</title>
<rect y="468" rx="5" height="22" width="689.1382902056399" fill="hsl(180, 100%, 80%)" stroke="hsl(180, 100%, 55%)" />
<g stroke="hsl(180, 100%, 40%)"><line x1="650.9785320243336" x2="727.2980483869462" y1="479" y2="479" />
<line x1="650.9785320243336" x2="650.9785320243336" y1="473" y2="485" />
<line x1="727.2980483869462" x2="727.2980483869462" y1="473" y2="485" />
</g>
</g>
<g fill="hsl(202, 100%, 40%)">
<text y="517">takeLargestN.1</text>
<text y="517" x="684.267851620792" text-anchor="end">7.340 s</text>
</g>
<g>
<title>7.340 s ± 329 ms</title>
<rect y="523" rx="5" height="22" width="684.267851620792" fill="hsl(202, 100%, 80%)" stroke="hsl(202, 100%, 55%)" />
<g stroke="hsl(202, 100%, 40%)"><line x1="653.5961442112872" x2="714.9395590302969" y1="534" y2="534" />
<line x1="653.5961442112872" x2="653.5961442112872" y1="528" y2="540" />
<line x1="714.9395590302969" x2="714.9395590302969" y1="528" y2="540" />
</g>
</g>
<g fill="hsl(225, 100%, 40%)">
<text y="572">takeLargestN.10</text>
<text y="572" x="681.7555688360231" text-anchor="end">7.313 s</text>
</g>
<g>
<title>7.313 s ± 459 ms</title>
<rect y="578" rx="5" height="22" width="681.7555688360231" fill="hsl(225, 100%, 80%)" stroke="hsl(225, 100%, 55%)" />
<g stroke="hsl(225, 100%, 40%)"><line x1="638.959023242604" x2="724.5521144294423" y1="589" y2="589" />
<line x1="638.959023242604" x2="638.959023242604" y1="583" y2="595" />
<line x1="724.5521144294423" x2="724.5521144294423" y1="583" y2="595" />
</g>
</g>
<g fill="hsl(247, 100%, 40%)">
<text y="627">takeLargestN.100</text>
<text y="627" x="671.1972414750811" text-anchor="end">7.200 s</text>
</g>
<g>
<title>7.200 s ± 166 ms</title>
<rect y="633" rx="5" height="22" width="671.1972414750811" fill="hsl(247, 100%, 80%)" stroke="hsl(247, 100%, 55%)" />
<g stroke="hsl(247, 100%, 40%)"><line x1="655.7572997242438" x2="686.6371832259184" y1="644" y2="644" />
<line x1="655.7572997242438" x2="655.7572997242438" y1="638" y2="650" />
<line x1="686.6371832259184" x2="686.6371832259184" y1="638" y2="650" />
</g>
</g>
<g fill="hsl(270, 100%, 40%)">
<text y="682">takeLargestN.1_000</text>
<text y="682" x="678.7072545818411" text-anchor="end">7.280 s</text>
</g>
<g>
<title>7.280 s ± 724 ms</title>
<rect y="688" rx="5" height="22" width="678.7072545818411" fill="hsl(270, 100%, 80%)" stroke="hsl(270, 100%, 55%)" />
<g stroke="hsl(270, 100%, 40%)"><line x1="611.1934785786857" x2="746.2210305849965" y1="699" y2="699" />
<line x1="611.1934785786857" x2="611.1934785786857" y1="693" y2="705" />
<line x1="746.2210305849965" x2="746.2210305849965" y1="693" y2="705" />
</g>
</g>
<text fill="hsl(292, 100%, 40%)" y="737">displayPathSize.d=6 482  ms</text>
<g>
<title>482  ms ± 1.0 ms</title>
<rect y="743" rx="5" height="22" width="44.90850911155073" fill="hsl(292, 100%, 80%)" stroke="hsl(292, 100%, 55%)" />
<g stroke="hsl(292, 100%, 40%)"><line x1="44.81225281673456" x2="45.00476540636689" y1="754" y2="754" />
<line x1="44.81225281673456" x2="44.81225281673456" y1="748" y2="760" />
<line x1="45.00476540636689" x2="45.00476540636689" y1="748" y2="760" />
</g>
</g>
<text fill="hsl(315, 100%, 40%)" y="792">displayPathSize.d=8 2.204 s</text>
<g>
<title>2.204 s ±  92 ms</title>
<rect y="798" rx="5" height="22" width="205.48757278519557" fill="hsl(315, 100%, 80%)" stroke="hsl(315, 100%, 55%)" />
<g stroke="hsl(315, 100%, 40%)"><line x1="196.90604129017592" x2="214.0691042802152" y1="809" y2="809" />
<line x1="196.90604129017592" x2="196.90604129017592" y1="803" y2="815" />
<line x1="214.0691042802152" x2="214.0691042802152" y1="803" y2="815" />
</g>
</g>
<g fill="hsl(337, 100%, 40%)">
<text y="847">displayPathSize.d=10</text>
<text y="847" x="913.4293141031228" text-anchor="end">9.798 s</text>
</g>
<g>
<title>9.798 s ± 285 ms</title>
<rect y="853" rx="5" height="22" width="913.4293141031228" fill="hsl(337, 100%, 80%)" stroke="hsl(337, 100%, 55%)" />
<g stroke="hsl(337, 100%, 40%)"><line x1="886.8586282062456" x2="940.0" y1="864" y2="864" />
<line x1="886.8586282062456" x2="886.8586282062456" y1="858" y2="870" />
<line x1="940.0" x2="940.0" y1="858" y2="870" />
</g>
</g>
</g>
</svg>
