<svg xmlns="http://www.w3.org/2000/svg" height="172" width="960.0" font-size="16" font-family="sans-serif" stroke-width="2">
<g transform="translate(10.0 0)">
<g fill="hsl(0, 100%, 40%)">
<text y="22">findLargestPaths.Sync</text>
<text y="22" x="581.5905600425716" text-anchor="end">4.618 s</text>
</g>
<g>
<title>4.618 s ± 157 ms</title>
<rect y="28" rx="5" height="22" width="581.5905600425716" fill="hsl(0, 100%, 80%)" stroke="hsl(0, 100%, 55%)" />
<g stroke="hsl(0, 100%, 40%)"><line x1="561.8727170940618" x2="601.3084029910814" y1="39" y2="39" />
<line x1="561.8727170940618" x2="561.8727170940618" y1="33" y2="45" />
<line x1="601.3084029910814" x2="601.3084029910814" y1="33" y2="45" />
</g>
</g>
<g fill="hsl(120, 100%, 40%)">
<text y="77">takeLargest10.Sync</text>
<text y="77" x="578.8178622894529" text-anchor="end">4.596 s</text>
</g>
<g>
<title>4.596 s ± 153 ms</title>
<rect y="83" rx="5" height="22" width="578.8178622894529" fill="hsl(120, 100%, 80%)" stroke="hsl(120, 100%, 55%)" />
<g stroke="hsl(120, 100%, 40%)"><line x1="559.5264030822335" x2="598.1093214966724" y1="94" y2="94" />
<line x1="559.5264030822335" x2="559.5264030822335" y1="88" y2="100" />
<line x1="598.1093214966724" x2="598.1093214966724" y1="88" y2="100" />
</g>
</g>
<g fill="hsl(240, 100%, 40%)">
<text y="132">displayPathSize.Sync</text>
<text y="132" x="911.0096455864128" text-anchor="end">7.233 s</text>
</g>
<g>
<title>7.233 s ± 230 ms</title>
<rect y="138" rx="5" height="22" width="911.0096455864128" fill="hsl(240, 100%, 80%)" stroke="hsl(240, 100%, 55%)" />
<g stroke="hsl(240, 100%, 40%)"><line x1="882.0192911728257" x2="940.0" y1="149" y2="149" />
<line x1="882.0192911728257" x2="882.0192911728257" y1="143" y2="155" />
<line x1="940.0" x2="940.0" y1="143" y2="155" />
</g>
</g>
</g>
</svg>
