<svg xmlns="http://www.w3.org/2000/svg" height="172" width="960.0" font-size="16" font-family="sans-serif" stroke-width="2">
<g transform="translate(10.0 0)">
<g fill="hsl(0, 100%, 40%)">
<text y="22">findLargestPaths.Sync</text>
<text y="22" x="567.9100868714779" text-anchor="end">2.013 s</text>
</g>
<g>
<title>2.013 s ±  21 ms</title>
<rect y="28" rx="5" height="22" width="567.9100868714779" fill="hsl(0, 100%, 80%)" stroke="hsl(0, 100%, 55%)" />
<g stroke="hsl(0, 100%, 40%)"><line x1="562.0826024295294" x2="573.7375713134264" y1="39" y2="39" />
<line x1="562.0826024295294" x2="562.0826024295294" y1="33" y2="45" />
<line x1="573.7375713134264" x2="573.7375713134264" y1="33" y2="45" />
</g>
</g>
<g fill="hsl(120, 100%, 40%)">
<text y="77">takeLargest10.Sync</text>
<text y="77" x="575.2275547033001" text-anchor="end">2.039 s</text>
</g>
<g>
<title>2.039 s ± 198 ms</title>
<rect y="83" rx="5" height="22" width="575.2275547033001" fill="hsl(120, 100%, 80%)" stroke="hsl(120, 100%, 55%)" />
<g stroke="hsl(120, 100%, 40%)"><line x1="519.2567701589371" x2="631.1983392476632" y1="94" y2="94" />
<line x1="519.2567701589371" x2="519.2567701589371" y1="88" y2="100" />
<line x1="631.1983392476632" x2="631.1983392476632" y1="88" y2="100" />
</g>
</g>
<g fill="hsl(240, 100%, 40%)">
<text y="132">displayPathSize.Sync</text>
<text y="132" x="876.4836773521556" text-anchor="end">3.107 s</text>
</g>
<g>
<title>3.107 s ± 225 ms</title>
<rect y="138" rx="5" height="22" width="876.4836773521556" fill="hsl(240, 100%, 80%)" stroke="hsl(240, 100%, 55%)" />
<g stroke="hsl(240, 100%, 40%)"><line x1="812.9673547043112" x2="940.0" y1="149" y2="149" />
<line x1="812.9673547043112" x2="812.9673547043112" y1="143" y2="155" />
<line x1="940.0" x2="940.0" y1="143" y2="155" />
</g>
</g>
</g>
</svg>
