<svg xmlns="http://www.w3.org/2000/svg" height="172" width="960.0" font-size="16" font-family="sans-serif" stroke-width="2">
<g transform="translate(10.0 0)">
<g fill="hsl(0, 100%, 40%)">
<text y="22">findLargestPaths.Sync</text>
<text y="22" x="418.2922926099428" text-anchor="end">2.054 s</text>
</g>
<g>
<title>2.054 s ± 131 ms</title>
<rect y="28" rx="5" height="22" width="418.2922926099428" fill="hsl(0, 100%, 80%)" stroke="hsl(0, 100%, 55%)" />
<g stroke="hsl(0, 100%, 40%)"><line x1="391.7092776751128" x2="444.87530754477285" y1="39" y2="39" />
<line x1="391.7092776751128" x2="391.7092776751128" y1="33" y2="45" />
<line x1="444.87530754477285" x2="444.87530754477285" y1="33" y2="45" />
</g>
</g>
<g fill="hsl(120, 100%, 40%)">
<text y="77">takeLargest10.Sync</text>
<text y="77" x="416.05386595276923" text-anchor="end">2.044 s</text>
</g>
<g>
<title>2.044 s ± 170 ms</title>
<rect y="83" rx="5" height="22" width="416.05386595276923" fill="hsl(120, 100%, 80%)" stroke="hsl(120, 100%, 55%)" />
<g stroke="hsl(120, 100%, 40%)"><line x1="381.3433854160661" x2="450.76434648947236" y1="94" y2="94" />
<line x1="381.3433854160661" x2="381.3433854160661" y1="88" y2="100" />
<line x1="450.76434648947236" x2="450.76434648947236" y1="88" y2="100" />
</g>
</g>
<g fill="hsl(240, 100%, 40%)">
<text y="132">displayPathSize.Sync</text>
<text y="132" x="935.776214394264" text-anchor="end">4.596 s</text>
</g>
<g>
<title>4.596 s ±  21 ms</title>
<rect y="138" rx="5" height="22" width="935.776214394264" fill="hsl(240, 100%, 80%)" stroke="hsl(240, 100%, 55%)" />
<g stroke="hsl(240, 100%, 40%)"><line x1="931.552428788528" x2="940.0" y1="149" y2="149" />
<line x1="931.552428788528" x2="931.552428788528" y1="143" y2="155" />
<line x1="940.0" x2="940.0" y1="143" y2="155" />
</g>
</g>
</g>
</svg>
