<svg xmlns="http://www.w3.org/2000/svg" height="1877" width="960.0" font-size="16" font-family="sans-serif" stroke-width="2">
<g transform="translate(10.0 0)">
<text fill="hsl(0, 100%, 40%)" y="22">pathSizeRecursive.flat.100 383  μs</text>
<g>
<title>383  μs ±  30 μs</title>
<rect y="28" rx="5" height="22" width="0.02853942765949112" fill="hsl(0, 100%, 80%)" stroke="hsl(0, 100%, 55%)" />
<g stroke="hsl(0, 100%, 40%)"><line x1="0.026339125271953662" x2="0.03073973004702858" y1="39" y2="39" />
<line x1="0.026339125271953662" x2="0.026339125271953662" y1="33" y2="45" />
<line x1="0.03073973004702858" x2="0.03073973004702858" y1="33" y2="45" />
</g>
</g>
<text fill="hsl(10, 100%, 40%)" y="77">pathSizeRecursive.flat.100 - Async 473  μs</text>
<g>
<title>473  μs ±  30 μs</title>
<rect y="83" rx="5" height="22" width="0.035311136315559204" fill="hsl(10, 100%, 80%)" stroke="hsl(10, 100%, 55%)" />
<g stroke="hsl(10, 100%, 40%)"><line x1="0.03305337778137211" x2="0.0375688948497463" y1="94" y2="94" />
<line x1="0.03305337778137211" x2="0.03305337778137211" y1="88" y2="100" />
<line x1="0.0375688948497463" x2="0.0375688948497463" y1="88" y2="100" />
</g>
</g>
<text fill="hsl(21, 100%, 40%)" y="132">pathSizeRecursive.flat.100 - Parallel 450  μs</text>
<g>
<title>450  μs ±  31 μs</title>
<rect y="138" rx="5" height="22" width="0.033576702484132415" fill="hsl(21, 100%, 80%)" stroke="hsl(21, 100%, 55%)" />
<g stroke="hsl(21, 100%, 40%)"><line x1="0.03125391112103752" x2="0.03589949384722731" y1="149" y2="149" />
<line x1="0.03125391112103752" x2="0.03125391112103752" y1="143" y2="155" />
<line x1="0.03589949384722731" x2="0.03589949384722731" y1="143" y2="155" />
</g>
</g>
<text fill="hsl(31, 100%, 40%)" y="187">pathSizeRecursive.flat.1,000 6.89 ms</text>
<g>
<title>6.89 ms ± 514 μs</title>
<rect y="193" rx="5" height="22" width="0.5138522483109507" fill="hsl(31, 100%, 80%)" stroke="hsl(31, 100%, 55%)" />
<g stroke="hsl(31, 100%, 40%)"><line x1="0.47550410366120044" x2="0.5522003929607009" y1="204" y2="204" />
<line x1="0.47550410366120044" x2="0.47550410366120044" y1="198" y2="210" />
<line x1="0.5522003929607009" x2="0.5522003929607009" y1="198" y2="210" />
</g>
</g>
<text fill="hsl(42, 100%, 40%)" y="242">pathSizeRecursive.flat.1,000 - Async 10.8 ms</text>
<g>
<title>10.8 ms ± 363 μs</title>
<rect y="248" rx="5" height="22" width="0.8056529994407842" fill="hsl(42, 100%, 80%)" stroke="hsl(42, 100%, 55%)" />
<g stroke="hsl(42, 100%, 40%)"><line x1="0.778603522133535" x2="0.8327024767480333" y1="259" y2="259" />
<line x1="0.778603522133535" x2="0.778603522133535" y1="253" y2="265" />
<line x1="0.8327024767480333" x2="0.8327024767480333" y1="253" y2="265" />
</g>
</g>
<text fill="hsl(52, 100%, 40%)" y="297">pathSizeRecursive.flat.1,000 - Parallel 10.3 ms</text>
<g>
<title>10.3 ms ± 464 μs</title>
<rect y="303" rx="5" height="22" width="0.7668554508823165" fill="hsl(52, 100%, 80%)" stroke="hsl(52, 100%, 55%)" />
<g stroke="hsl(52, 100%, 40%)"><line x1="0.7322239262591739" x2="0.8014869755054592" y1="314" y2="314" />
<line x1="0.7322239262591739" x2="0.7322239262591739" y1="308" y2="320" />
<line x1="0.8014869755054592" x2="0.8014869755054592" y1="308" y2="320" />
</g>
</g>
<text fill="hsl(63, 100%, 40%)" y="352">pathSizeRecursive.flat.10,000 143  ms</text>
<g>
<title>143  ms ±  11 ms</title>
<rect y="358" rx="5" height="22" width="10.690111042686675" fill="hsl(63, 100%, 80%)" stroke="hsl(63, 100%, 55%)" />
<g stroke="hsl(63, 100%, 40%)"><line x1="9.876166723379878" x2="11.504055361993473" y1="369" y2="369" />
<line x1="9.876166723379878" x2="9.876166723379878" y1="363" y2="375" />
<line x1="11.504055361993473" x2="11.504055361993473" y1="363" y2="375" />
</g>
</g>
<text fill="hsl(74, 100%, 40%)" y="407">pathSizeRecursive.flat.10,000 - Async 186  ms</text>
<g>
<title>186  ms ± 6.8 ms</title>
<rect y="413" rx="5" height="22" width="13.837464673732892" fill="hsl(74, 100%, 80%)" stroke="hsl(74, 100%, 55%)" />
<g stroke="hsl(74, 100%, 40%)"><line x1="13.33172330882622" x2="14.343206038639565" y1="424" y2="424" />
<line x1="13.33172330882622" x2="13.33172330882622" y1="418" y2="430" />
<line x1="14.343206038639565" x2="14.343206038639565" y1="418" y2="430" />
</g>
</g>
<text fill="hsl(84, 100%, 40%)" y="462">pathSizeRecursive.flat.10,000 - Parallel 209  ms</text>
<g>
<title>209  ms ± 3.6 ms</title>
<rect y="468" rx="5" height="22" width="15.615035982760038" fill="hsl(84, 100%, 80%)" stroke="hsl(84, 100%, 55%)" />
<g stroke="hsl(84, 100%, 40%)"><line x1="15.349526809361421" x2="15.880545156158654" y1="479" y2="479" />
<line x1="15.349526809361421" x2="15.349526809361421" y1="473" y2="485" />
<line x1="15.880545156158654" x2="15.880545156158654" y1="473" y2="485" />
</g>
</g>
<text fill="hsl(95, 100%, 40%)" y="517">pathSizeRecursive.sparse.d = 6 104  ms</text>
<g>
<title>104  ms ± 7.0 ms</title>
<rect y="523" rx="5" height="22" width="7.774196288741431" fill="hsl(95, 100%, 80%)" stroke="hsl(95, 100%, 55%)" />
<g stroke="hsl(95, 100%, 40%)"><line x1="7.249998825870999" x2="8.298393751611862" y1="534" y2="534" />
<line x1="7.249998825870999" x2="7.249998825870999" y1="528" y2="540" />
<line x1="8.298393751611862" x2="8.298393751611862" y1="528" y2="540" />
</g>
</g>
<text fill="hsl(105, 100%, 40%)" y="572">pathSizeRecursive.sparse.d = 6 - Async 156  ms</text>
<g>
<title>156  ms ± 8.2 ms</title>
<rect y="578" rx="5" height="22" width="11.654006685047667" fill="hsl(105, 100%, 80%)" stroke="hsl(105, 100%, 55%)" />
<g stroke="hsl(105, 100%, 40%)"><line x1="11.040884641153154" x2="12.26712872894218" y1="589" y2="589" />
<line x1="11.040884641153154" x2="11.040884641153154" y1="583" y2="595" />
<line x1="12.26712872894218" x2="12.26712872894218" y1="583" y2="595" />
</g>
</g>
<text fill="hsl(116, 100%, 40%)" y="627">pathSizeRecursive.sparse.d = 6 - Parallel 128  ms</text>
<g>
<title>128  ms ± 3.4 ms</title>
<rect y="633" rx="5" height="22" width="9.514464456372847" fill="hsl(116, 100%, 80%)" stroke="hsl(116, 100%, 55%)" />
<g stroke="hsl(116, 100%, 40%)"><line x1="9.25886067743072" x2="9.770068235314975" y1="644" y2="644" />
<line x1="9.25886067743072" x2="9.25886067743072" y1="638" y2="650" />
<line x1="9.770068235314975" x2="9.770068235314975" y1="638" y2="650" />
</g>
</g>
<text fill="hsl(127, 100%, 40%)" y="682">pathSizeRecursive.sparse.d = 8 496  ms</text>
<g>
<title>496  ms ± 6.6 ms</title>
<rect y="688" rx="5" height="22" width="36.99351986878261" fill="hsl(127, 100%, 80%)" stroke="hsl(127, 100%, 55%)" />
<g stroke="hsl(127, 100%, 40%)"><line x1="36.503264727951986" x2="37.48377500961324" y1="699" y2="699" />
<line x1="36.503264727951986" x2="36.503264727951986" y1="693" y2="705" />
<line x1="37.48377500961324" x2="37.48377500961324" y1="693" y2="705" />
</g>
</g>
<text fill="hsl(137, 100%, 40%)" y="737">pathSizeRecursive.sparse.d = 8 - Async 889  ms</text>
<g>
<title>889  ms ±  36 ms</title>
<rect y="743" rx="5" height="22" width="66.3344106481562" fill="hsl(137, 100%, 80%)" stroke="hsl(137, 100%, 55%)" />
<g stroke="hsl(137, 100%, 40%)"><line x1="63.61944260918987" x2="69.04937868712251" y1="754" y2="754" />
<line x1="63.61944260918987" x2="63.61944260918987" y1="748" y2="760" />
<line x1="69.04937868712251" x2="69.04937868712251" y1="748" y2="760" />
</g>
</g>
<text fill="hsl(148, 100%, 40%)" y="792">pathSizeRecursive.sparse.d = 8 - Parallel 632  ms</text>
<g>
<title>632  ms ±  34 ms</title>
<rect y="798" rx="5" height="22" width="47.1598397195645" fill="hsl(148, 100%, 80%)" stroke="hsl(148, 100%, 55%)" />
<g stroke="hsl(148, 100%, 40%)"><line x1="44.614137819469256" x2="49.70554161965975" y1="809" y2="809" />
<line x1="44.614137819469256" x2="44.614137819469256" y1="803" y2="815" />
<line x1="49.70554161965975" x2="49.70554161965975" y1="803" y2="815" />
</g>
</g>
<text fill="hsl(158, 100%, 40%)" y="847">pathSizeRecursive.sparse.d = 10 2.275 s</text>
<g>
<title>2.275 s ±  32 ms</title>
<rect y="853" rx="5" height="22" width="169.68248067119063" fill="hsl(158, 100%, 80%)" stroke="hsl(158, 100%, 55%)" />
<g stroke="hsl(158, 100%, 40%)"><line x1="167.27862368970636" x2="172.0863376526749" y1="864" y2="864" />
<line x1="167.27862368970636" x2="167.27862368970636" y1="858" y2="870" />
<line x1="172.0863376526749" x2="172.0863376526749" y1="858" y2="870" />
</g>
</g>
<text fill="hsl(169, 100%, 40%)" y="902">pathSizeRecursive.sparse.d = 10 - Async 5.037 s</text>
<g>
<title>5.037 s ±  72 ms</title>
<rect y="908" rx="5" height="22" width="375.6456150135762" fill="hsl(169, 100%, 80%)" stroke="hsl(169, 100%, 55%)" />
<g stroke="hsl(169, 100%, 40%)"><line x1="370.2861556235072" x2="381.0050744036452" y1="919" y2="919" />
<line x1="370.2861556235072" x2="370.2861556235072" y1="913" y2="925" />
<line x1="381.0050744036452" x2="381.0050744036452" y1="913" y2="925" />
</g>
</g>
<text fill="hsl(180, 100%, 40%)" y="957">pathSizeRecursive.sparse.d = 10 - Parallel 2.770 s</text>
<g>
<title>2.770 s ± 5.6 ms</title>
<rect y="963" rx="5" height="22" width="206.5736696262605" fill="hsl(180, 100%, 80%)" stroke="hsl(180, 100%, 55%)" />
<g stroke="hsl(180, 100%, 40%)"><line x1="206.15419128941429" x2="206.99314796310674" y1="974" y2="974" />
<line x1="206.15419128941429" x2="206.15419128941429" y1="968" y2="980" />
<line x1="206.99314796310674" x2="206.99314796310674" y1="968" y2="980" />
</g>
</g>
<text fill="hsl(190, 100%, 40%)" y="1012">pathSizeRecursive.dense.d = 6 226  ms</text>
<g>
<title>226  ms ±  11 ms</title>
<rect y="1018" rx="5" height="22" width="16.864154627975687" fill="hsl(190, 100%, 80%)" stroke="hsl(190, 100%, 55%)" />
<g stroke="hsl(190, 100%, 40%)"><line x1="16.014154367035403" x2="17.71415488891597" y1="1029" y2="1029" />
<line x1="16.014154367035403" x2="16.014154367035403" y1="1023" y2="1035" />
<line x1="17.71415488891597" x2="17.71415488891597" y1="1023" y2="1035" />
</g>
</g>
<text fill="hsl(201, 100%, 40%)" y="1067">pathSizeRecursive.dense.d = 6 - Async 344  ms</text>
<g>
<title>344  ms ± 5.6 ms</title>
<rect y="1073" rx="5" height="22" width="25.64842832434053" fill="hsl(201, 100%, 80%)" stroke="hsl(201, 100%, 55%)" />
<g stroke="hsl(201, 100%, 40%)"><line x1="25.23335993786343" x2="26.063496710817628" y1="1084" y2="1084" />
<line x1="25.23335993786343" x2="25.23335993786343" y1="1078" y2="1090" />
<line x1="26.063496710817628" x2="26.063496710817628" y1="1078" y2="1090" />
</g>
</g>
<text fill="hsl(211, 100%, 40%)" y="1122">pathSizeRecursive.dense.d = 6 - Parallel 268  ms</text>
<g>
<title>268  ms ±  17 ms</title>
<rect y="1128" rx="5" height="22" width="20.01614804277819" fill="hsl(211, 100%, 80%)" stroke="hsl(211, 100%, 55%)" />
<g stroke="hsl(211, 100%, 40%)"><line x1="18.78464615545384" x2="21.247649930102543" y1="1139" y2="1139" />
<line x1="18.78464615545384" x2="18.78464615545384" y1="1133" y2="1145" />
<line x1="21.247649930102543" x2="21.247649930102543" y1="1133" y2="1145" />
</g>
</g>
<text fill="hsl(222, 100%, 40%)" y="1177">pathSizeRecursive.dense.d = 8 950  ms</text>
<g>
<title>950  ms ±  49 ms</title>
<rect y="1183" rx="5" height="22" width="70.86091342102831" fill="hsl(222, 100%, 80%)" stroke="hsl(222, 100%, 55%)" />
<g stroke="hsl(222, 100%, 40%)"><line x1="67.21617457737123" x2="74.5056522646854" y1="1194" y2="1194" />
<line x1="67.21617457737123" x2="67.21617457737123" y1="1188" y2="1200" />
<line x1="74.5056522646854" x2="74.5056522646854" y1="1188" y2="1200" />
</g>
</g>
<text fill="hsl(232, 100%, 40%)" y="1232">pathSizeRecursive.dense.d = 8 - Async 1.967 s</text>
<g>
<title>1.967 s ± 2.9 ms</title>
<rect y="1238" rx="5" height="22" width="146.71136354171313" fill="hsl(232, 100%, 80%)" stroke="hsl(232, 100%, 55%)" />
<g stroke="hsl(232, 100%, 40%)"><line x1="146.49421726581727" x2="146.92850981760898" y1="1249" y2="1249" />
<line x1="146.49421726581727" x2="146.49421726581727" y1="1243" y2="1255" />
<line x1="146.92850981760898" x2="146.92850981760898" y1="1243" y2="1255" />
</g>
</g>
<text fill="hsl(243, 100%, 40%)" y="1287">pathSizeRecursive.dense.d = 8 - Parallel 1.227 s</text>
<g>
<title>1.227 s ± 107 ms</title>
<rect y="1293" rx="5" height="22" width="91.49365119474689" fill="hsl(243, 100%, 80%)" stroke="hsl(243, 100%, 55%)" />
<g stroke="hsl(243, 100%, 40%)"><line x1="83.54405399664653" x2="99.44324839284725" y1="1304" y2="1304" />
<line x1="83.54405399664653" x2="83.54405399664653" y1="1298" y2="1310" />
<line x1="99.44324839284725" x2="99.44324839284725" y1="1298" y2="1310" />
</g>
</g>
<g fill="hsl(254, 100%, 40%)">
<text y="1342">pathSizeRecursive.dense.d = 10</text>
<text y="1342" x="318.9530934401447" text-anchor="end">4.277 s</text>
</g>
<g>
<title>4.277 s ± 393 ms</title>
<rect y="1348" rx="5" height="22" width="318.9530934401447" fill="hsl(254, 100%, 80%)" stroke="hsl(254, 100%, 55%)" />
<g stroke="hsl(254, 100%, 40%)"><line x1="289.63540172304636" x2="348.27078515724304" y1="1359" y2="1359" />
<line x1="289.63540172304636" x2="289.63540172304636" y1="1353" y2="1365" />
<line x1="348.27078515724304" x2="348.27078515724304" y1="1353" y2="1365" />
</g>
</g>
<g fill="hsl(264, 100%, 40%)">
<text y="1397">pathSizeRecursive.dense.d = 10 - Async</text>
<text y="1397" x="903.4320976242117" text-anchor="end">12.113 s</text>
</g>
<g>
<title>12.113 s ± 490 ms</title>
<rect y="1403" rx="5" height="22" width="903.4320976242117" fill="hsl(264, 100%, 80%)" stroke="hsl(264, 100%, 55%)" />
<g stroke="hsl(264, 100%, 40%)"><line x1="866.8641952484234" x2="940.0" y1="1414" y2="1414" />
<line x1="866.8641952484234" x2="866.8641952484234" y1="1408" y2="1420" />
<line x1="940.0" x2="940.0" y1="1408" y2="1420" />
</g>
</g>
<g fill="hsl(275, 100%, 40%)">
<text y="1452">pathSizeRecursive.dense.d = 10 - Parallel</text>
<text y="1452" x="397.999509495501" text-anchor="end">5.336 s</text>
</g>
<g>
<title>5.336 s ± 528 ms</title>
<rect y="1458" rx="5" height="22" width="397.999509495501" fill="hsl(275, 100%, 80%)" stroke="hsl(275, 100%, 55%)" />
<g stroke="hsl(275, 100%, 40%)"><line x1="358.6033398666052" x2="437.3956791243968" y1="1469" y2="1469" />
<line x1="358.6033398666052" x2="358.6033398666052" y1="1463" y2="1475" />
<line x1="437.3956791243968" x2="437.3956791243968" y1="1463" y2="1475" />
</g>
</g>
<g fill="hsl(285, 100%, 40%)">
<text y="1507">largestN.1</text>
<text y="1507" x="257.6636729225646" text-anchor="end">3.455 s</text>
</g>
<g>
<title>3.455 s ±  99 ms</title>
<rect y="1513" rx="5" height="22" width="257.6636729225646" fill="hsl(285, 100%, 80%)" stroke="hsl(285, 100%, 55%)" />
<g stroke="hsl(285, 100%, 40%)"><line x1="250.3161804306344" x2="265.0111654144948" y1="1524" y2="1524" />
<line x1="250.3161804306344" x2="250.3161804306344" y1="1518" y2="1530" />
<line x1="265.0111654144948" x2="265.0111654144948" y1="1518" y2="1530" />
</g>
</g>
<g fill="hsl(296, 100%, 40%)">
<text y="1562">largestN.10</text>
<text y="1562" x="263.9042878940027" text-anchor="end">3.538 s</text>
</g>
<g>
<title>3.538 s ± 150 ms</title>
<rect y="1568" rx="5" height="22" width="263.9042878940027" fill="hsl(296, 100%, 80%)" stroke="hsl(296, 100%, 55%)" />
<g stroke="hsl(296, 100%, 40%)"><line x1="252.68863619743678" x2="275.11993959056866" y1="1579" y2="1579" />
<line x1="252.68863619743678" x2="252.68863619743678" y1="1573" y2="1585" />
<line x1="275.11993959056866" x2="275.11993959056866" y1="1573" y2="1585" />
</g>
</g>
<g fill="hsl(307, 100%, 40%)">
<text y="1617">largestN.100</text>
<text y="1617" x="270.3659384931618" text-anchor="end">3.625 s</text>
</g>
<g>
<title>3.625 s ±  42 ms</title>
<rect y="1623" rx="5" height="22" width="270.3659384931618" fill="hsl(307, 100%, 80%)" stroke="hsl(307, 100%, 55%)" />
<g stroke="hsl(307, 100%, 40%)"><line x1="267.2560796130996" x2="273.47579737322405" y1="1634" y2="1634" />
<line x1="267.2560796130996" x2="267.2560796130996" y1="1628" y2="1640" />
<line x1="273.47579737322405" x2="273.47579737322405" y1="1628" y2="1640" />
</g>
</g>
<g fill="hsl(317, 100%, 40%)">
<text y="1672">largestN.1,000</text>
<text y="1672" x="266.1346042130841" text-anchor="end">3.568 s</text>
</g>
<g>
<title>3.568 s ± 282 ms</title>
<rect y="1678" rx="5" height="22" width="266.1346042130841" fill="hsl(317, 100%, 80%)" stroke="hsl(317, 100%, 55%)" />
<g stroke="hsl(317, 100%, 40%)"><line x1="245.1023560540027" x2="287.1668523721655" y1="1689" y2="1689" />
<line x1="245.1023560540027" x2="245.1023560540027" y1="1683" y2="1695" />
<line x1="287.1668523721655" x2="287.1668523721655" y1="1683" y2="1695" />
</g>
</g>
<text fill="hsl(328, 100%, 40%)" y="1727">displayPathSize.d = 6 367  ms</text>
<g>
<title>367  ms ±  30 ms</title>
<rect y="1733" rx="5" height="22" width="27.353584092427297" fill="hsl(328, 100%, 80%)" stroke="hsl(328, 100%, 55%)" />
<g stroke="hsl(328, 100%, 40%)"><line x1="25.134332717902875" x2="29.57283546695172" y1="1744" y2="1744" />
<line x1="25.134332717902875" x2="25.134332717902875" y1="1738" y2="1750" />
<line x1="29.57283546695172" x2="29.57283546695172" y1="1738" y2="1750" />
</g>
</g>
<text fill="hsl(338, 100%, 40%)" y="1782">displayPathSize.d = 8 1.837 s</text>
<g>
<title>1.837 s ±  88 ms</title>
<rect y="1788" rx="5" height="22" width="137.0265895728097" fill="hsl(338, 100%, 80%)" stroke="hsl(338, 100%, 55%)" />
<g stroke="hsl(338, 100%, 40%)"><line x1="130.4582924206549" x2="143.5948867249645" y1="1799" y2="1799" />
<line x1="130.4582924206549" x2="130.4582924206549" y1="1793" y2="1805" />
<line x1="143.5948867249645" x2="143.5948867249645" y1="1793" y2="1805" />
</g>
</g>
<g fill="hsl(349, 100%, 40%)">
<text y="1837">displayPathSize.d = 10</text>
<text y="1837" x="640.0769392747577" text-anchor="end">8.582 s</text>
</g>
<g>
<title>8.582 s ± 197 ms</title>
<rect y="1843" rx="5" height="22" width="640.0769392747577" fill="hsl(349, 100%, 80%)" stroke="hsl(349, 100%, 55%)" />
<g stroke="hsl(349, 100%, 40%)"><line x1="625.4177108501377" x2="654.7361676993777" y1="1854" y2="1854" />
<line x1="625.4177108501377" x2="625.4177108501377" y1="1848" y2="1860" />
<line x1="654.7361676993777" x2="654.7361676993777" y1="1848" y2="1860" />
</g>
</g>
</g>
</svg>
