<svg xmlns="http://www.w3.org/2000/svg" height="1382" width="960.0" font-size="16" font-family="sans-serif" stroke-width="2">
<g transform="translate(10.0 0)">
<text fill="hsl(0, 100%, 40%)" y="22">pathSizeRecursive.flat.100 371  μs</text>
<g>
<title>371  μs ±  22 μs</title>
<rect y="28" rx="5" height="22" width="0.026472724303378534" fill="hsl(0, 100%, 80%)" stroke="hsl(0, 100%, 55%)" />
<g stroke="hsl(0, 100%, 40%)"><line x1="0.024923164520138905" x2="0.028022284086618162" y1="39" y2="39" />
<line x1="0.024923164520138905" x2="0.024923164520138905" y1="33" y2="45" />
<line x1="0.028022284086618162" x2="0.028022284086618162" y1="33" y2="45" />
</g>
</g>
<text fill="hsl(14, 100%, 40%)" y="77">pathSizeRecursive.flat.100 - Async 455  μs</text>
<g>
<title>455  μs ±  22 μs</title>
<rect y="83" rx="5" height="22" width="0.032493641911291817" fill="hsl(14, 100%, 80%)" stroke="hsl(14, 100%, 55%)" />
<g stroke="hsl(14, 100%, 40%)"><line x1="0.030911904304981756" x2="0.03407537951760188" y1="94" y2="94" />
<line x1="0.030911904304981756" x2="0.030911904304981756" y1="88" y2="100" />
<line x1="0.03407537951760188" x2="0.03407537951760188" y1="88" y2="100" />
</g>
</g>
<text fill="hsl(28, 100%, 40%)" y="132">pathSizeRecursive.flat.1,000 6.38 ms</text>
<g>
<title>6.38 ms ± 358 μs</title>
<rect y="138" rx="5" height="22" width="0.4552441866770685" fill="hsl(28, 100%, 80%)" stroke="hsl(28, 100%, 55%)" />
<g stroke="hsl(28, 100%, 40%)"><line x1="0.42973009032669307" x2="0.48075828302744394" y1="149" y2="149" />
<line x1="0.42973009032669307" x2="0.42973009032669307" y1="143" y2="155" />
<line x1="0.48075828302744394" x2="0.48075828302744394" y1="143" y2="155" />
</g>
</g>
<text fill="hsl(43, 100%, 40%)" y="187">pathSizeRecursive.flat.1,000 - Async 10.7 ms</text>
<g>
<title>10.7 ms ± 188 μs</title>
<rect y="193" rx="5" height="22" width="0.7600870476981727" fill="hsl(43, 100%, 80%)" stroke="hsl(43, 100%, 55%)" />
<g stroke="hsl(43, 100%, 40%)"><line x1="0.7466437017605778" x2="0.7735303936357676" y1="204" y2="204" />
<line x1="0.7466437017605778" x2="0.7466437017605778" y1="198" y2="210" />
<line x1="0.7735303936357676" x2="0.7735303936357676" y1="198" y2="210" />
</g>
</g>
<text fill="hsl(57, 100%, 40%)" y="242">pathSizeRecursive.flat.10,000 136  ms</text>
<g>
<title>136  ms ± 7.0 ms</title>
<rect y="248" rx="5" height="22" width="9.678695719033225" fill="hsl(57, 100%, 80%)" stroke="hsl(57, 100%, 55%)" />
<g stroke="hsl(57, 100%, 40%)"><line x1="9.176753041550677" x2="10.180638396515773" y1="259" y2="259" />
<line x1="9.176753041550677" x2="9.176753041550677" y1="253" y2="265" />
<line x1="10.180638396515773" x2="10.180638396515773" y1="253" y2="265" />
</g>
</g>
<text fill="hsl(72, 100%, 40%)" y="297">pathSizeRecursive.flat.10,000 - Async 187  ms</text>
<g>
<title>187  ms ±  14 ms</title>
<rect y="303" rx="5" height="22" width="13.330229932517408" fill="hsl(72, 100%, 80%)" stroke="hsl(72, 100%, 55%)" />
<g stroke="hsl(72, 100%, 40%)"><line x1="12.322217271905556" x2="14.33824259312926" y1="314" y2="314" />
<line x1="12.322217271905556" x2="12.322217271905556" y1="308" y2="320" />
<line x1="14.33824259312926" x2="14.33824259312926" y1="308" y2="320" />
</g>
</g>
<text fill="hsl(86, 100%, 40%)" y="352">pathSizeRecursive.sparse.d = 6 103  ms</text>
<g>
<title>103  ms ± 1.7 ms</title>
<rect y="358" rx="5" height="22" width="7.315437035869725" fill="hsl(86, 100%, 80%)" stroke="hsl(86, 100%, 55%)" />
<g stroke="hsl(86, 100%, 40%)"><line x1="7.190762525948877" x2="7.4401115457905735" y1="369" y2="369" />
<line x1="7.190762525948877" x2="7.190762525948877" y1="363" y2="375" />
<line x1="7.4401115457905735" x2="7.4401115457905735" y1="363" y2="375" />
</g>
</g>
<text fill="hsl(100, 100%, 40%)" y="407">pathSizeRecursive.sparse.d = 6 - Async 155  ms</text>
<g>
<title>155  ms ± 8.9 ms</title>
<rect y="413" rx="5" height="22" width="11.052005901930658" fill="hsl(100, 100%, 80%)" stroke="hsl(100, 100%, 55%)" />
<g stroke="hsl(100, 100%, 40%)"><line x1="10.420532900295251" x2="11.683478903566064" y1="424" y2="424" />
<line x1="10.420532900295251" x2="10.420532900295251" y1="418" y2="430" />
<line x1="11.683478903566064" x2="11.683478903566064" y1="418" y2="430" />
</g>
</g>
<text fill="hsl(115, 100%, 40%)" y="462">pathSizeRecursive.sparse.d = 8 484  ms</text>
<g>
<title>484  ms ±  38 ms</title>
<rect y="468" rx="5" height="22" width="34.512152492124265" fill="hsl(115, 100%, 80%)" stroke="hsl(115, 100%, 55%)" />
<g stroke="hsl(115, 100%, 40%)"><line x1="31.77229966468462" x2="37.25200531956391" y1="479" y2="479" />
<line x1="31.77229966468462" x2="31.77229966468462" y1="473" y2="485" />
<line x1="37.25200531956391" x2="37.25200531956391" y1="473" y2="485" />
</g>
</g>
<text fill="hsl(129, 100%, 40%)" y="517">pathSizeRecursive.sparse.d = 8 - Async 890  ms</text>
<g>
<title>890  ms ±  83 ms</title>
<rect y="523" rx="5" height="22" width="63.46034761988394" fill="hsl(129, 100%, 80%)" stroke="hsl(129, 100%, 55%)" />
<g stroke="hsl(129, 100%, 40%)"><line x1="57.50975732015244" x2="69.41093791961544" y1="534" y2="534" />
<line x1="57.50975732015244" x2="57.50975732015244" y1="528" y2="540" />
<line x1="69.41093791961544" x2="69.41093791961544" y1="528" y2="540" />
</g>
</g>
<text fill="hsl(144, 100%, 40%)" y="572">pathSizeRecursive.sparse.d = 10 2.114 s</text>
<g>
<title>2.114 s ± 123 ms</title>
<rect y="578" rx="5" height="22" width="150.83083855615115" fill="hsl(144, 100%, 80%)" stroke="hsl(144, 100%, 55%)" />
<g stroke="hsl(144, 100%, 40%)"><line x1="142.04490416970523" x2="159.61677294259707" y1="589" y2="589" />
<line x1="142.04490416970523" x2="142.04490416970523" y1="583" y2="595" />
<line x1="159.61677294259707" x2="159.61677294259707" y1="583" y2="595" />
</g>
</g>
<g fill="hsl(158, 100%, 40%)">
<text y="627">pathSizeRecursive.sparse.d = 10 - Async</text>
<text y="627" x="402.55172663940203" text-anchor="end">5.643 s</text>
</g>
<g>
<title>5.643 s ± 207 ms</title>
<rect y="633" rx="5" height="22" width="402.55172663940203" fill="hsl(158, 100%, 80%)" stroke="hsl(158, 100%, 55%)" />
<g stroke="hsl(158, 100%, 40%)"><line x1="387.7599355168858" x2="417.3435177619183" y1="644" y2="644" />
<line x1="387.7599355168858" x2="387.7599355168858" y1="638" y2="650" />
<line x1="417.3435177619183" x2="417.3435177619183" y1="638" y2="650" />
</g>
</g>
<text fill="hsl(172, 100%, 40%)" y="682">pathSizeRecursive.dense.d = 6 232  ms</text>
<g>
<title>232  ms ±  23 ms</title>
<rect y="688" rx="5" height="22" width="16.540738553709478" fill="hsl(172, 100%, 80%)" stroke="hsl(172, 100%, 55%)" />
<g stroke="hsl(172, 100%, 40%)"><line x1="14.930238912528646" x2="18.15123819489031" y1="699" y2="699" />
<line x1="14.930238912528646" x2="14.930238912528646" y1="693" y2="705" />
<line x1="18.15123819489031" x2="18.15123819489031" y1="693" y2="705" />
</g>
</g>
<text fill="hsl(187, 100%, 40%)" y="737">pathSizeRecursive.dense.d = 6 - Async 351  ms</text>
<g>
<title>351  ms ±  22 ms</title>
<rect y="743" rx="5" height="22" width="25.074922858773657" fill="hsl(187, 100%, 80%)" stroke="hsl(187, 100%, 55%)" />
<g stroke="hsl(187, 100%, 40%)"><line x1="23.4807415751966" x2="26.669104142350715" y1="754" y2="754" />
<line x1="23.4807415751966" x2="23.4807415751966" y1="748" y2="760" />
<line x1="26.669104142350715" x2="26.669104142350715" y1="748" y2="760" />
</g>
</g>
<text fill="hsl(201, 100%, 40%)" y="792">pathSizeRecursive.dense.d = 8 911  ms</text>
<g>
<title>911  ms ±  31 ms</title>
<rect y="798" rx="5" height="22" width="65.0009519103415" fill="hsl(201, 100%, 80%)" stroke="hsl(201, 100%, 55%)" />
<g stroke="hsl(201, 100%, 40%)"><line x1="62.759986759250474" x2="67.24191706143252" y1="809" y2="809" />
<line x1="62.759986759250474" x2="62.759986759250474" y1="803" y2="815" />
<line x1="67.24191706143252" x2="67.24191706143252" y1="803" y2="815" />
</g>
</g>
<text fill="hsl(216, 100%, 40%)" y="847">pathSizeRecursive.dense.d = 8 - Async 2.019 s</text>
<g>
<title>2.019 s ± 164 ms</title>
<rect y="853" rx="5" height="22" width="144.0338374971604" fill="hsl(216, 100%, 80%)" stroke="hsl(216, 100%, 55%)" />
<g stroke="hsl(216, 100%, 40%)"><line x1="132.32719324975736" x2="155.74048174456343" y1="864" y2="864" />
<line x1="132.32719324975736" x2="132.32719324975736" y1="858" y2="870" />
<line x1="155.74048174456343" x2="155.74048174456343" y1="858" y2="870" />
</g>
</g>
<text fill="hsl(230, 100%, 40%)" y="902">pathSizeRecursive.dense.d = 10 4.019 s</text>
<g>
<title>4.019 s ±  50 ms</title>
<rect y="908" rx="5" height="22" width="286.72153123179027" fill="hsl(230, 100%, 80%)" stroke="hsl(230, 100%, 55%)" />
<g stroke="hsl(230, 100%, 40%)"><line x1="283.15911291182147" x2="290.28394955175906" y1="919" y2="919" />
<line x1="283.15911291182147" x2="283.15911291182147" y1="913" y2="925" />
<line x1="290.28394955175906" x2="290.28394955175906" y1="913" y2="925" />
</g>
</g>
<g fill="hsl(244, 100%, 40%)">
<text y="957">pathSizeRecursive.dense.d = 10 - Async</text>
<text y="957" x="932.1824870299082" text-anchor="end">13.067 s</text>
</g>
<g>
<title>13.067 s ± 110 ms</title>
<rect y="963" rx="5" height="22" width="932.1824870299082" fill="hsl(244, 100%, 80%)" stroke="hsl(244, 100%, 55%)" />
<g stroke="hsl(244, 100%, 40%)"><line x1="924.3649740598164" x2="940.0" y1="974" y2="974" />
<line x1="924.3649740598164" x2="924.3649740598164" y1="968" y2="980" />
<line x1="940.0" x2="940.0" y1="968" y2="980" />
</g>
</g>
<g fill="hsl(259, 100%, 40%)">
<text y="1012">largestN.1</text>
<text y="1012" x="225.11849734869426" text-anchor="end">3.156 s</text>
</g>
<g>
<title>3.156 s ± 274 ms</title>
<rect y="1018" rx="5" height="22" width="225.11849734869426" fill="hsl(259, 100%, 80%)" stroke="hsl(259, 100%, 55%)" />
<g stroke="hsl(259, 100%, 40%)"><line x1="205.58815761136967" x2="244.64883708601886" y1="1029" y2="1029" />
<line x1="205.58815761136967" x2="205.58815761136967" y1="1023" y2="1035" />
<line x1="244.64883708601886" x2="244.64883708601886" y1="1023" y2="1035" />
</g>
</g>
<g fill="hsl(273, 100%, 40%)">
<text y="1067">largestN.10</text>
<text y="1067" x="255.0180266045548" text-anchor="end">3.575 s</text>
</g>
<g>
<title>3.575 s ±  65 ms</title>
<rect y="1073" rx="5" height="22" width="255.0180266045548" fill="hsl(273, 100%, 80%)" stroke="hsl(273, 100%, 55%)" />
<g stroke="hsl(273, 100%, 40%)"><line x1="250.40609755003175" x2="259.62995565907784" y1="1084" y2="1084" />
<line x1="250.40609755003175" x2="250.40609755003175" y1="1078" y2="1090" />
<line x1="259.62995565907784" x2="259.62995565907784" y1="1078" y2="1090" />
</g>
</g>
<g fill="hsl(288, 100%, 40%)">
<text y="1122">largestN.100</text>
<text y="1122" x="274.5237569480522" text-anchor="end">3.848 s</text>
</g>
<g>
<title>3.848 s ± 320 ms</title>
<rect y="1128" rx="5" height="22" width="274.5237569480522" fill="hsl(288, 100%, 80%)" stroke="hsl(288, 100%, 55%)" />
<g stroke="hsl(288, 100%, 40%)"><line x1="251.71771883826796" x2="297.32979505783646" y1="1139" y2="1139" />
<line x1="251.71771883826796" x2="251.71771883826796" y1="1133" y2="1145" />
<line x1="297.32979505783646" x2="297.32979505783646" y1="1133" y2="1145" />
</g>
</g>
<g fill="hsl(302, 100%, 40%)">
<text y="1177">largestN.1,000</text>
<text y="1177" x="274.4567659326802" text-anchor="end">3.847 s</text>
</g>
<g>
<title>3.847 s ± 249 ms</title>
<rect y="1183" rx="5" height="22" width="274.4567659326802" fill="hsl(302, 100%, 80%)" stroke="hsl(302, 100%, 55%)" />
<g stroke="hsl(302, 100%, 40%)"><line x1="256.6683532114843" x2="292.24517865387605" y1="1194" y2="1194" />
<line x1="256.6683532114843" x2="256.6683532114843" y1="1188" y2="1200" />
<line x1="292.24517865387605" x2="292.24517865387605" y1="1188" y2="1200" />
</g>
</g>
<text fill="hsl(316, 100%, 40%)" y="1232">displayPathSize.d = 6 340  ms</text>
<g>
<title>340  ms ±  27 ms</title>
<rect y="1238" rx="5" height="22" width="24.257848638228737" fill="hsl(316, 100%, 80%)" stroke="hsl(316, 100%, 55%)" />
<g stroke="hsl(316, 100%, 40%)"><line x1="22.320000642734257" x2="26.195696633723216" y1="1249" y2="1249" />
<line x1="22.320000642734257" x2="22.320000642734257" y1="1243" y2="1255" />
<line x1="26.195696633723216" x2="26.195696633723216" y1="1243" y2="1255" />
</g>
</g>
<text fill="hsl(331, 100%, 40%)" y="1287">displayPathSize.d = 8 1.814 s</text>
<g>
<title>1.814 s ± 149 ms</title>
<rect y="1293" rx="5" height="22" width="129.4289197727603" fill="hsl(331, 100%, 80%)" stroke="hsl(331, 100%, 55%)" />
<g stroke="hsl(331, 100%, 40%)"><line x1="118.82693838462919" x2="140.03090116089143" y1="1304" y2="1304" />
<line x1="118.82693838462919" x2="118.82693838462919" y1="1298" y2="1310" />
<line x1="140.03090116089143" x2="140.03090116089143" y1="1298" y2="1310" />
</g>
</g>
<g fill="hsl(345, 100%, 40%)">
<text y="1342">displayPathSize.d = 10</text>
<text y="1342" x="596.3619572515296" text-anchor="end">8.360 s</text>
</g>
<g>
<title>8.360 s ± 458 ms</title>
<rect y="1348" rx="5" height="22" width="596.3619572515296" fill="hsl(345, 100%, 80%)" stroke="hsl(345, 100%, 55%)" />
<g stroke="hsl(345, 100%, 40%)"><line x1="563.6991028429067" x2="629.0248116601525" y1="1359" y2="1359" />
<line x1="563.6991028429067" x2="563.6991028429067" y1="1353" y2="1365" />
<line x1="629.0248116601525" x2="629.0248116601525" y1="1353" y2="1365" />
</g>
</g>
</g>
</svg>
