<svg xmlns="http://www.w3.org/2000/svg" height="887" width="960.0" font-size="16" font-family="sans-serif" stroke-width="2">
<g transform="translate(10.0 0)">
<text fill="hsl(0, 100%, 40%)" y="22">pathSizeRecursive.flat.100 347  μs</text>
<g>
<title>347  μs ±  28 μs</title>
<rect y="28" rx="5" height="22" width="0.03396048933004927" fill="hsl(0, 100%, 80%)" stroke="hsl(0, 100%, 55%)" />
<g stroke="hsl(0, 100%, 40%)"><line x1="0.0312556097058322" x2="0.036665368954266336" y1="39" y2="39" />
<line x1="0.0312556097058322" x2="0.0312556097058322" y1="33" y2="45" />
<line x1="0.036665368954266336" x2="0.036665368954266336" y1="33" y2="45" />
</g>
</g>
<text fill="hsl(22, 100%, 40%)" y="77">pathSizeRecursive.flat.1,000 6.73 ms</text>
<g>
<title>6.73 ms ± 545 μs</title>
<rect y="83" rx="5" height="22" width="0.6594530422634519" fill="hsl(22, 100%, 80%)" stroke="hsl(22, 100%, 55%)" />
<g stroke="hsl(22, 100%, 40%)"><line x1="0.6060332561436758" x2="0.7128728283832281" y1="94" y2="94" />
<line x1="0.6060332561436758" x2="0.6060332561436758" y1="88" y2="100" />
<line x1="0.7128728283832281" x2="0.7128728283832281" y1="88" y2="100" />
</g>
</g>
<text fill="hsl(45, 100%, 40%)" y="132">pathSizeRecursive.flat.10,000 142  ms</text>
<g>
<title>142  ms ± 3.1 ms</title>
<rect y="138" rx="5" height="22" width="13.869631421752546" fill="hsl(45, 100%, 80%)" stroke="hsl(45, 100%, 55%)" />
<g stroke="hsl(45, 100%, 40%)"><line x1="13.56581585495785" x2="14.173446988547242" y1="149" y2="149" />
<line x1="13.56581585495785" x2="13.56581585495785" y1="143" y2="155" />
<line x1="14.173446988547242" x2="14.173446988547242" y1="143" y2="155" />
</g>
</g>
<text fill="hsl(67, 100%, 40%)" y="187">pathSizeRecursive.sparse.d = 6 101  ms</text>
<g>
<title>101  ms ± 7.2 ms</title>
<rect y="193" rx="5" height="22" width="9.853604545449889" fill="hsl(67, 100%, 80%)" stroke="hsl(67, 100%, 55%)" />
<g stroke="hsl(67, 100%, 40%)"><line x1="9.146687681086481" x2="10.560521409813296" y1="204" y2="204" />
<line x1="9.146687681086481" x2="9.146687681086481" y1="198" y2="210" />
<line x1="10.560521409813296" x2="10.560521409813296" y1="198" y2="210" />
</g>
</g>
<text fill="hsl(90, 100%, 40%)" y="242">pathSizeRecursive.sparse.d = 8 502  ms</text>
<g>
<title>502  ms ±  27 ms</title>
<rect y="248" rx="5" height="22" width="49.1693178532944" fill="hsl(90, 100%, 80%)" stroke="hsl(90, 100%, 55%)" />
<g stroke="hsl(90, 100%, 40%)"><line x1="46.55563562471947" x2="51.78300008186933" y1="259" y2="259" />
<line x1="46.55563562471947" x2="46.55563562471947" y1="253" y2="265" />
<line x1="51.78300008186933" x2="51.78300008186933" y1="253" y2="265" />
</g>
</g>
<text fill="hsl(112, 100%, 40%)" y="297">pathSizeRecursive.sparse.d = 10 2.296 s</text>
<g>
<title>2.296 s ±  61 ms</title>
<rect y="303" rx="5" height="22" width="224.98674732249137" fill="hsl(112, 100%, 80%)" stroke="hsl(112, 100%, 55%)" />
<g stroke="hsl(112, 100%, 40%)"><line x1="218.97738117667964" x2="230.9961134683031" y1="314" y2="314" />
<line x1="218.97738117667964" x2="218.97738117667964" y1="308" y2="320" />
<line x1="230.9961134683031" x2="230.9961134683031" y1="308" y2="320" />
</g>
</g>
<text fill="hsl(135, 100%, 40%)" y="352">pathSizeRecursive.dense.d = 6 218  ms</text>
<g>
<title>218  ms ±  17 ms</title>
<rect y="358" rx="5" height="22" width="21.381189398161602" fill="hsl(135, 100%, 80%)" stroke="hsl(135, 100%, 55%)" />
<g stroke="hsl(135, 100%, 40%)"><line x1="19.69370742444039" x2="23.068671371882814" y1="369" y2="369" />
<line x1="19.69370742444039" x2="19.69370742444039" y1="363" y2="375" />
<line x1="23.068671371882814" x2="23.068671371882814" y1="363" y2="375" />
</g>
</g>
<text fill="hsl(157, 100%, 40%)" y="407">pathSizeRecursive.dense.d = 8 946  ms</text>
<g>
<title>946  ms ± 3.5 ms</title>
<rect y="413" rx="5" height="22" width="92.6629262648018" fill="hsl(157, 100%, 80%)" stroke="hsl(157, 100%, 55%)" />
<g stroke="hsl(157, 100%, 40%)"><line x1="92.32343051087207" x2="93.00242201873152" y1="424" y2="424" />
<line x1="92.32343051087207" x2="92.32343051087207" y1="418" y2="430" />
<line x1="93.00242201873152" x2="93.00242201873152" y1="418" y2="430" />
</g>
</g>
<g fill="hsl(180, 100%, 40%)">
<text y="462">pathSizeRecursive.dense.d = 10</text>
<text y="462" x="436.09754254991714" text-anchor="end">4.451 s</text>
</g>
<g>
<title>4.451 s ±  64 ms</title>
<rect y="468" rx="5" height="22" width="436.09754254991714" fill="hsl(180, 100%, 80%)" stroke="hsl(180, 100%, 55%)" />
<g stroke="hsl(180, 100%, 40%)"><line x1="429.7954955403966" x2="442.3995895594377" y1="479" y2="479" />
<line x1="429.7954955403966" x2="429.7954955403966" y1="473" y2="485" />
<line x1="442.3995895594377" x2="442.3995895594377" y1="473" y2="485" />
</g>
</g>
<g fill="hsl(202, 100%, 40%)">
<text y="517">largestN.1</text>
<text y="517" x="395.5330169008717" text-anchor="end">4.037 s</text>
</g>
<g>
<title>4.037 s ± 274 ms</title>
<rect y="523" rx="5" height="22" width="395.5330169008717" fill="hsl(202, 100%, 80%)" stroke="hsl(202, 100%, 55%)" />
<g stroke="hsl(202, 100%, 40%)"><line x1="368.63866755718766" x2="422.42736624455574" y1="534" y2="534" />
<line x1="368.63866755718766" x2="368.63866755718766" y1="528" y2="540" />
<line x1="422.42736624455574" x2="422.42736624455574" y1="528" y2="540" />
</g>
</g>
<g fill="hsl(225, 100%, 40%)">
<text y="572">largestN.10</text>
<text y="572" x="379.78278660644247" text-anchor="end">3.876 s</text>
</g>
<g>
<title>3.876 s ±  66 ms</title>
<rect y="578" rx="5" height="22" width="379.78278660644247" fill="hsl(225, 100%, 80%)" stroke="hsl(225, 100%, 55%)" />
<g stroke="hsl(225, 100%, 40%)"><line x1="373.29124405072656" x2="386.2743291621584" y1="589" y2="589" />
<line x1="373.29124405072656" x2="373.29124405072656" y1="583" y2="595" />
<line x1="386.2743291621584" x2="386.2743291621584" y1="583" y2="595" />
</g>
</g>
<g fill="hsl(247, 100%, 40%)">
<text y="627">largestN.100</text>
<text y="627" x="363.8384534463374" text-anchor="end">3.713 s</text>
</g>
<g>
<title>3.713 s ± 242 ms</title>
<rect y="633" rx="5" height="22" width="363.8384534463374" fill="hsl(247, 100%, 80%)" stroke="hsl(247, 100%, 55%)" />
<g stroke="hsl(247, 100%, 40%)"><line x1="340.1574576363524" x2="387.5194492563224" y1="644" y2="644" />
<line x1="340.1574576363524" x2="340.1574576363524" y1="638" y2="650" />
<line x1="387.5194492563224" x2="387.5194492563224" y1="638" y2="650" />
</g>
</g>
<g fill="hsl(270, 100%, 40%)">
<text y="682">largestN.1,000</text>
<text y="682" x="352.9013331961964" text-anchor="end">3.602 s</text>
</g>
<g>
<title>3.602 s ±  41 ms</title>
<rect y="688" rx="5" height="22" width="352.9013331961964" fill="hsl(270, 100%, 80%)" stroke="hsl(270, 100%, 55%)" />
<g stroke="hsl(270, 100%, 40%)"><line x1="348.84881480874475" x2="356.95385158364803" y1="699" y2="699" />
<line x1="348.84881480874475" x2="348.84881480874475" y1="693" y2="705" />
<line x1="356.95385158364803" x2="356.95385158364803" y1="693" y2="705" />
</g>
</g>
<text fill="hsl(292, 100%, 40%)" y="737">displayPathSize.d = 6 371  ms</text>
<g>
<title>371  ms ±  25 ms</title>
<rect y="743" rx="5" height="22" width="36.33965456534932" fill="hsl(292, 100%, 80%)" stroke="hsl(292, 100%, 55%)" />
<g stroke="hsl(292, 100%, 40%)"><line x1="33.93470641992303" x2="38.74460271077561" y1="754" y2="754" />
<line x1="33.93470641992303" x2="33.93470641992303" y1="748" y2="760" />
<line x1="38.74460271077561" x2="38.74460271077561" y1="748" y2="760" />
</g>
</g>
<text fill="hsl(315, 100%, 40%)" y="792">displayPathSize.d = 8 1.819 s</text>
<g>
<title>1.819 s ± 173 ms</title>
<rect y="798" rx="5" height="22" width="178.19889273746318" fill="hsl(315, 100%, 80%)" stroke="hsl(315, 100%, 55%)" />
<g stroke="hsl(315, 100%, 40%)"><line x1="161.26673141168183" x2="195.13105406324453" y1="809" y2="809" />
<line x1="161.26673141168183" x2="161.26673141168183" y1="803" y2="815" />
<line x1="195.13105406324453" x2="195.13105406324453" y1="803" y2="815" />
</g>
</g>
<g fill="hsl(337, 100%, 40%)">
<text y="847">displayPathSize.d = 10</text>
<text y="847" x="878.3307761355538" text-anchor="end">8.965 s</text>
</g>
<g>
<title>8.965 s ± 629 ms</title>
<rect y="853" rx="5" height="22" width="878.3307761355538" fill="hsl(337, 100%, 80%)" stroke="hsl(337, 100%, 55%)" />
<g stroke="hsl(337, 100%, 40%)"><line x1="816.6615522711077" x2="940.0" y1="864" y2="864" />
<line x1="816.6615522711077" x2="816.6615522711077" y1="858" y2="870" />
<line x1="940.0" x2="940.0" y1="858" y2="870" />
</g>
</g>
</g>
</svg>
